%TF.GenerationSoftware,KiCad,Pcbnew,(5.1.6)-1*%
%TF.CreationDate,2023-02-01T13:27:27-05:00*%
%TF.ProjectId,A1200-adapter,41313230-302d-4616-9461-707465722e6b,rev?*%
%TF.SameCoordinates,Original*%
%TF.FileFunction,Legend,Top*%
%TF.FilePolarity,Positive*%
%FSLAX46Y46*%
G04 Gerber Fmt 4.6, Leading zero omitted, Abs format (unit mm)*
G04 Created by KiCad (PCBNEW (5.1.6)-1) date 2023-02-01 13:27:27*
%MOMM*%
%LPD*%
G01*
G04 APERTURE LIST*
%ADD10C,0.750000*%
%ADD11C,0.150000*%
%ADD12C,0.010000*%
G04 APERTURE END LIST*
D10*
X57871754Y-47937040D02*
X59300325Y-47937040D01*
X57586039Y-48794182D02*
X58586039Y-45794182D01*
X59586039Y-48794182D01*
X60586039Y-48794182D02*
X60586039Y-46794182D01*
X60586039Y-47079897D02*
X60728897Y-46937040D01*
X61014611Y-46794182D01*
X61443182Y-46794182D01*
X61728897Y-46937040D01*
X61871754Y-47222754D01*
X61871754Y-48794182D01*
X61871754Y-47222754D02*
X62014611Y-46937040D01*
X62300325Y-46794182D01*
X62728897Y-46794182D01*
X63014611Y-46937040D01*
X63157468Y-47222754D01*
X63157468Y-48794182D01*
X64586039Y-48794182D02*
X64586039Y-46794182D01*
X64586039Y-45794182D02*
X64443182Y-45937040D01*
X64586039Y-46079897D01*
X64728897Y-45937040D01*
X64586039Y-45794182D01*
X64586039Y-46079897D01*
X67300325Y-46794182D02*
X67300325Y-49222754D01*
X67157468Y-49508468D01*
X67014611Y-49651325D01*
X66728897Y-49794182D01*
X66300325Y-49794182D01*
X66014611Y-49651325D01*
X67300325Y-48651325D02*
X67014611Y-48794182D01*
X66443182Y-48794182D01*
X66157468Y-48651325D01*
X66014611Y-48508468D01*
X65871754Y-48222754D01*
X65871754Y-47365611D01*
X66014611Y-47079897D01*
X66157468Y-46937040D01*
X66443182Y-46794182D01*
X67014611Y-46794182D01*
X67300325Y-46937040D01*
X70014611Y-48794182D02*
X70014611Y-47222754D01*
X69871754Y-46937040D01*
X69586039Y-46794182D01*
X69014611Y-46794182D01*
X68728897Y-46937040D01*
X70014611Y-48651325D02*
X69728897Y-48794182D01*
X69014611Y-48794182D01*
X68728897Y-48651325D01*
X68586039Y-48365611D01*
X68586039Y-48079897D01*
X68728897Y-47794182D01*
X69014611Y-47651325D01*
X69728897Y-47651325D01*
X70014611Y-47508468D01*
X75014611Y-46794182D02*
X75014611Y-48794182D01*
X74300325Y-45651325D02*
X73586039Y-47794182D01*
X75443182Y-47794182D01*
X77157468Y-45794182D02*
X77443182Y-45794182D01*
X77728897Y-45937040D01*
X77871754Y-46079897D01*
X78014611Y-46365611D01*
X78157468Y-46937040D01*
X78157468Y-47651325D01*
X78014611Y-48222754D01*
X77871754Y-48508468D01*
X77728897Y-48651325D01*
X77443182Y-48794182D01*
X77157468Y-48794182D01*
X76871754Y-48651325D01*
X76728897Y-48508468D01*
X76586039Y-48222754D01*
X76443182Y-47651325D01*
X76443182Y-46937040D01*
X76586039Y-46365611D01*
X76728897Y-46079897D01*
X76871754Y-45937040D01*
X77157468Y-45794182D01*
X80014611Y-45794182D02*
X80300325Y-45794182D01*
X80586039Y-45937040D01*
X80728897Y-46079897D01*
X80871754Y-46365611D01*
X81014611Y-46937040D01*
X81014611Y-47651325D01*
X80871754Y-48222754D01*
X80728897Y-48508468D01*
X80586039Y-48651325D01*
X80300325Y-48794182D01*
X80014611Y-48794182D01*
X79728897Y-48651325D01*
X79586039Y-48508468D01*
X79443182Y-48222754D01*
X79300325Y-47651325D01*
X79300325Y-46937040D01*
X79443182Y-46365611D01*
X79586039Y-46079897D01*
X79728897Y-45937040D01*
X80014611Y-45794182D01*
X82871754Y-45794182D02*
X83157468Y-45794182D01*
X83443182Y-45937040D01*
X83586039Y-46079897D01*
X83728897Y-46365611D01*
X83871754Y-46937040D01*
X83871754Y-47651325D01*
X83728897Y-48222754D01*
X83586039Y-48508468D01*
X83443182Y-48651325D01*
X83157468Y-48794182D01*
X82871754Y-48794182D01*
X82586039Y-48651325D01*
X82443182Y-48508468D01*
X82300325Y-48222754D01*
X82157468Y-47651325D01*
X82157468Y-46937040D01*
X82300325Y-46365611D01*
X82443182Y-46079897D01*
X82586039Y-45937040D01*
X82871754Y-45794182D01*
X87014611Y-46794182D02*
X88157468Y-46794182D01*
X87443182Y-45794182D02*
X87443182Y-48365611D01*
X87586040Y-48651325D01*
X87871754Y-48794182D01*
X88157468Y-48794182D01*
X89586039Y-48794182D02*
X89300325Y-48651325D01*
X89157468Y-48508468D01*
X89014611Y-48222754D01*
X89014611Y-47365611D01*
X89157468Y-47079897D01*
X89300325Y-46937040D01*
X89586039Y-46794182D01*
X90014611Y-46794182D01*
X90300325Y-46937040D01*
X90443182Y-47079897D01*
X90586039Y-47365611D01*
X90586039Y-48222754D01*
X90443182Y-48508468D01*
X90300325Y-48651325D01*
X90014611Y-48794182D01*
X89586039Y-48794182D01*
X94157468Y-48794182D02*
X94157468Y-45794182D01*
X95300325Y-45794182D01*
X95586039Y-45937040D01*
X95728897Y-46079897D01*
X95871754Y-46365611D01*
X95871754Y-46794182D01*
X95728897Y-47079897D01*
X95586039Y-47222754D01*
X95300325Y-47365611D01*
X94157468Y-47365611D01*
X97157468Y-48794182D02*
X97157468Y-46794182D01*
X97157468Y-45794182D02*
X97014611Y-45937040D01*
X97157468Y-46079897D01*
X97300325Y-45937040D01*
X97157468Y-45794182D01*
X97157468Y-46079897D01*
X98443182Y-48651325D02*
X98871754Y-48794182D01*
X99586039Y-48794182D01*
X99871754Y-48651325D01*
X100014611Y-48508468D01*
X100157468Y-48222754D01*
X100157468Y-47937040D01*
X100014611Y-47651325D01*
X99871754Y-47508468D01*
X99586039Y-47365611D01*
X99014611Y-47222754D01*
X98728897Y-47079897D01*
X98586039Y-46937040D01*
X98443182Y-46651325D01*
X98443182Y-46365611D01*
X98586039Y-46079897D01*
X98728897Y-45937040D01*
X99014611Y-45794182D01*
X99728897Y-45794182D01*
X100157468Y-45937040D01*
X101014611Y-46794182D02*
X102157468Y-46794182D01*
X101443182Y-45794182D02*
X101443182Y-48365611D01*
X101586039Y-48651325D01*
X101871754Y-48794182D01*
X102157468Y-48794182D01*
X103586039Y-48794182D02*
X103300325Y-48651325D01*
X103157468Y-48508468D01*
X103014611Y-48222754D01*
X103014611Y-47365611D01*
X103157468Y-47079897D01*
X103300325Y-46937040D01*
X103586039Y-46794182D01*
X104014611Y-46794182D01*
X104300325Y-46937040D01*
X104443182Y-47079897D01*
X104586039Y-47365611D01*
X104586039Y-48222754D01*
X104443182Y-48508468D01*
X104300325Y-48651325D01*
X104014611Y-48794182D01*
X103586039Y-48794182D01*
X105871754Y-48794182D02*
X105871754Y-46794182D01*
X105871754Y-47365611D02*
X106014611Y-47079897D01*
X106157468Y-46937040D01*
X106443182Y-46794182D01*
X106728897Y-46794182D01*
X107728897Y-48794182D02*
X107728897Y-46794182D01*
X107728897Y-47079897D02*
X107871754Y-46937040D01*
X108157468Y-46794182D01*
X108586040Y-46794182D01*
X108871754Y-46937040D01*
X109014611Y-47222754D01*
X109014611Y-48794182D01*
X109014611Y-47222754D02*
X109157468Y-46937040D01*
X109443182Y-46794182D01*
X109871754Y-46794182D01*
X110157468Y-46937040D01*
X110300325Y-47222754D01*
X110300325Y-48794182D01*
X111443182Y-45794182D02*
X113300325Y-45794182D01*
X112300325Y-46937040D01*
X112728897Y-46937040D01*
X113014611Y-47079897D01*
X113157468Y-47222754D01*
X113300325Y-47508468D01*
X113300325Y-48222754D01*
X113157468Y-48508468D01*
X113014611Y-48651325D01*
X112728897Y-48794182D01*
X111871754Y-48794182D01*
X111586040Y-48651325D01*
X111443182Y-48508468D01*
X114443182Y-46079897D02*
X114586040Y-45937040D01*
X114871754Y-45794182D01*
X115586040Y-45794182D01*
X115871754Y-45937040D01*
X116014611Y-46079897D01*
X116157468Y-46365611D01*
X116157468Y-46651325D01*
X116014611Y-47079897D01*
X114300325Y-48794182D01*
X116157468Y-48794182D01*
X119586040Y-47937040D02*
X121014611Y-47937040D01*
X119300325Y-48794182D02*
X120300325Y-45794182D01*
X121300325Y-48794182D01*
X123586040Y-48794182D02*
X123586040Y-45794182D01*
X123586040Y-48651325D02*
X123300325Y-48794182D01*
X122728897Y-48794182D01*
X122443182Y-48651325D01*
X122300325Y-48508468D01*
X122157468Y-48222754D01*
X122157468Y-47365611D01*
X122300325Y-47079897D01*
X122443182Y-46937040D01*
X122728897Y-46794182D01*
X123300325Y-46794182D01*
X123586040Y-46937040D01*
X126300325Y-48794182D02*
X126300325Y-47222754D01*
X126157468Y-46937040D01*
X125871754Y-46794182D01*
X125300325Y-46794182D01*
X125014611Y-46937040D01*
X126300325Y-48651325D02*
X126014611Y-48794182D01*
X125300325Y-48794182D01*
X125014611Y-48651325D01*
X124871754Y-48365611D01*
X124871754Y-48079897D01*
X125014611Y-47794182D01*
X125300325Y-47651325D01*
X126014611Y-47651325D01*
X126300325Y-47508468D01*
X127728897Y-46794182D02*
X127728897Y-49794182D01*
X127728897Y-46937040D02*
X128014611Y-46794182D01*
X128586039Y-46794182D01*
X128871754Y-46937040D01*
X129014611Y-47079897D01*
X129157468Y-47365611D01*
X129157468Y-48222754D01*
X129014611Y-48508468D01*
X128871754Y-48651325D01*
X128586039Y-48794182D01*
X128014611Y-48794182D01*
X127728897Y-48651325D01*
X130014611Y-46794182D02*
X131157468Y-46794182D01*
X130443182Y-45794182D02*
X130443182Y-48365611D01*
X130586039Y-48651325D01*
X130871754Y-48794182D01*
X131157468Y-48794182D01*
X133300325Y-48651325D02*
X133014611Y-48794182D01*
X132443182Y-48794182D01*
X132157468Y-48651325D01*
X132014611Y-48365611D01*
X132014611Y-47222754D01*
X132157468Y-46937040D01*
X132443182Y-46794182D01*
X133014611Y-46794182D01*
X133300325Y-46937040D01*
X133443182Y-47222754D01*
X133443182Y-47508468D01*
X132014611Y-47794182D01*
X134728897Y-48794182D02*
X134728897Y-46794182D01*
X134728897Y-47365611D02*
X134871754Y-47079897D01*
X135014611Y-46937040D01*
X135300325Y-46794182D01*
X135586040Y-46794182D01*
D11*
X149955737Y-171104820D02*
X149955737Y-170438154D01*
X149955737Y-170628630D02*
X150003356Y-170533392D01*
X150050975Y-170485773D01*
X150146213Y-170438154D01*
X150241451Y-170438154D01*
X150955737Y-171057201D02*
X150860499Y-171104820D01*
X150670022Y-171104820D01*
X150574784Y-171057201D01*
X150527165Y-170961963D01*
X150527165Y-170581011D01*
X150574784Y-170485773D01*
X150670022Y-170438154D01*
X150860499Y-170438154D01*
X150955737Y-170485773D01*
X151003356Y-170581011D01*
X151003356Y-170676249D01*
X150527165Y-170771487D01*
X151336689Y-170438154D02*
X151574784Y-171104820D01*
X151812880Y-170438154D01*
X152384308Y-170104820D02*
X152479546Y-170104820D01*
X152574784Y-170152440D01*
X152622403Y-170200059D01*
X152670022Y-170295297D01*
X152717641Y-170485773D01*
X152717641Y-170723868D01*
X152670022Y-170914344D01*
X152622403Y-171009582D01*
X152574784Y-171057201D01*
X152479546Y-171104820D01*
X152384308Y-171104820D01*
X152289070Y-171057201D01*
X152241451Y-171009582D01*
X152193832Y-170914344D01*
X152146213Y-170723868D01*
X152146213Y-170485773D01*
X152193832Y-170295297D01*
X152241451Y-170200059D01*
X152289070Y-170152440D01*
X152384308Y-170104820D01*
X143096266Y-168690634D02*
X143286742Y-169357300D01*
X143477219Y-168881110D01*
X143667695Y-169357300D01*
X143858171Y-168690634D01*
X144239123Y-169357300D02*
X144239123Y-168690634D01*
X144239123Y-168357300D02*
X144191504Y-168404920D01*
X144239123Y-168452539D01*
X144286742Y-168404920D01*
X144239123Y-168357300D01*
X144239123Y-168452539D01*
X144715314Y-169357300D02*
X144715314Y-168690634D01*
X144715314Y-168881110D02*
X144762933Y-168785872D01*
X144810552Y-168738253D01*
X144905790Y-168690634D01*
X145001028Y-168690634D01*
X145715314Y-169309681D02*
X145620076Y-169357300D01*
X145429600Y-169357300D01*
X145334361Y-169309681D01*
X145286742Y-169214443D01*
X145286742Y-168833491D01*
X145334361Y-168738253D01*
X145429600Y-168690634D01*
X145620076Y-168690634D01*
X145715314Y-168738253D01*
X145762933Y-168833491D01*
X145762933Y-168928729D01*
X145286742Y-169023967D01*
X146048647Y-168690634D02*
X146429600Y-168690634D01*
X146191504Y-168357300D02*
X146191504Y-169214443D01*
X146239123Y-169309681D01*
X146334361Y-169357300D01*
X146429600Y-169357300D01*
X147191504Y-169357300D02*
X147191504Y-168833491D01*
X147143885Y-168738253D01*
X147048647Y-168690634D01*
X146858171Y-168690634D01*
X146762933Y-168738253D01*
X147191504Y-169309681D02*
X147096266Y-169357300D01*
X146858171Y-169357300D01*
X146762933Y-169309681D01*
X146715314Y-169214443D01*
X146715314Y-169119205D01*
X146762933Y-169023967D01*
X146858171Y-168976348D01*
X147096266Y-168976348D01*
X147191504Y-168928729D01*
X147667695Y-168690634D02*
X147667695Y-169690634D01*
X147667695Y-168738253D02*
X147762933Y-168690634D01*
X147953409Y-168690634D01*
X148048647Y-168738253D01*
X148096266Y-168785872D01*
X148143885Y-168881110D01*
X148143885Y-169166824D01*
X148096266Y-169262062D01*
X148048647Y-169309681D01*
X147953409Y-169357300D01*
X147762933Y-169357300D01*
X147667695Y-169309681D01*
X149286742Y-168452539D02*
X149334361Y-168404920D01*
X149429600Y-168357300D01*
X149667695Y-168357300D01*
X149762933Y-168404920D01*
X149810552Y-168452539D01*
X149858171Y-168547777D01*
X149858171Y-168643015D01*
X149810552Y-168785872D01*
X149239123Y-169357300D01*
X149858171Y-169357300D01*
X150477219Y-168357300D02*
X150572457Y-168357300D01*
X150667695Y-168404920D01*
X150715314Y-168452539D01*
X150762933Y-168547777D01*
X150810552Y-168738253D01*
X150810552Y-168976348D01*
X150762933Y-169166824D01*
X150715314Y-169262062D01*
X150667695Y-169309681D01*
X150572457Y-169357300D01*
X150477219Y-169357300D01*
X150381980Y-169309681D01*
X150334361Y-169262062D01*
X150286742Y-169166824D01*
X150239123Y-168976348D01*
X150239123Y-168738253D01*
X150286742Y-168547777D01*
X150334361Y-168452539D01*
X150381980Y-168404920D01*
X150477219Y-168357300D01*
X151191504Y-168452539D02*
X151239123Y-168404920D01*
X151334361Y-168357300D01*
X151572457Y-168357300D01*
X151667695Y-168404920D01*
X151715314Y-168452539D01*
X151762933Y-168547777D01*
X151762933Y-168643015D01*
X151715314Y-168785872D01*
X151143885Y-169357300D01*
X151762933Y-169357300D01*
X152096266Y-168357300D02*
X152715314Y-168357300D01*
X152381980Y-168738253D01*
X152524838Y-168738253D01*
X152620076Y-168785872D01*
X152667695Y-168833491D01*
X152715314Y-168928729D01*
X152715314Y-169166824D01*
X152667695Y-169262062D01*
X152620076Y-169309681D01*
X152524838Y-169357300D01*
X152239123Y-169357300D01*
X152143885Y-169309681D01*
X152096266Y-169262062D01*
X157659034Y-172227500D02*
X157087605Y-172227500D01*
X157373320Y-172227500D02*
X157373320Y-171227500D01*
X157278081Y-171370358D01*
X157182843Y-171465596D01*
X157087605Y-171513215D01*
D12*
%TO.C,Kicad-Logo*%
G36*
X142773400Y-45022614D02*
G01*
X142784265Y-45136553D01*
X142815882Y-45244176D01*
X142866785Y-45343175D01*
X142935507Y-45431244D01*
X143020581Y-45506076D01*
X143117568Y-45563944D01*
X143223836Y-45603565D01*
X143330850Y-45622133D01*
X143436500Y-45620994D01*
X143538675Y-45601490D01*
X143635266Y-45564966D01*
X143724162Y-45512765D01*
X143803254Y-45446233D01*
X143870431Y-45366712D01*
X143923583Y-45275547D01*
X143960601Y-45174083D01*
X143979373Y-45063662D01*
X143981311Y-45013766D01*
X143981311Y-44925827D01*
X144033240Y-44925827D01*
X144069547Y-44928671D01*
X144096445Y-44940471D01*
X144123551Y-44964209D01*
X144161933Y-45002591D01*
X144161933Y-47194162D01*
X144161924Y-47456299D01*
X144161892Y-47696801D01*
X144161828Y-47916608D01*
X144161724Y-48116661D01*
X144161573Y-48297904D01*
X144161366Y-48461276D01*
X144161094Y-48607720D01*
X144160750Y-48738177D01*
X144160326Y-48853589D01*
X144159813Y-48954898D01*
X144159203Y-49043044D01*
X144158488Y-49118970D01*
X144157660Y-49183617D01*
X144156711Y-49237927D01*
X144155633Y-49282840D01*
X144154417Y-49319300D01*
X144153055Y-49348247D01*
X144151539Y-49370623D01*
X144149862Y-49387369D01*
X144148014Y-49399428D01*
X144145987Y-49407740D01*
X144143775Y-49413247D01*
X144142692Y-49415097D01*
X144138529Y-49422109D01*
X144134995Y-49428556D01*
X144131165Y-49434460D01*
X144126118Y-49439846D01*
X144118929Y-49444738D01*
X144108677Y-49449158D01*
X144094436Y-49453132D01*
X144075286Y-49456681D01*
X144050301Y-49459830D01*
X144018560Y-49462602D01*
X143979138Y-49465021D01*
X143931114Y-49467111D01*
X143873563Y-49468895D01*
X143805563Y-49470397D01*
X143726190Y-49471640D01*
X143634521Y-49472649D01*
X143529634Y-49473445D01*
X143410604Y-49474054D01*
X143276510Y-49474499D01*
X143126427Y-49474803D01*
X142959433Y-49474990D01*
X142774604Y-49475084D01*
X142571017Y-49475108D01*
X142347750Y-49475085D01*
X142103878Y-49475040D01*
X141838479Y-49474997D01*
X141800096Y-49474992D01*
X141533118Y-49474949D01*
X141287798Y-49474878D01*
X141063217Y-49474773D01*
X140858455Y-49474626D01*
X140672594Y-49474429D01*
X140504712Y-49474176D01*
X140353892Y-49473860D01*
X140219213Y-49473473D01*
X140099756Y-49473007D01*
X139994601Y-49472457D01*
X139902829Y-49471813D01*
X139823521Y-49471071D01*
X139755757Y-49470221D01*
X139698618Y-49469257D01*
X139651183Y-49468171D01*
X139612534Y-49466957D01*
X139581751Y-49465607D01*
X139557915Y-49464115D01*
X139540106Y-49462471D01*
X139527405Y-49460671D01*
X139518892Y-49458705D01*
X139514534Y-49457037D01*
X139506072Y-49453466D01*
X139498303Y-49450830D01*
X139491198Y-49448194D01*
X139484727Y-49444622D01*
X139478861Y-49439181D01*
X139473571Y-49430935D01*
X139468826Y-49418950D01*
X139464598Y-49402291D01*
X139460857Y-49380023D01*
X139457573Y-49351212D01*
X139454717Y-49314923D01*
X139452260Y-49270221D01*
X139450171Y-49216171D01*
X139448422Y-49151839D01*
X139446983Y-49076290D01*
X139445824Y-48988590D01*
X139444917Y-48887803D01*
X139444231Y-48772994D01*
X139443737Y-48643230D01*
X139443405Y-48497575D01*
X139443207Y-48335095D01*
X139443113Y-48154855D01*
X139443092Y-47955920D01*
X139443115Y-47737356D01*
X139443154Y-47498228D01*
X139443178Y-47237600D01*
X139443178Y-47195449D01*
X139443164Y-46932552D01*
X139443139Y-46691292D01*
X139443129Y-46470725D01*
X139443158Y-46269912D01*
X139443252Y-46087909D01*
X139443438Y-45923776D01*
X139443741Y-45776571D01*
X139444186Y-45645352D01*
X139444766Y-45535427D01*
X139747603Y-45535427D01*
X139787393Y-45593271D01*
X139798564Y-45609039D01*
X139808634Y-45623001D01*
X139817662Y-45636344D01*
X139825703Y-45650253D01*
X139832814Y-45665916D01*
X139839053Y-45684518D01*
X139844475Y-45707246D01*
X139849138Y-45735287D01*
X139853099Y-45769827D01*
X139856415Y-45812052D01*
X139859141Y-45863149D01*
X139861336Y-45924304D01*
X139863055Y-45996704D01*
X139864356Y-46081535D01*
X139865295Y-46179982D01*
X139865930Y-46293234D01*
X139866316Y-46422476D01*
X139866512Y-46568894D01*
X139866573Y-46733676D01*
X139866557Y-46918007D01*
X139866520Y-47123073D01*
X139866511Y-47245693D01*
X139866535Y-47462642D01*
X139866569Y-47658202D01*
X139866557Y-47833559D01*
X139866442Y-47989901D01*
X139866170Y-48128417D01*
X139865682Y-48250294D01*
X139864924Y-48356720D01*
X139863838Y-48448882D01*
X139862369Y-48527969D01*
X139860460Y-48595168D01*
X139858056Y-48651667D01*
X139855099Y-48698653D01*
X139851534Y-48737315D01*
X139847305Y-48768840D01*
X139842354Y-48794415D01*
X139836627Y-48815230D01*
X139830067Y-48832471D01*
X139822617Y-48847325D01*
X139814221Y-48860982D01*
X139804824Y-48874629D01*
X139794368Y-48889453D01*
X139788277Y-48898343D01*
X139749504Y-48955960D01*
X140281068Y-48955960D01*
X140404317Y-48955925D01*
X140506813Y-48955775D01*
X140590380Y-48955438D01*
X140656844Y-48954846D01*
X140708029Y-48953927D01*
X140745759Y-48952611D01*
X140771860Y-48950829D01*
X140788156Y-48948511D01*
X140796472Y-48945586D01*
X140798632Y-48941984D01*
X140796461Y-48937635D01*
X140795265Y-48936205D01*
X140770115Y-48899133D01*
X140744217Y-48846332D01*
X140720608Y-48784330D01*
X140712339Y-48757917D01*
X140707722Y-48739976D01*
X140703821Y-48718915D01*
X140700552Y-48692649D01*
X140697834Y-48659092D01*
X140695585Y-48616159D01*
X140693723Y-48561764D01*
X140692164Y-48493822D01*
X140690828Y-48410248D01*
X140689631Y-48308955D01*
X140688492Y-48187860D01*
X140688115Y-48143160D01*
X140687098Y-48018009D01*
X140686340Y-47913642D01*
X140685897Y-47828267D01*
X140685830Y-47760093D01*
X140686195Y-47707325D01*
X140687052Y-47668174D01*
X140688459Y-47640845D01*
X140690475Y-47623546D01*
X140693157Y-47614486D01*
X140696564Y-47611872D01*
X140700756Y-47613911D01*
X140705229Y-47618227D01*
X140715584Y-47631162D01*
X140737642Y-47660236D01*
X140769843Y-47703319D01*
X140810626Y-47758278D01*
X140858430Y-47822983D01*
X140911695Y-47895302D01*
X140968860Y-47973104D01*
X141028363Y-48054258D01*
X141088645Y-48136632D01*
X141148145Y-48218096D01*
X141205302Y-48296517D01*
X141258555Y-48369764D01*
X141306343Y-48435707D01*
X141347107Y-48492214D01*
X141379284Y-48537153D01*
X141401315Y-48568394D01*
X141405883Y-48575026D01*
X141428804Y-48611929D01*
X141455612Y-48659919D01*
X141481011Y-48709457D01*
X141484232Y-48716137D01*
X141505910Y-48764332D01*
X141518496Y-48801894D01*
X141524226Y-48837720D01*
X141525344Y-48879760D01*
X141524710Y-48955960D01*
X142679149Y-48955960D01*
X142587985Y-48862229D01*
X142541188Y-48812335D01*
X142490901Y-48755855D01*
X142444856Y-48701586D01*
X142424431Y-48676233D01*
X142393993Y-48636688D01*
X142353938Y-48583476D01*
X142305439Y-48518227D01*
X142249665Y-48442571D01*
X142187789Y-48358137D01*
X142120981Y-48266554D01*
X142050413Y-48169452D01*
X141977255Y-48068461D01*
X141902679Y-47965210D01*
X141827856Y-47861328D01*
X141753957Y-47758445D01*
X141682154Y-47658191D01*
X141613616Y-47562196D01*
X141549516Y-47472087D01*
X141491025Y-47389496D01*
X141439314Y-47316052D01*
X141395553Y-47253384D01*
X141360915Y-47203121D01*
X141336570Y-47166894D01*
X141323689Y-47146331D01*
X141321931Y-47142228D01*
X141329890Y-47130902D01*
X141350685Y-47103722D01*
X141382953Y-47062389D01*
X141425330Y-47008604D01*
X141476453Y-46944066D01*
X141534959Y-46870478D01*
X141599486Y-46789538D01*
X141668669Y-46702948D01*
X141741147Y-46612408D01*
X141815554Y-46519620D01*
X141875283Y-46445262D01*
X142886289Y-46445262D01*
X142892198Y-46458219D01*
X142906528Y-46480468D01*
X142907575Y-46481951D01*
X142926362Y-46512104D01*
X142946009Y-46548935D01*
X142949908Y-46557071D01*
X142953444Y-46565500D01*
X142956570Y-46575619D01*
X142959314Y-46588820D01*
X142961708Y-46606498D01*
X142963781Y-46630044D01*
X142965565Y-46660853D01*
X142967088Y-46700317D01*
X142968381Y-46749829D01*
X142969474Y-46810783D01*
X142970397Y-46884571D01*
X142971181Y-46972588D01*
X142971855Y-47076225D01*
X142972450Y-47196876D01*
X142972995Y-47335934D01*
X142973521Y-47494792D01*
X142974055Y-47673649D01*
X142974594Y-47858767D01*
X142975028Y-48022705D01*
X142975291Y-48166863D01*
X142975316Y-48292639D01*
X142975035Y-48401431D01*
X142974381Y-48494637D01*
X142973286Y-48573657D01*
X142971682Y-48639888D01*
X142969503Y-48694730D01*
X142966681Y-48739581D01*
X142963149Y-48775838D01*
X142958839Y-48804901D01*
X142953683Y-48828169D01*
X142947615Y-48847039D01*
X142940567Y-48862911D01*
X142932471Y-48877182D01*
X142923260Y-48891251D01*
X142914760Y-48903718D01*
X142897624Y-48930012D01*
X142887478Y-48947597D01*
X142886289Y-48950817D01*
X142897196Y-48951894D01*
X142928389Y-48952895D01*
X142977577Y-48953795D01*
X143042467Y-48954570D01*
X143120770Y-48955197D01*
X143210193Y-48955651D01*
X143308444Y-48955909D01*
X143377355Y-48955960D01*
X143482348Y-48955740D01*
X143579190Y-48955108D01*
X143665693Y-48954109D01*
X143739668Y-48952787D01*
X143798926Y-48951186D01*
X143841280Y-48949351D01*
X143864540Y-48947325D01*
X143868422Y-48946053D01*
X143860724Y-48931151D01*
X143852726Y-48923120D01*
X143839554Y-48905994D01*
X143822315Y-48875743D01*
X143810393Y-48851182D01*
X143783755Y-48792271D01*
X143780680Y-47615405D01*
X143777605Y-46438538D01*
X143331947Y-46438538D01*
X143234130Y-46438702D01*
X143143736Y-46439171D01*
X143063170Y-46439907D01*
X142994838Y-46440876D01*
X142941144Y-46442040D01*
X142904495Y-46443363D01*
X142887296Y-46444809D01*
X142886289Y-46445262D01*
X141875283Y-46445262D01*
X141890530Y-46426282D01*
X141964710Y-46334097D01*
X142036731Y-46244764D01*
X142105231Y-46159984D01*
X142168845Y-46081458D01*
X142226212Y-46010886D01*
X142275967Y-45949969D01*
X142316748Y-45900407D01*
X142333912Y-45879738D01*
X142420204Y-45779076D01*
X142496803Y-45695819D01*
X142565617Y-45627998D01*
X142628552Y-45573649D01*
X142637933Y-45566282D01*
X142677444Y-45535677D01*
X141545684Y-45535427D01*
X141550973Y-45583404D01*
X141547670Y-45640748D01*
X141526139Y-45709023D01*
X141486165Y-45788772D01*
X141440857Y-45861055D01*
X141424639Y-45883700D01*
X141396586Y-45921256D01*
X141358370Y-45971581D01*
X141311663Y-46032533D01*
X141258139Y-46101971D01*
X141199469Y-46177754D01*
X141137325Y-46257740D01*
X141073379Y-46339788D01*
X141009305Y-46421756D01*
X140946773Y-46501503D01*
X140887457Y-46576887D01*
X140833029Y-46645767D01*
X140785161Y-46706002D01*
X140745525Y-46755449D01*
X140715794Y-46791968D01*
X140697639Y-46813418D01*
X140694580Y-46816716D01*
X140691721Y-46808709D01*
X140689507Y-46778415D01*
X140687943Y-46726116D01*
X140687033Y-46652091D01*
X140686780Y-46556623D01*
X140687187Y-46439994D01*
X140688096Y-46320005D01*
X140689418Y-46187893D01*
X140690943Y-46076154D01*
X140692919Y-45982585D01*
X140695594Y-45904979D01*
X140699218Y-45841134D01*
X140704039Y-45788843D01*
X140710306Y-45745904D01*
X140718268Y-45710111D01*
X140728173Y-45679260D01*
X140740269Y-45651146D01*
X140754807Y-45623565D01*
X140769489Y-45598526D01*
X140807486Y-45535427D01*
X139747603Y-45535427D01*
X139444766Y-45535427D01*
X139444799Y-45529177D01*
X139445605Y-45427104D01*
X139446630Y-45338193D01*
X139447900Y-45261501D01*
X139449440Y-45196087D01*
X139451276Y-45141009D01*
X139453433Y-45095325D01*
X139455937Y-45058094D01*
X139458813Y-45028373D01*
X139462087Y-45005222D01*
X139465785Y-44987699D01*
X139469931Y-44974861D01*
X139474553Y-44965768D01*
X139479674Y-44959478D01*
X139485322Y-44955048D01*
X139491521Y-44951538D01*
X139498296Y-44948005D01*
X139504292Y-44944436D01*
X139509525Y-44941860D01*
X139517701Y-44939532D01*
X139529914Y-44937438D01*
X139547259Y-44935567D01*
X139570831Y-44933907D01*
X139601723Y-44932444D01*
X139641032Y-44931168D01*
X139689850Y-44930064D01*
X139749273Y-44929121D01*
X139820396Y-44928327D01*
X139904312Y-44927669D01*
X140002117Y-44927135D01*
X140114906Y-44926713D01*
X140243771Y-44926389D01*
X140389809Y-44926152D01*
X140554114Y-44925990D01*
X140737780Y-44925890D01*
X140941903Y-44925840D01*
X141153047Y-44925827D01*
X142773400Y-44925827D01*
X142773400Y-45022614D01*
G37*
X142773400Y-45022614D02*
X142784265Y-45136553D01*
X142815882Y-45244176D01*
X142866785Y-45343175D01*
X142935507Y-45431244D01*
X143020581Y-45506076D01*
X143117568Y-45563944D01*
X143223836Y-45603565D01*
X143330850Y-45622133D01*
X143436500Y-45620994D01*
X143538675Y-45601490D01*
X143635266Y-45564966D01*
X143724162Y-45512765D01*
X143803254Y-45446233D01*
X143870431Y-45366712D01*
X143923583Y-45275547D01*
X143960601Y-45174083D01*
X143979373Y-45063662D01*
X143981311Y-45013766D01*
X143981311Y-44925827D01*
X144033240Y-44925827D01*
X144069547Y-44928671D01*
X144096445Y-44940471D01*
X144123551Y-44964209D01*
X144161933Y-45002591D01*
X144161933Y-47194162D01*
X144161924Y-47456299D01*
X144161892Y-47696801D01*
X144161828Y-47916608D01*
X144161724Y-48116661D01*
X144161573Y-48297904D01*
X144161366Y-48461276D01*
X144161094Y-48607720D01*
X144160750Y-48738177D01*
X144160326Y-48853589D01*
X144159813Y-48954898D01*
X144159203Y-49043044D01*
X144158488Y-49118970D01*
X144157660Y-49183617D01*
X144156711Y-49237927D01*
X144155633Y-49282840D01*
X144154417Y-49319300D01*
X144153055Y-49348247D01*
X144151539Y-49370623D01*
X144149862Y-49387369D01*
X144148014Y-49399428D01*
X144145987Y-49407740D01*
X144143775Y-49413247D01*
X144142692Y-49415097D01*
X144138529Y-49422109D01*
X144134995Y-49428556D01*
X144131165Y-49434460D01*
X144126118Y-49439846D01*
X144118929Y-49444738D01*
X144108677Y-49449158D01*
X144094436Y-49453132D01*
X144075286Y-49456681D01*
X144050301Y-49459830D01*
X144018560Y-49462602D01*
X143979138Y-49465021D01*
X143931114Y-49467111D01*
X143873563Y-49468895D01*
X143805563Y-49470397D01*
X143726190Y-49471640D01*
X143634521Y-49472649D01*
X143529634Y-49473445D01*
X143410604Y-49474054D01*
X143276510Y-49474499D01*
X143126427Y-49474803D01*
X142959433Y-49474990D01*
X142774604Y-49475084D01*
X142571017Y-49475108D01*
X142347750Y-49475085D01*
X142103878Y-49475040D01*
X141838479Y-49474997D01*
X141800096Y-49474992D01*
X141533118Y-49474949D01*
X141287798Y-49474878D01*
X141063217Y-49474773D01*
X140858455Y-49474626D01*
X140672594Y-49474429D01*
X140504712Y-49474176D01*
X140353892Y-49473860D01*
X140219213Y-49473473D01*
X140099756Y-49473007D01*
X139994601Y-49472457D01*
X139902829Y-49471813D01*
X139823521Y-49471071D01*
X139755757Y-49470221D01*
X139698618Y-49469257D01*
X139651183Y-49468171D01*
X139612534Y-49466957D01*
X139581751Y-49465607D01*
X139557915Y-49464115D01*
X139540106Y-49462471D01*
X139527405Y-49460671D01*
X139518892Y-49458705D01*
X139514534Y-49457037D01*
X139506072Y-49453466D01*
X139498303Y-49450830D01*
X139491198Y-49448194D01*
X139484727Y-49444622D01*
X139478861Y-49439181D01*
X139473571Y-49430935D01*
X139468826Y-49418950D01*
X139464598Y-49402291D01*
X139460857Y-49380023D01*
X139457573Y-49351212D01*
X139454717Y-49314923D01*
X139452260Y-49270221D01*
X139450171Y-49216171D01*
X139448422Y-49151839D01*
X139446983Y-49076290D01*
X139445824Y-48988590D01*
X139444917Y-48887803D01*
X139444231Y-48772994D01*
X139443737Y-48643230D01*
X139443405Y-48497575D01*
X139443207Y-48335095D01*
X139443113Y-48154855D01*
X139443092Y-47955920D01*
X139443115Y-47737356D01*
X139443154Y-47498228D01*
X139443178Y-47237600D01*
X139443178Y-47195449D01*
X139443164Y-46932552D01*
X139443139Y-46691292D01*
X139443129Y-46470725D01*
X139443158Y-46269912D01*
X139443252Y-46087909D01*
X139443438Y-45923776D01*
X139443741Y-45776571D01*
X139444186Y-45645352D01*
X139444766Y-45535427D01*
X139747603Y-45535427D01*
X139787393Y-45593271D01*
X139798564Y-45609039D01*
X139808634Y-45623001D01*
X139817662Y-45636344D01*
X139825703Y-45650253D01*
X139832814Y-45665916D01*
X139839053Y-45684518D01*
X139844475Y-45707246D01*
X139849138Y-45735287D01*
X139853099Y-45769827D01*
X139856415Y-45812052D01*
X139859141Y-45863149D01*
X139861336Y-45924304D01*
X139863055Y-45996704D01*
X139864356Y-46081535D01*
X139865295Y-46179982D01*
X139865930Y-46293234D01*
X139866316Y-46422476D01*
X139866512Y-46568894D01*
X139866573Y-46733676D01*
X139866557Y-46918007D01*
X139866520Y-47123073D01*
X139866511Y-47245693D01*
X139866535Y-47462642D01*
X139866569Y-47658202D01*
X139866557Y-47833559D01*
X139866442Y-47989901D01*
X139866170Y-48128417D01*
X139865682Y-48250294D01*
X139864924Y-48356720D01*
X139863838Y-48448882D01*
X139862369Y-48527969D01*
X139860460Y-48595168D01*
X139858056Y-48651667D01*
X139855099Y-48698653D01*
X139851534Y-48737315D01*
X139847305Y-48768840D01*
X139842354Y-48794415D01*
X139836627Y-48815230D01*
X139830067Y-48832471D01*
X139822617Y-48847325D01*
X139814221Y-48860982D01*
X139804824Y-48874629D01*
X139794368Y-48889453D01*
X139788277Y-48898343D01*
X139749504Y-48955960D01*
X140281068Y-48955960D01*
X140404317Y-48955925D01*
X140506813Y-48955775D01*
X140590380Y-48955438D01*
X140656844Y-48954846D01*
X140708029Y-48953927D01*
X140745759Y-48952611D01*
X140771860Y-48950829D01*
X140788156Y-48948511D01*
X140796472Y-48945586D01*
X140798632Y-48941984D01*
X140796461Y-48937635D01*
X140795265Y-48936205D01*
X140770115Y-48899133D01*
X140744217Y-48846332D01*
X140720608Y-48784330D01*
X140712339Y-48757917D01*
X140707722Y-48739976D01*
X140703821Y-48718915D01*
X140700552Y-48692649D01*
X140697834Y-48659092D01*
X140695585Y-48616159D01*
X140693723Y-48561764D01*
X140692164Y-48493822D01*
X140690828Y-48410248D01*
X140689631Y-48308955D01*
X140688492Y-48187860D01*
X140688115Y-48143160D01*
X140687098Y-48018009D01*
X140686340Y-47913642D01*
X140685897Y-47828267D01*
X140685830Y-47760093D01*
X140686195Y-47707325D01*
X140687052Y-47668174D01*
X140688459Y-47640845D01*
X140690475Y-47623546D01*
X140693157Y-47614486D01*
X140696564Y-47611872D01*
X140700756Y-47613911D01*
X140705229Y-47618227D01*
X140715584Y-47631162D01*
X140737642Y-47660236D01*
X140769843Y-47703319D01*
X140810626Y-47758278D01*
X140858430Y-47822983D01*
X140911695Y-47895302D01*
X140968860Y-47973104D01*
X141028363Y-48054258D01*
X141088645Y-48136632D01*
X141148145Y-48218096D01*
X141205302Y-48296517D01*
X141258555Y-48369764D01*
X141306343Y-48435707D01*
X141347107Y-48492214D01*
X141379284Y-48537153D01*
X141401315Y-48568394D01*
X141405883Y-48575026D01*
X141428804Y-48611929D01*
X141455612Y-48659919D01*
X141481011Y-48709457D01*
X141484232Y-48716137D01*
X141505910Y-48764332D01*
X141518496Y-48801894D01*
X141524226Y-48837720D01*
X141525344Y-48879760D01*
X141524710Y-48955960D01*
X142679149Y-48955960D01*
X142587985Y-48862229D01*
X142541188Y-48812335D01*
X142490901Y-48755855D01*
X142444856Y-48701586D01*
X142424431Y-48676233D01*
X142393993Y-48636688D01*
X142353938Y-48583476D01*
X142305439Y-48518227D01*
X142249665Y-48442571D01*
X142187789Y-48358137D01*
X142120981Y-48266554D01*
X142050413Y-48169452D01*
X141977255Y-48068461D01*
X141902679Y-47965210D01*
X141827856Y-47861328D01*
X141753957Y-47758445D01*
X141682154Y-47658191D01*
X141613616Y-47562196D01*
X141549516Y-47472087D01*
X141491025Y-47389496D01*
X141439314Y-47316052D01*
X141395553Y-47253384D01*
X141360915Y-47203121D01*
X141336570Y-47166894D01*
X141323689Y-47146331D01*
X141321931Y-47142228D01*
X141329890Y-47130902D01*
X141350685Y-47103722D01*
X141382953Y-47062389D01*
X141425330Y-47008604D01*
X141476453Y-46944066D01*
X141534959Y-46870478D01*
X141599486Y-46789538D01*
X141668669Y-46702948D01*
X141741147Y-46612408D01*
X141815554Y-46519620D01*
X141875283Y-46445262D01*
X142886289Y-46445262D01*
X142892198Y-46458219D01*
X142906528Y-46480468D01*
X142907575Y-46481951D01*
X142926362Y-46512104D01*
X142946009Y-46548935D01*
X142949908Y-46557071D01*
X142953444Y-46565500D01*
X142956570Y-46575619D01*
X142959314Y-46588820D01*
X142961708Y-46606498D01*
X142963781Y-46630044D01*
X142965565Y-46660853D01*
X142967088Y-46700317D01*
X142968381Y-46749829D01*
X142969474Y-46810783D01*
X142970397Y-46884571D01*
X142971181Y-46972588D01*
X142971855Y-47076225D01*
X142972450Y-47196876D01*
X142972995Y-47335934D01*
X142973521Y-47494792D01*
X142974055Y-47673649D01*
X142974594Y-47858767D01*
X142975028Y-48022705D01*
X142975291Y-48166863D01*
X142975316Y-48292639D01*
X142975035Y-48401431D01*
X142974381Y-48494637D01*
X142973286Y-48573657D01*
X142971682Y-48639888D01*
X142969503Y-48694730D01*
X142966681Y-48739581D01*
X142963149Y-48775838D01*
X142958839Y-48804901D01*
X142953683Y-48828169D01*
X142947615Y-48847039D01*
X142940567Y-48862911D01*
X142932471Y-48877182D01*
X142923260Y-48891251D01*
X142914760Y-48903718D01*
X142897624Y-48930012D01*
X142887478Y-48947597D01*
X142886289Y-48950817D01*
X142897196Y-48951894D01*
X142928389Y-48952895D01*
X142977577Y-48953795D01*
X143042467Y-48954570D01*
X143120770Y-48955197D01*
X143210193Y-48955651D01*
X143308444Y-48955909D01*
X143377355Y-48955960D01*
X143482348Y-48955740D01*
X143579190Y-48955108D01*
X143665693Y-48954109D01*
X143739668Y-48952787D01*
X143798926Y-48951186D01*
X143841280Y-48949351D01*
X143864540Y-48947325D01*
X143868422Y-48946053D01*
X143860724Y-48931151D01*
X143852726Y-48923120D01*
X143839554Y-48905994D01*
X143822315Y-48875743D01*
X143810393Y-48851182D01*
X143783755Y-48792271D01*
X143780680Y-47615405D01*
X143777605Y-46438538D01*
X143331947Y-46438538D01*
X143234130Y-46438702D01*
X143143736Y-46439171D01*
X143063170Y-46439907D01*
X142994838Y-46440876D01*
X142941144Y-46442040D01*
X142904495Y-46443363D01*
X142887296Y-46444809D01*
X142886289Y-46445262D01*
X141875283Y-46445262D01*
X141890530Y-46426282D01*
X141964710Y-46334097D01*
X142036731Y-46244764D01*
X142105231Y-46159984D01*
X142168845Y-46081458D01*
X142226212Y-46010886D01*
X142275967Y-45949969D01*
X142316748Y-45900407D01*
X142333912Y-45879738D01*
X142420204Y-45779076D01*
X142496803Y-45695819D01*
X142565617Y-45627998D01*
X142628552Y-45573649D01*
X142637933Y-45566282D01*
X142677444Y-45535677D01*
X141545684Y-45535427D01*
X141550973Y-45583404D01*
X141547670Y-45640748D01*
X141526139Y-45709023D01*
X141486165Y-45788772D01*
X141440857Y-45861055D01*
X141424639Y-45883700D01*
X141396586Y-45921256D01*
X141358370Y-45971581D01*
X141311663Y-46032533D01*
X141258139Y-46101971D01*
X141199469Y-46177754D01*
X141137325Y-46257740D01*
X141073379Y-46339788D01*
X141009305Y-46421756D01*
X140946773Y-46501503D01*
X140887457Y-46576887D01*
X140833029Y-46645767D01*
X140785161Y-46706002D01*
X140745525Y-46755449D01*
X140715794Y-46791968D01*
X140697639Y-46813418D01*
X140694580Y-46816716D01*
X140691721Y-46808709D01*
X140689507Y-46778415D01*
X140687943Y-46726116D01*
X140687033Y-46652091D01*
X140686780Y-46556623D01*
X140687187Y-46439994D01*
X140688096Y-46320005D01*
X140689418Y-46187893D01*
X140690943Y-46076154D01*
X140692919Y-45982585D01*
X140695594Y-45904979D01*
X140699218Y-45841134D01*
X140704039Y-45788843D01*
X140710306Y-45745904D01*
X140718268Y-45710111D01*
X140728173Y-45679260D01*
X140740269Y-45651146D01*
X140754807Y-45623565D01*
X140769489Y-45598526D01*
X140807486Y-45535427D01*
X139747603Y-45535427D01*
X139444766Y-45535427D01*
X139444799Y-45529177D01*
X139445605Y-45427104D01*
X139446630Y-45338193D01*
X139447900Y-45261501D01*
X139449440Y-45196087D01*
X139451276Y-45141009D01*
X139453433Y-45095325D01*
X139455937Y-45058094D01*
X139458813Y-45028373D01*
X139462087Y-45005222D01*
X139465785Y-44987699D01*
X139469931Y-44974861D01*
X139474553Y-44965768D01*
X139479674Y-44959478D01*
X139485322Y-44955048D01*
X139491521Y-44951538D01*
X139498296Y-44948005D01*
X139504292Y-44944436D01*
X139509525Y-44941860D01*
X139517701Y-44939532D01*
X139529914Y-44937438D01*
X139547259Y-44935567D01*
X139570831Y-44933907D01*
X139601723Y-44932444D01*
X139641032Y-44931168D01*
X139689850Y-44930064D01*
X139749273Y-44929121D01*
X139820396Y-44928327D01*
X139904312Y-44927669D01*
X140002117Y-44927135D01*
X140114906Y-44926713D01*
X140243771Y-44926389D01*
X140389809Y-44926152D01*
X140554114Y-44925990D01*
X140737780Y-44925890D01*
X140941903Y-44925840D01*
X141153047Y-44925827D01*
X142773400Y-44925827D01*
X142773400Y-45022614D01*
G36*
X146048229Y-45482631D02*
G01*
X146208370Y-45503805D01*
X146372310Y-45543945D01*
X146542113Y-45603449D01*
X146719843Y-45682714D01*
X146731110Y-45688259D01*
X146788805Y-45716285D01*
X146840352Y-45740362D01*
X146881991Y-45758809D01*
X146909962Y-45769946D01*
X146919533Y-45772493D01*
X146938750Y-45777501D01*
X146943361Y-45781707D01*
X146938258Y-45792140D01*
X146922218Y-45818428D01*
X146897088Y-45857817D01*
X146864714Y-45907551D01*
X146826943Y-45964875D01*
X146785622Y-46027036D01*
X146742598Y-46091278D01*
X146699717Y-46154845D01*
X146658826Y-46214985D01*
X146621771Y-46268940D01*
X146590400Y-46313957D01*
X146566559Y-46347281D01*
X146552094Y-46366157D01*
X146550109Y-46368347D01*
X146539991Y-46363698D01*
X146517650Y-46346522D01*
X146487080Y-46320000D01*
X146471336Y-46305524D01*
X146374847Y-46230242D01*
X146268136Y-46174801D01*
X146152632Y-46139701D01*
X146029762Y-46125440D01*
X145960361Y-46126611D01*
X145839223Y-46143772D01*
X145730005Y-46179654D01*
X145632382Y-46234519D01*
X145546028Y-46308630D01*
X145470615Y-46402248D01*
X145405818Y-46515636D01*
X145368401Y-46602227D01*
X145324548Y-46737926D01*
X145292228Y-46885410D01*
X145271357Y-47040874D01*
X145261851Y-47200516D01*
X145263627Y-47360533D01*
X145276603Y-47517121D01*
X145300694Y-47666478D01*
X145335818Y-47804800D01*
X145381892Y-47928284D01*
X145398173Y-47962538D01*
X145466420Y-48076624D01*
X145546879Y-48173117D01*
X145638370Y-48251230D01*
X145739711Y-48310177D01*
X145849720Y-48349172D01*
X145967215Y-48367428D01*
X146008683Y-48368771D01*
X146130241Y-48357850D01*
X146250678Y-48325034D01*
X146368466Y-48270999D01*
X146482077Y-48196425D01*
X146573485Y-48118099D01*
X146620015Y-48073568D01*
X146801283Y-48370831D01*
X146846380Y-48444993D01*
X146887619Y-48513206D01*
X146923535Y-48573019D01*
X146952666Y-48621980D01*
X146973550Y-48657639D01*
X146984724Y-48677544D01*
X146986175Y-48680639D01*
X146977946Y-48690278D01*
X146952367Y-48707559D01*
X146912673Y-48730843D01*
X146862097Y-48758494D01*
X146803874Y-48788875D01*
X146741237Y-48820350D01*
X146677421Y-48851282D01*
X146615660Y-48880033D01*
X146559188Y-48904968D01*
X146511238Y-48924449D01*
X146487786Y-48932878D01*
X146354021Y-48970693D01*
X146216127Y-48995696D01*
X146068422Y-49008700D01*
X145941633Y-49011028D01*
X145873678Y-49009933D01*
X145808077Y-49007835D01*
X145750647Y-49004994D01*
X145707203Y-49001666D01*
X145693098Y-48999982D01*
X145554084Y-48971147D01*
X145412557Y-48926028D01*
X145275075Y-48867310D01*
X145148194Y-48797680D01*
X145070689Y-48745001D01*
X144943281Y-48636799D01*
X144824978Y-48510231D01*
X144717972Y-48368426D01*
X144624452Y-48214511D01*
X144546610Y-48051613D01*
X144502756Y-47934316D01*
X144452508Y-47750688D01*
X144419009Y-47556141D01*
X144402249Y-47354885D01*
X144402216Y-47151128D01*
X144418901Y-46949081D01*
X144452293Y-46752952D01*
X144502380Y-46566951D01*
X144506197Y-46555363D01*
X144569081Y-46393310D01*
X144645828Y-46245392D01*
X144739042Y-46107425D01*
X144851327Y-45975221D01*
X144895192Y-45929959D01*
X145031334Y-45806017D01*
X145171291Y-45703475D01*
X145317211Y-45621216D01*
X145471242Y-45558124D01*
X145635532Y-45513083D01*
X145731089Y-45495593D01*
X145889823Y-45480026D01*
X146048229Y-45482631D01*
G37*
X146048229Y-45482631D02*
X146208370Y-45503805D01*
X146372310Y-45543945D01*
X146542113Y-45603449D01*
X146719843Y-45682714D01*
X146731110Y-45688259D01*
X146788805Y-45716285D01*
X146840352Y-45740362D01*
X146881991Y-45758809D01*
X146909962Y-45769946D01*
X146919533Y-45772493D01*
X146938750Y-45777501D01*
X146943361Y-45781707D01*
X146938258Y-45792140D01*
X146922218Y-45818428D01*
X146897088Y-45857817D01*
X146864714Y-45907551D01*
X146826943Y-45964875D01*
X146785622Y-46027036D01*
X146742598Y-46091278D01*
X146699717Y-46154845D01*
X146658826Y-46214985D01*
X146621771Y-46268940D01*
X146590400Y-46313957D01*
X146566559Y-46347281D01*
X146552094Y-46366157D01*
X146550109Y-46368347D01*
X146539991Y-46363698D01*
X146517650Y-46346522D01*
X146487080Y-46320000D01*
X146471336Y-46305524D01*
X146374847Y-46230242D01*
X146268136Y-46174801D01*
X146152632Y-46139701D01*
X146029762Y-46125440D01*
X145960361Y-46126611D01*
X145839223Y-46143772D01*
X145730005Y-46179654D01*
X145632382Y-46234519D01*
X145546028Y-46308630D01*
X145470615Y-46402248D01*
X145405818Y-46515636D01*
X145368401Y-46602227D01*
X145324548Y-46737926D01*
X145292228Y-46885410D01*
X145271357Y-47040874D01*
X145261851Y-47200516D01*
X145263627Y-47360533D01*
X145276603Y-47517121D01*
X145300694Y-47666478D01*
X145335818Y-47804800D01*
X145381892Y-47928284D01*
X145398173Y-47962538D01*
X145466420Y-48076624D01*
X145546879Y-48173117D01*
X145638370Y-48251230D01*
X145739711Y-48310177D01*
X145849720Y-48349172D01*
X145967215Y-48367428D01*
X146008683Y-48368771D01*
X146130241Y-48357850D01*
X146250678Y-48325034D01*
X146368466Y-48270999D01*
X146482077Y-48196425D01*
X146573485Y-48118099D01*
X146620015Y-48073568D01*
X146801283Y-48370831D01*
X146846380Y-48444993D01*
X146887619Y-48513206D01*
X146923535Y-48573019D01*
X146952666Y-48621980D01*
X146973550Y-48657639D01*
X146984724Y-48677544D01*
X146986175Y-48680639D01*
X146977946Y-48690278D01*
X146952367Y-48707559D01*
X146912673Y-48730843D01*
X146862097Y-48758494D01*
X146803874Y-48788875D01*
X146741237Y-48820350D01*
X146677421Y-48851282D01*
X146615660Y-48880033D01*
X146559188Y-48904968D01*
X146511238Y-48924449D01*
X146487786Y-48932878D01*
X146354021Y-48970693D01*
X146216127Y-48995696D01*
X146068422Y-49008700D01*
X145941633Y-49011028D01*
X145873678Y-49009933D01*
X145808077Y-49007835D01*
X145750647Y-49004994D01*
X145707203Y-49001666D01*
X145693098Y-48999982D01*
X145554084Y-48971147D01*
X145412557Y-48926028D01*
X145275075Y-48867310D01*
X145148194Y-48797680D01*
X145070689Y-48745001D01*
X144943281Y-48636799D01*
X144824978Y-48510231D01*
X144717972Y-48368426D01*
X144624452Y-48214511D01*
X144546610Y-48051613D01*
X144502756Y-47934316D01*
X144452508Y-47750688D01*
X144419009Y-47556141D01*
X144402249Y-47354885D01*
X144402216Y-47151128D01*
X144418901Y-46949081D01*
X144452293Y-46752952D01*
X144502380Y-46566951D01*
X144506197Y-46555363D01*
X144569081Y-46393310D01*
X144645828Y-46245392D01*
X144739042Y-46107425D01*
X144851327Y-45975221D01*
X144895192Y-45929959D01*
X145031334Y-45806017D01*
X145171291Y-45703475D01*
X145317211Y-45621216D01*
X145471242Y-45558124D01*
X145635532Y-45513083D01*
X145731089Y-45495593D01*
X145889823Y-45480026D01*
X146048229Y-45482631D01*
G36*
X148393374Y-46400112D02*
G01*
X148545292Y-46420127D01*
X148680556Y-46453762D01*
X148800039Y-46501285D01*
X148904615Y-46562965D01*
X148982224Y-46626525D01*
X149051065Y-46700659D01*
X149104806Y-46780431D01*
X149147710Y-46872651D01*
X149163184Y-46915721D01*
X149176044Y-46954702D01*
X149187246Y-46990849D01*
X149196920Y-47025994D01*
X149205196Y-47061970D01*
X149212203Y-47100610D01*
X149218072Y-47143745D01*
X149222931Y-47193209D01*
X149226910Y-47250833D01*
X149230140Y-47318451D01*
X149232749Y-47397894D01*
X149234867Y-47490996D01*
X149236624Y-47599587D01*
X149238149Y-47725502D01*
X149239572Y-47870572D01*
X149240825Y-48013338D01*
X149242151Y-48169528D01*
X149243356Y-48304799D01*
X149244566Y-48420806D01*
X149245906Y-48519205D01*
X149247500Y-48601653D01*
X149249475Y-48669806D01*
X149251956Y-48725320D01*
X149255069Y-48769852D01*
X149258938Y-48805058D01*
X149263689Y-48832594D01*
X149269448Y-48854116D01*
X149276339Y-48871282D01*
X149284489Y-48885746D01*
X149294023Y-48899166D01*
X149305066Y-48913198D01*
X149309366Y-48918631D01*
X149325186Y-48941470D01*
X149332222Y-48957023D01*
X149332244Y-48957482D01*
X149321367Y-48959681D01*
X149290382Y-48961707D01*
X149241757Y-48963502D01*
X149177963Y-48965011D01*
X149101469Y-48966176D01*
X149014744Y-48966940D01*
X148920257Y-48967246D01*
X148909350Y-48967249D01*
X148486457Y-48967249D01*
X148483195Y-48871182D01*
X148479933Y-48775116D01*
X148417844Y-48826103D01*
X148320514Y-48893617D01*
X148210613Y-48948309D01*
X148124149Y-48978538D01*
X148055078Y-48993226D01*
X147971725Y-49003219D01*
X147881959Y-49008206D01*
X147793645Y-49007873D01*
X147714651Y-49001911D01*
X147678422Y-48996198D01*
X147538403Y-48958336D01*
X147411978Y-48903492D01*
X147300060Y-48832484D01*
X147203562Y-48746128D01*
X147123400Y-48645239D01*
X147060487Y-48530636D01*
X147016112Y-48404544D01*
X147003778Y-48347961D01*
X146996168Y-48285762D01*
X146992539Y-48210923D01*
X146992045Y-48177027D01*
X146992110Y-48173842D01*
X147752048Y-48173842D01*
X147761341Y-48248893D01*
X147789528Y-48312720D01*
X147837997Y-48368358D01*
X147843054Y-48372771D01*
X147891348Y-48407597D01*
X147943057Y-48430180D01*
X148003789Y-48442100D01*
X148079152Y-48444943D01*
X148097259Y-48444538D01*
X148151078Y-48441885D01*
X148191108Y-48436469D01*
X148226124Y-48426305D01*
X148264903Y-48409410D01*
X148275545Y-48404232D01*
X148336196Y-48368404D01*
X148383015Y-48325772D01*
X148395752Y-48310533D01*
X148440422Y-48254022D01*
X148440422Y-48058146D01*
X148439886Y-47979499D01*
X148438196Y-47921548D01*
X148435228Y-47882435D01*
X148430857Y-47860301D01*
X148426772Y-47853834D01*
X148410847Y-47850671D01*
X148377064Y-47848048D01*
X148330140Y-47846215D01*
X148274793Y-47845417D01*
X148265906Y-47845402D01*
X148145130Y-47850656D01*
X148042460Y-47866823D01*
X147955906Y-47894521D01*
X147883481Y-47934368D01*
X147828551Y-47981318D01*
X147784004Y-48039205D01*
X147759280Y-48102253D01*
X147752048Y-48173842D01*
X146992110Y-48173842D01*
X146993978Y-48083272D01*
X147002322Y-48004372D01*
X147018568Y-47933150D01*
X147044205Y-47862424D01*
X147068201Y-47810053D01*
X147126820Y-47714756D01*
X147204917Y-47626730D01*
X147300115Y-47547577D01*
X147410038Y-47478900D01*
X147532310Y-47422301D01*
X147664555Y-47379381D01*
X147729222Y-47364442D01*
X147865404Y-47342337D01*
X148013849Y-47327754D01*
X148165305Y-47321373D01*
X148291864Y-47323005D01*
X148453750Y-47329784D01*
X148446330Y-47270805D01*
X148427038Y-47171652D01*
X148395904Y-47090932D01*
X148352069Y-47028026D01*
X148294671Y-46982316D01*
X148222848Y-46953182D01*
X148135741Y-46940007D01*
X148032486Y-46942171D01*
X147994511Y-46946172D01*
X147853320Y-46971340D01*
X147716507Y-47012374D01*
X147621978Y-47050375D01*
X147576818Y-47069750D01*
X147538385Y-47085320D01*
X147512034Y-47094965D01*
X147504346Y-47097012D01*
X147494602Y-47087934D01*
X147477883Y-47058965D01*
X147454032Y-47009777D01*
X147422893Y-46940044D01*
X147384307Y-46849439D01*
X147377710Y-46833649D01*
X147347653Y-46761332D01*
X147320674Y-46695985D01*
X147297936Y-46640466D01*
X147280606Y-46597632D01*
X147269848Y-46570341D01*
X147266741Y-46561502D01*
X147276740Y-46556747D01*
X147303017Y-46551470D01*
X147331289Y-46547791D01*
X147361446Y-46543034D01*
X147409233Y-46533588D01*
X147470412Y-46520380D01*
X147540746Y-46504336D01*
X147615994Y-46486380D01*
X147644555Y-46479357D01*
X147749616Y-46453769D01*
X147837280Y-46433707D01*
X147911868Y-46418529D01*
X147977703Y-46407595D01*
X148039107Y-46400264D01*
X148100402Y-46395895D01*
X148165910Y-46393847D01*
X148223928Y-46393449D01*
X148393374Y-46400112D01*
G37*
X148393374Y-46400112D02*
X148545292Y-46420127D01*
X148680556Y-46453762D01*
X148800039Y-46501285D01*
X148904615Y-46562965D01*
X148982224Y-46626525D01*
X149051065Y-46700659D01*
X149104806Y-46780431D01*
X149147710Y-46872651D01*
X149163184Y-46915721D01*
X149176044Y-46954702D01*
X149187246Y-46990849D01*
X149196920Y-47025994D01*
X149205196Y-47061970D01*
X149212203Y-47100610D01*
X149218072Y-47143745D01*
X149222931Y-47193209D01*
X149226910Y-47250833D01*
X149230140Y-47318451D01*
X149232749Y-47397894D01*
X149234867Y-47490996D01*
X149236624Y-47599587D01*
X149238149Y-47725502D01*
X149239572Y-47870572D01*
X149240825Y-48013338D01*
X149242151Y-48169528D01*
X149243356Y-48304799D01*
X149244566Y-48420806D01*
X149245906Y-48519205D01*
X149247500Y-48601653D01*
X149249475Y-48669806D01*
X149251956Y-48725320D01*
X149255069Y-48769852D01*
X149258938Y-48805058D01*
X149263689Y-48832594D01*
X149269448Y-48854116D01*
X149276339Y-48871282D01*
X149284489Y-48885746D01*
X149294023Y-48899166D01*
X149305066Y-48913198D01*
X149309366Y-48918631D01*
X149325186Y-48941470D01*
X149332222Y-48957023D01*
X149332244Y-48957482D01*
X149321367Y-48959681D01*
X149290382Y-48961707D01*
X149241757Y-48963502D01*
X149177963Y-48965011D01*
X149101469Y-48966176D01*
X149014744Y-48966940D01*
X148920257Y-48967246D01*
X148909350Y-48967249D01*
X148486457Y-48967249D01*
X148483195Y-48871182D01*
X148479933Y-48775116D01*
X148417844Y-48826103D01*
X148320514Y-48893617D01*
X148210613Y-48948309D01*
X148124149Y-48978538D01*
X148055078Y-48993226D01*
X147971725Y-49003219D01*
X147881959Y-49008206D01*
X147793645Y-49007873D01*
X147714651Y-49001911D01*
X147678422Y-48996198D01*
X147538403Y-48958336D01*
X147411978Y-48903492D01*
X147300060Y-48832484D01*
X147203562Y-48746128D01*
X147123400Y-48645239D01*
X147060487Y-48530636D01*
X147016112Y-48404544D01*
X147003778Y-48347961D01*
X146996168Y-48285762D01*
X146992539Y-48210923D01*
X146992045Y-48177027D01*
X146992110Y-48173842D01*
X147752048Y-48173842D01*
X147761341Y-48248893D01*
X147789528Y-48312720D01*
X147837997Y-48368358D01*
X147843054Y-48372771D01*
X147891348Y-48407597D01*
X147943057Y-48430180D01*
X148003789Y-48442100D01*
X148079152Y-48444943D01*
X148097259Y-48444538D01*
X148151078Y-48441885D01*
X148191108Y-48436469D01*
X148226124Y-48426305D01*
X148264903Y-48409410D01*
X148275545Y-48404232D01*
X148336196Y-48368404D01*
X148383015Y-48325772D01*
X148395752Y-48310533D01*
X148440422Y-48254022D01*
X148440422Y-48058146D01*
X148439886Y-47979499D01*
X148438196Y-47921548D01*
X148435228Y-47882435D01*
X148430857Y-47860301D01*
X148426772Y-47853834D01*
X148410847Y-47850671D01*
X148377064Y-47848048D01*
X148330140Y-47846215D01*
X148274793Y-47845417D01*
X148265906Y-47845402D01*
X148145130Y-47850656D01*
X148042460Y-47866823D01*
X147955906Y-47894521D01*
X147883481Y-47934368D01*
X147828551Y-47981318D01*
X147784004Y-48039205D01*
X147759280Y-48102253D01*
X147752048Y-48173842D01*
X146992110Y-48173842D01*
X146993978Y-48083272D01*
X147002322Y-48004372D01*
X147018568Y-47933150D01*
X147044205Y-47862424D01*
X147068201Y-47810053D01*
X147126820Y-47714756D01*
X147204917Y-47626730D01*
X147300115Y-47547577D01*
X147410038Y-47478900D01*
X147532310Y-47422301D01*
X147664555Y-47379381D01*
X147729222Y-47364442D01*
X147865404Y-47342337D01*
X148013849Y-47327754D01*
X148165305Y-47321373D01*
X148291864Y-47323005D01*
X148453750Y-47329784D01*
X148446330Y-47270805D01*
X148427038Y-47171652D01*
X148395904Y-47090932D01*
X148352069Y-47028026D01*
X148294671Y-46982316D01*
X148222848Y-46953182D01*
X148135741Y-46940007D01*
X148032486Y-46942171D01*
X147994511Y-46946172D01*
X147853320Y-46971340D01*
X147716507Y-47012374D01*
X147621978Y-47050375D01*
X147576818Y-47069750D01*
X147538385Y-47085320D01*
X147512034Y-47094965D01*
X147504346Y-47097012D01*
X147494602Y-47087934D01*
X147477883Y-47058965D01*
X147454032Y-47009777D01*
X147422893Y-46940044D01*
X147384307Y-46849439D01*
X147377710Y-46833649D01*
X147347653Y-46761332D01*
X147320674Y-46695985D01*
X147297936Y-46640466D01*
X147280606Y-46597632D01*
X147269848Y-46570341D01*
X147266741Y-46561502D01*
X147276740Y-46556747D01*
X147303017Y-46551470D01*
X147331289Y-46547791D01*
X147361446Y-46543034D01*
X147409233Y-46533588D01*
X147470412Y-46520380D01*
X147540746Y-46504336D01*
X147615994Y-46486380D01*
X147644555Y-46479357D01*
X147749616Y-46453769D01*
X147837280Y-46433707D01*
X147911868Y-46418529D01*
X147977703Y-46407595D01*
X148039107Y-46400264D01*
X148100402Y-46395895D01*
X148165910Y-46393847D01*
X148223928Y-46393449D01*
X148393374Y-46400112D01*
G36*
X151906307Y-47005805D02*
G01*
X151906326Y-47240222D01*
X151906352Y-47453163D01*
X151906425Y-47645728D01*
X151906582Y-47819019D01*
X151906864Y-47974136D01*
X151907309Y-48112180D01*
X151907956Y-48234252D01*
X151908845Y-48341454D01*
X151910013Y-48434886D01*
X151911501Y-48515650D01*
X151913346Y-48584846D01*
X151915589Y-48643575D01*
X151918269Y-48692939D01*
X151921423Y-48734038D01*
X151925092Y-48767973D01*
X151929313Y-48795846D01*
X151934127Y-48818758D01*
X151939573Y-48837809D01*
X151945688Y-48854100D01*
X151952512Y-48868733D01*
X151960085Y-48882809D01*
X151968445Y-48897428D01*
X151973639Y-48906534D01*
X152007904Y-48967249D01*
X151149755Y-48967249D01*
X151149755Y-48871293D01*
X151149024Y-48827930D01*
X151147072Y-48794765D01*
X151144263Y-48776984D01*
X151143021Y-48775338D01*
X151131599Y-48782222D01*
X151108884Y-48800065D01*
X151086185Y-48819439D01*
X151031600Y-48860174D01*
X150962121Y-48901177D01*
X150885070Y-48938683D01*
X150807765Y-48968924D01*
X150776913Y-48978572D01*
X150708416Y-48993138D01*
X150625564Y-49003099D01*
X150536171Y-49008143D01*
X150448048Y-49007956D01*
X150369007Y-49002226D01*
X150331311Y-48996418D01*
X150193214Y-48958357D01*
X150065913Y-48900633D01*
X149950092Y-48823771D01*
X149846437Y-48728299D01*
X149755633Y-48614739D01*
X149688831Y-48503941D01*
X149633964Y-48387185D01*
X149591963Y-48267836D01*
X149561967Y-48141843D01*
X149543111Y-48005154D01*
X149534532Y-47853718D01*
X149533806Y-47776271D01*
X149535900Y-47719494D01*
X150365017Y-47719494D01*
X150365224Y-47812562D01*
X150368137Y-47900252D01*
X150373800Y-47977332D01*
X150382255Y-48038569D01*
X150384838Y-48050910D01*
X150416640Y-48158193D01*
X150458298Y-48245218D01*
X150510163Y-48312202D01*
X150572581Y-48359365D01*
X150645900Y-48386925D01*
X150730469Y-48395101D01*
X150826635Y-48384111D01*
X150890111Y-48368389D01*
X150939254Y-48350199D01*
X150993383Y-48324351D01*
X151034044Y-48300649D01*
X151104600Y-48254281D01*
X151104600Y-47104090D01*
X151037192Y-47060522D01*
X150958667Y-47019600D01*
X150874481Y-46992949D01*
X150789357Y-46981025D01*
X150708016Y-46984282D01*
X150635180Y-47003175D01*
X150603226Y-47018744D01*
X150545301Y-47061741D01*
X150496344Y-47118513D01*
X150455190Y-47191135D01*
X150420674Y-47281681D01*
X150391633Y-47392226D01*
X150390352Y-47398093D01*
X150380181Y-47460348D01*
X150372539Y-47538154D01*
X150367470Y-47626280D01*
X150365017Y-47719494D01*
X149535900Y-47719494D01*
X149541657Y-47563455D01*
X149563602Y-47367619D01*
X149599586Y-47188892D01*
X149649559Y-47027405D01*
X149713468Y-46883286D01*
X149791262Y-46756666D01*
X149882889Y-46647675D01*
X149988297Y-46556443D01*
X150033462Y-46525492D01*
X150134411Y-46469345D01*
X150237701Y-46429734D01*
X150347789Y-46405574D01*
X150469130Y-46395779D01*
X150561636Y-46396825D01*
X150691290Y-46407791D01*
X150803884Y-46429606D01*
X150902675Y-46463274D01*
X150990921Y-46509796D01*
X151039786Y-46544008D01*
X151069153Y-46565922D01*
X151090843Y-46580893D01*
X151099053Y-46585293D01*
X151100668Y-46574464D01*
X151101959Y-46543811D01*
X151102938Y-46496086D01*
X151103617Y-46434039D01*
X151104010Y-46360422D01*
X151104130Y-46277987D01*
X151103988Y-46189485D01*
X151103597Y-46097667D01*
X151102971Y-46005284D01*
X151102120Y-45915088D01*
X151101060Y-45829831D01*
X151099801Y-45752263D01*
X151098356Y-45685136D01*
X151096738Y-45631201D01*
X151094961Y-45593210D01*
X151094469Y-45586227D01*
X151086892Y-45515811D01*
X151075331Y-45460662D01*
X151057592Y-45413541D01*
X151031482Y-45367207D01*
X151025215Y-45357627D01*
X151000783Y-45320938D01*
X151906111Y-45320938D01*
X151906307Y-47005805D01*
G37*
X151906307Y-47005805D02*
X151906326Y-47240222D01*
X151906352Y-47453163D01*
X151906425Y-47645728D01*
X151906582Y-47819019D01*
X151906864Y-47974136D01*
X151907309Y-48112180D01*
X151907956Y-48234252D01*
X151908845Y-48341454D01*
X151910013Y-48434886D01*
X151911501Y-48515650D01*
X151913346Y-48584846D01*
X151915589Y-48643575D01*
X151918269Y-48692939D01*
X151921423Y-48734038D01*
X151925092Y-48767973D01*
X151929313Y-48795846D01*
X151934127Y-48818758D01*
X151939573Y-48837809D01*
X151945688Y-48854100D01*
X151952512Y-48868733D01*
X151960085Y-48882809D01*
X151968445Y-48897428D01*
X151973639Y-48906534D01*
X152007904Y-48967249D01*
X151149755Y-48967249D01*
X151149755Y-48871293D01*
X151149024Y-48827930D01*
X151147072Y-48794765D01*
X151144263Y-48776984D01*
X151143021Y-48775338D01*
X151131599Y-48782222D01*
X151108884Y-48800065D01*
X151086185Y-48819439D01*
X151031600Y-48860174D01*
X150962121Y-48901177D01*
X150885070Y-48938683D01*
X150807765Y-48968924D01*
X150776913Y-48978572D01*
X150708416Y-48993138D01*
X150625564Y-49003099D01*
X150536171Y-49008143D01*
X150448048Y-49007956D01*
X150369007Y-49002226D01*
X150331311Y-48996418D01*
X150193214Y-48958357D01*
X150065913Y-48900633D01*
X149950092Y-48823771D01*
X149846437Y-48728299D01*
X149755633Y-48614739D01*
X149688831Y-48503941D01*
X149633964Y-48387185D01*
X149591963Y-48267836D01*
X149561967Y-48141843D01*
X149543111Y-48005154D01*
X149534532Y-47853718D01*
X149533806Y-47776271D01*
X149535900Y-47719494D01*
X150365017Y-47719494D01*
X150365224Y-47812562D01*
X150368137Y-47900252D01*
X150373800Y-47977332D01*
X150382255Y-48038569D01*
X150384838Y-48050910D01*
X150416640Y-48158193D01*
X150458298Y-48245218D01*
X150510163Y-48312202D01*
X150572581Y-48359365D01*
X150645900Y-48386925D01*
X150730469Y-48395101D01*
X150826635Y-48384111D01*
X150890111Y-48368389D01*
X150939254Y-48350199D01*
X150993383Y-48324351D01*
X151034044Y-48300649D01*
X151104600Y-48254281D01*
X151104600Y-47104090D01*
X151037192Y-47060522D01*
X150958667Y-47019600D01*
X150874481Y-46992949D01*
X150789357Y-46981025D01*
X150708016Y-46984282D01*
X150635180Y-47003175D01*
X150603226Y-47018744D01*
X150545301Y-47061741D01*
X150496344Y-47118513D01*
X150455190Y-47191135D01*
X150420674Y-47281681D01*
X150391633Y-47392226D01*
X150390352Y-47398093D01*
X150380181Y-47460348D01*
X150372539Y-47538154D01*
X150367470Y-47626280D01*
X150365017Y-47719494D01*
X149535900Y-47719494D01*
X149541657Y-47563455D01*
X149563602Y-47367619D01*
X149599586Y-47188892D01*
X149649559Y-47027405D01*
X149713468Y-46883286D01*
X149791262Y-46756666D01*
X149882889Y-46647675D01*
X149988297Y-46556443D01*
X150033462Y-46525492D01*
X150134411Y-46469345D01*
X150237701Y-46429734D01*
X150347789Y-46405574D01*
X150469130Y-46395779D01*
X150561636Y-46396825D01*
X150691290Y-46407791D01*
X150803884Y-46429606D01*
X150902675Y-46463274D01*
X150990921Y-46509796D01*
X151039786Y-46544008D01*
X151069153Y-46565922D01*
X151090843Y-46580893D01*
X151099053Y-46585293D01*
X151100668Y-46574464D01*
X151101959Y-46543811D01*
X151102938Y-46496086D01*
X151103617Y-46434039D01*
X151104010Y-46360422D01*
X151104130Y-46277987D01*
X151103988Y-46189485D01*
X151103597Y-46097667D01*
X151102971Y-46005284D01*
X151102120Y-45915088D01*
X151101060Y-45829831D01*
X151099801Y-45752263D01*
X151098356Y-45685136D01*
X151096738Y-45631201D01*
X151094961Y-45593210D01*
X151094469Y-45586227D01*
X151086892Y-45515811D01*
X151075331Y-45460662D01*
X151057592Y-45413541D01*
X151031482Y-45367207D01*
X151025215Y-45357627D01*
X151000783Y-45320938D01*
X151906111Y-45320938D01*
X151906307Y-47005805D01*
G36*
X143446757Y-44560131D02*
G01*
X143543032Y-44584369D01*
X143629616Y-44627201D01*
X143704427Y-44686979D01*
X143765382Y-44762054D01*
X143810401Y-44850780D01*
X143836664Y-44947090D01*
X143842514Y-45044355D01*
X143827660Y-45138214D01*
X143793960Y-45226071D01*
X143743272Y-45305330D01*
X143677455Y-45373396D01*
X143598366Y-45427672D01*
X143507866Y-45465562D01*
X143456600Y-45477986D01*
X143412102Y-45485507D01*
X143377801Y-45488479D01*
X143344840Y-45486654D01*
X143304366Y-45479785D01*
X143271269Y-45472810D01*
X143177853Y-45441301D01*
X143094181Y-45390177D01*
X143022135Y-45320989D01*
X142963600Y-45235288D01*
X142949652Y-45208049D01*
X142933214Y-45171682D01*
X142922906Y-45141142D01*
X142917340Y-45109010D01*
X142915131Y-45067867D01*
X142914852Y-45021782D01*
X142918939Y-44937425D01*
X142932354Y-44868146D01*
X142957544Y-44807521D01*
X142996954Y-44749127D01*
X143035502Y-44704862D01*
X143107394Y-44639044D01*
X143182487Y-44593613D01*
X143265238Y-44566410D01*
X143342872Y-44556136D01*
X143446757Y-44560131D01*
G37*
X143446757Y-44560131D02*
X143543032Y-44584369D01*
X143629616Y-44627201D01*
X143704427Y-44686979D01*
X143765382Y-44762054D01*
X143810401Y-44850780D01*
X143836664Y-44947090D01*
X143842514Y-45044355D01*
X143827660Y-45138214D01*
X143793960Y-45226071D01*
X143743272Y-45305330D01*
X143677455Y-45373396D01*
X143598366Y-45427672D01*
X143507866Y-45465562D01*
X143456600Y-45477986D01*
X143412102Y-45485507D01*
X143377801Y-45488479D01*
X143344840Y-45486654D01*
X143304366Y-45479785D01*
X143271269Y-45472810D01*
X143177853Y-45441301D01*
X143094181Y-45390177D01*
X143022135Y-45320989D01*
X142963600Y-45235288D01*
X142949652Y-45208049D01*
X142933214Y-45171682D01*
X142922906Y-45141142D01*
X142917340Y-45109010D01*
X142915131Y-45067867D01*
X142914852Y-45021782D01*
X142918939Y-44937425D01*
X142932354Y-44868146D01*
X142957544Y-44807521D01*
X142996954Y-44749127D01*
X143035502Y-44704862D01*
X143107394Y-44639044D01*
X143182487Y-44593613D01*
X143265238Y-44566410D01*
X143342872Y-44556136D01*
X143446757Y-44560131D01*
G36*
X139598429Y-49802626D02*
G01*
X139637911Y-49803027D01*
X139753600Y-49805819D01*
X139850489Y-49814110D01*
X139931881Y-49828792D01*
X140001077Y-49850753D01*
X140061380Y-49880882D01*
X140116092Y-49920070D01*
X140135633Y-49937092D01*
X140168050Y-49976923D01*
X140197280Y-50030973D01*
X140219809Y-50090883D01*
X140232121Y-50148299D01*
X140233400Y-50169516D01*
X140225383Y-50228329D01*
X140203901Y-50292573D01*
X140172801Y-50353381D01*
X140135934Y-50401890D01*
X140129946Y-50407742D01*
X140079221Y-50448881D01*
X140023675Y-50480995D01*
X139960104Y-50504925D01*
X139885306Y-50521513D01*
X139796078Y-50531601D01*
X139689218Y-50536029D01*
X139640272Y-50536405D01*
X139578038Y-50536105D01*
X139534272Y-50534852D01*
X139504869Y-50532114D01*
X139485721Y-50527361D01*
X139472723Y-50520061D01*
X139465755Y-50513827D01*
X139459174Y-50506254D01*
X139454012Y-50496484D01*
X139450097Y-50481900D01*
X139447257Y-50459886D01*
X139445320Y-50427824D01*
X139444116Y-50383096D01*
X139443472Y-50323086D01*
X139443217Y-50245177D01*
X139443178Y-50169516D01*
X139442930Y-50068601D01*
X139442983Y-49987987D01*
X139443943Y-49949382D01*
X139589933Y-49949382D01*
X139589933Y-50389649D01*
X139683066Y-50389564D01*
X139739107Y-50387956D01*
X139797801Y-50383816D01*
X139846772Y-50378024D01*
X139848262Y-50377786D01*
X139927408Y-50358650D01*
X139988798Y-50328847D01*
X140035495Y-50286438D01*
X140065165Y-50240521D01*
X140083447Y-50189586D01*
X140082029Y-50141760D01*
X140060812Y-50090493D01*
X140019311Y-50037459D01*
X139961802Y-49998160D01*
X139887050Y-49971891D01*
X139837092Y-49962595D01*
X139780384Y-49956067D01*
X139720281Y-49951342D01*
X139669161Y-49949377D01*
X139666133Y-49949368D01*
X139589933Y-49949382D01*
X139443943Y-49949382D01*
X139444540Y-49925411D01*
X139448802Y-49878615D01*
X139456970Y-49845338D01*
X139470244Y-49823319D01*
X139489826Y-49810299D01*
X139516917Y-49804017D01*
X139552718Y-49802213D01*
X139598429Y-49802626D01*
G37*
X139598429Y-49802626D02*
X139637911Y-49803027D01*
X139753600Y-49805819D01*
X139850489Y-49814110D01*
X139931881Y-49828792D01*
X140001077Y-49850753D01*
X140061380Y-49880882D01*
X140116092Y-49920070D01*
X140135633Y-49937092D01*
X140168050Y-49976923D01*
X140197280Y-50030973D01*
X140219809Y-50090883D01*
X140232121Y-50148299D01*
X140233400Y-50169516D01*
X140225383Y-50228329D01*
X140203901Y-50292573D01*
X140172801Y-50353381D01*
X140135934Y-50401890D01*
X140129946Y-50407742D01*
X140079221Y-50448881D01*
X140023675Y-50480995D01*
X139960104Y-50504925D01*
X139885306Y-50521513D01*
X139796078Y-50531601D01*
X139689218Y-50536029D01*
X139640272Y-50536405D01*
X139578038Y-50536105D01*
X139534272Y-50534852D01*
X139504869Y-50532114D01*
X139485721Y-50527361D01*
X139472723Y-50520061D01*
X139465755Y-50513827D01*
X139459174Y-50506254D01*
X139454012Y-50496484D01*
X139450097Y-50481900D01*
X139447257Y-50459886D01*
X139445320Y-50427824D01*
X139444116Y-50383096D01*
X139443472Y-50323086D01*
X139443217Y-50245177D01*
X139443178Y-50169516D01*
X139442930Y-50068601D01*
X139442983Y-49987987D01*
X139443943Y-49949382D01*
X139589933Y-49949382D01*
X139589933Y-50389649D01*
X139683066Y-50389564D01*
X139739107Y-50387956D01*
X139797801Y-50383816D01*
X139846772Y-50378024D01*
X139848262Y-50377786D01*
X139927408Y-50358650D01*
X139988798Y-50328847D01*
X140035495Y-50286438D01*
X140065165Y-50240521D01*
X140083447Y-50189586D01*
X140082029Y-50141760D01*
X140060812Y-50090493D01*
X140019311Y-50037459D01*
X139961802Y-49998160D01*
X139887050Y-49971891D01*
X139837092Y-49962595D01*
X139780384Y-49956067D01*
X139720281Y-49951342D01*
X139669161Y-49949377D01*
X139666133Y-49949368D01*
X139589933Y-49949382D01*
X139443943Y-49949382D01*
X139444540Y-49925411D01*
X139448802Y-49878615D01*
X139456970Y-49845338D01*
X139470244Y-49823319D01*
X139489826Y-49810299D01*
X139516917Y-49804017D01*
X139552718Y-49802213D01*
X139598429Y-49802626D01*
G36*
X141007006Y-49802706D02*
G01*
X141076414Y-49803078D01*
X141128803Y-49803945D01*
X141166953Y-49805506D01*
X141193641Y-49807963D01*
X141211647Y-49811517D01*
X141223751Y-49816370D01*
X141232731Y-49822721D01*
X141235982Y-49825644D01*
X141255757Y-49856702D01*
X141259318Y-49892388D01*
X141246309Y-49924070D01*
X141240294Y-49930473D01*
X141230565Y-49936681D01*
X141214899Y-49941470D01*
X141190392Y-49945074D01*
X141154139Y-49947724D01*
X141103235Y-49949655D01*
X141034774Y-49951099D01*
X140972183Y-49951978D01*
X140724466Y-49955027D01*
X140721081Y-50019938D01*
X140717695Y-50084849D01*
X140885842Y-50084849D01*
X140958841Y-50085479D01*
X141012283Y-50088113D01*
X141049172Y-50093869D01*
X141072512Y-50103864D01*
X141085306Y-50119216D01*
X141090558Y-50141042D01*
X141091355Y-50161298D01*
X141088877Y-50186152D01*
X141079523Y-50204466D01*
X141060417Y-50217197D01*
X141028682Y-50225301D01*
X140981441Y-50229736D01*
X140915817Y-50231459D01*
X140879999Y-50231605D01*
X140718822Y-50231605D01*
X140718822Y-50389649D01*
X140967178Y-50389649D01*
X141048587Y-50389762D01*
X141110458Y-50390272D01*
X141155832Y-50391430D01*
X141187746Y-50393490D01*
X141209241Y-50396706D01*
X141223357Y-50401332D01*
X141233132Y-50407619D01*
X141238111Y-50412227D01*
X141255190Y-50439120D01*
X141260689Y-50463027D01*
X141252837Y-50492227D01*
X141238111Y-50513827D01*
X141230254Y-50520626D01*
X141220112Y-50525906D01*
X141204956Y-50529858D01*
X141182059Y-50532673D01*
X141148691Y-50534542D01*
X141102125Y-50535658D01*
X141039633Y-50536211D01*
X140958486Y-50536393D01*
X140916378Y-50536405D01*
X140826202Y-50536325D01*
X140755876Y-50535958D01*
X140702671Y-50535112D01*
X140663860Y-50533596D01*
X140636713Y-50531219D01*
X140618502Y-50527789D01*
X140606500Y-50523114D01*
X140597978Y-50517004D01*
X140594644Y-50513827D01*
X140588045Y-50506230D01*
X140582873Y-50496430D01*
X140578954Y-50481799D01*
X140576116Y-50459712D01*
X140574185Y-50427542D01*
X140572988Y-50382663D01*
X140572352Y-50322449D01*
X140572103Y-50244273D01*
X140572066Y-50171483D01*
X140572100Y-50078267D01*
X140572335Y-50004991D01*
X140572970Y-49949018D01*
X140574206Y-49907711D01*
X140576244Y-49878432D01*
X140579283Y-49858544D01*
X140583523Y-49845410D01*
X140589165Y-49836392D01*
X140596409Y-49828853D01*
X140598194Y-49827172D01*
X140606855Y-49819732D01*
X140616918Y-49813969D01*
X140631175Y-49809672D01*
X140652417Y-49806624D01*
X140683436Y-49804611D01*
X140727023Y-49803420D01*
X140785969Y-49802835D01*
X140863066Y-49802643D01*
X140917799Y-49802627D01*
X141007006Y-49802706D01*
G37*
X141007006Y-49802706D02*
X141076414Y-49803078D01*
X141128803Y-49803945D01*
X141166953Y-49805506D01*
X141193641Y-49807963D01*
X141211647Y-49811517D01*
X141223751Y-49816370D01*
X141232731Y-49822721D01*
X141235982Y-49825644D01*
X141255757Y-49856702D01*
X141259318Y-49892388D01*
X141246309Y-49924070D01*
X141240294Y-49930473D01*
X141230565Y-49936681D01*
X141214899Y-49941470D01*
X141190392Y-49945074D01*
X141154139Y-49947724D01*
X141103235Y-49949655D01*
X141034774Y-49951099D01*
X140972183Y-49951978D01*
X140724466Y-49955027D01*
X140721081Y-50019938D01*
X140717695Y-50084849D01*
X140885842Y-50084849D01*
X140958841Y-50085479D01*
X141012283Y-50088113D01*
X141049172Y-50093869D01*
X141072512Y-50103864D01*
X141085306Y-50119216D01*
X141090558Y-50141042D01*
X141091355Y-50161298D01*
X141088877Y-50186152D01*
X141079523Y-50204466D01*
X141060417Y-50217197D01*
X141028682Y-50225301D01*
X140981441Y-50229736D01*
X140915817Y-50231459D01*
X140879999Y-50231605D01*
X140718822Y-50231605D01*
X140718822Y-50389649D01*
X140967178Y-50389649D01*
X141048587Y-50389762D01*
X141110458Y-50390272D01*
X141155832Y-50391430D01*
X141187746Y-50393490D01*
X141209241Y-50396706D01*
X141223357Y-50401332D01*
X141233132Y-50407619D01*
X141238111Y-50412227D01*
X141255190Y-50439120D01*
X141260689Y-50463027D01*
X141252837Y-50492227D01*
X141238111Y-50513827D01*
X141230254Y-50520626D01*
X141220112Y-50525906D01*
X141204956Y-50529858D01*
X141182059Y-50532673D01*
X141148691Y-50534542D01*
X141102125Y-50535658D01*
X141039633Y-50536211D01*
X140958486Y-50536393D01*
X140916378Y-50536405D01*
X140826202Y-50536325D01*
X140755876Y-50535958D01*
X140702671Y-50535112D01*
X140663860Y-50533596D01*
X140636713Y-50531219D01*
X140618502Y-50527789D01*
X140606500Y-50523114D01*
X140597978Y-50517004D01*
X140594644Y-50513827D01*
X140588045Y-50506230D01*
X140582873Y-50496430D01*
X140578954Y-50481799D01*
X140576116Y-50459712D01*
X140574185Y-50427542D01*
X140572988Y-50382663D01*
X140572352Y-50322449D01*
X140572103Y-50244273D01*
X140572066Y-50171483D01*
X140572100Y-50078267D01*
X140572335Y-50004991D01*
X140572970Y-49949018D01*
X140574206Y-49907711D01*
X140576244Y-49878432D01*
X140579283Y-49858544D01*
X140583523Y-49845410D01*
X140589165Y-49836392D01*
X140596409Y-49828853D01*
X140598194Y-49827172D01*
X140606855Y-49819732D01*
X140616918Y-49813969D01*
X140631175Y-49809672D01*
X140652417Y-49806624D01*
X140683436Y-49804611D01*
X140727023Y-49803420D01*
X140785969Y-49802835D01*
X140863066Y-49802643D01*
X140917799Y-49802627D01*
X141007006Y-49802706D01*
G36*
X142028097Y-49803911D02*
G01*
X142102912Y-49809141D01*
X142172494Y-49817310D01*
X142232798Y-49828110D01*
X142279780Y-49841233D01*
X142309394Y-49856373D01*
X142313940Y-49860829D01*
X142329746Y-49895410D01*
X142324953Y-49930911D01*
X142300436Y-49961285D01*
X142299266Y-49962156D01*
X142284846Y-49971514D01*
X142269792Y-49976436D01*
X142248795Y-49977033D01*
X142216543Y-49973421D01*
X142167727Y-49965714D01*
X142163800Y-49965065D01*
X142091061Y-49956129D01*
X142012583Y-49951721D01*
X141933873Y-49951679D01*
X141860439Y-49955839D01*
X141797789Y-49964039D01*
X141751430Y-49976117D01*
X141748384Y-49977331D01*
X141714752Y-49996175D01*
X141702936Y-50015245D01*
X141712186Y-50033999D01*
X141741753Y-50051897D01*
X141790889Y-50068397D01*
X141858843Y-50082956D01*
X141904155Y-50089966D01*
X141998344Y-50103449D01*
X142073256Y-50115774D01*
X142132083Y-50128009D01*
X142178015Y-50141221D01*
X142214245Y-50156477D01*
X142243962Y-50174845D01*
X142270358Y-50197391D01*
X142291570Y-50219531D01*
X142316735Y-50250379D01*
X142329119Y-50276905D01*
X142332992Y-50309586D01*
X142333133Y-50321555D01*
X142330224Y-50361272D01*
X142318598Y-50390819D01*
X142298477Y-50417046D01*
X142257584Y-50457136D01*
X142211983Y-50487709D01*
X142158287Y-50509763D01*
X142093108Y-50524295D01*
X142013056Y-50532301D01*
X141914743Y-50534778D01*
X141898511Y-50534737D01*
X141832951Y-50533378D01*
X141767934Y-50530290D01*
X141710548Y-50525916D01*
X141667878Y-50520700D01*
X141664428Y-50520101D01*
X141622004Y-50510051D01*
X141586020Y-50497356D01*
X141565650Y-50485750D01*
X141546693Y-50455132D01*
X141545373Y-50419478D01*
X141561715Y-50387704D01*
X141565371Y-50384111D01*
X141580485Y-50373436D01*
X141599385Y-50368836D01*
X141628638Y-50369619D01*
X141664149Y-50373687D01*
X141703830Y-50377322D01*
X141759455Y-50380388D01*
X141824394Y-50382613D01*
X141892015Y-50383724D01*
X141909800Y-50383797D01*
X141977672Y-50383524D01*
X142027346Y-50382206D01*
X142063190Y-50379387D01*
X142089576Y-50374610D01*
X142110874Y-50367417D01*
X142123674Y-50361427D01*
X142151800Y-50344793D01*
X142169732Y-50329728D01*
X142172353Y-50325457D01*
X142166824Y-50307823D01*
X142140540Y-50290752D01*
X142095322Y-50275018D01*
X142032992Y-50261398D01*
X142014629Y-50258364D01*
X141918710Y-50243298D01*
X141842159Y-50230706D01*
X141782020Y-50219671D01*
X141735340Y-50209280D01*
X141699163Y-50198616D01*
X141670535Y-50186765D01*
X141646502Y-50172811D01*
X141624108Y-50155841D01*
X141600398Y-50134938D01*
X141592420Y-50127609D01*
X141564447Y-50100259D01*
X141549640Y-50078589D01*
X141543848Y-50053792D01*
X141542911Y-50022543D01*
X141553225Y-49961265D01*
X141584048Y-49909200D01*
X141635205Y-49866518D01*
X141706517Y-49833385D01*
X141757400Y-49818524D01*
X141812700Y-49808926D01*
X141878947Y-49803496D01*
X141952094Y-49801927D01*
X142028097Y-49803911D01*
G37*
X142028097Y-49803911D02*
X142102912Y-49809141D01*
X142172494Y-49817310D01*
X142232798Y-49828110D01*
X142279780Y-49841233D01*
X142309394Y-49856373D01*
X142313940Y-49860829D01*
X142329746Y-49895410D01*
X142324953Y-49930911D01*
X142300436Y-49961285D01*
X142299266Y-49962156D01*
X142284846Y-49971514D01*
X142269792Y-49976436D01*
X142248795Y-49977033D01*
X142216543Y-49973421D01*
X142167727Y-49965714D01*
X142163800Y-49965065D01*
X142091061Y-49956129D01*
X142012583Y-49951721D01*
X141933873Y-49951679D01*
X141860439Y-49955839D01*
X141797789Y-49964039D01*
X141751430Y-49976117D01*
X141748384Y-49977331D01*
X141714752Y-49996175D01*
X141702936Y-50015245D01*
X141712186Y-50033999D01*
X141741753Y-50051897D01*
X141790889Y-50068397D01*
X141858843Y-50082956D01*
X141904155Y-50089966D01*
X141998344Y-50103449D01*
X142073256Y-50115774D01*
X142132083Y-50128009D01*
X142178015Y-50141221D01*
X142214245Y-50156477D01*
X142243962Y-50174845D01*
X142270358Y-50197391D01*
X142291570Y-50219531D01*
X142316735Y-50250379D01*
X142329119Y-50276905D01*
X142332992Y-50309586D01*
X142333133Y-50321555D01*
X142330224Y-50361272D01*
X142318598Y-50390819D01*
X142298477Y-50417046D01*
X142257584Y-50457136D01*
X142211983Y-50487709D01*
X142158287Y-50509763D01*
X142093108Y-50524295D01*
X142013056Y-50532301D01*
X141914743Y-50534778D01*
X141898511Y-50534737D01*
X141832951Y-50533378D01*
X141767934Y-50530290D01*
X141710548Y-50525916D01*
X141667878Y-50520700D01*
X141664428Y-50520101D01*
X141622004Y-50510051D01*
X141586020Y-50497356D01*
X141565650Y-50485750D01*
X141546693Y-50455132D01*
X141545373Y-50419478D01*
X141561715Y-50387704D01*
X141565371Y-50384111D01*
X141580485Y-50373436D01*
X141599385Y-50368836D01*
X141628638Y-50369619D01*
X141664149Y-50373687D01*
X141703830Y-50377322D01*
X141759455Y-50380388D01*
X141824394Y-50382613D01*
X141892015Y-50383724D01*
X141909800Y-50383797D01*
X141977672Y-50383524D01*
X142027346Y-50382206D01*
X142063190Y-50379387D01*
X142089576Y-50374610D01*
X142110874Y-50367417D01*
X142123674Y-50361427D01*
X142151800Y-50344793D01*
X142169732Y-50329728D01*
X142172353Y-50325457D01*
X142166824Y-50307823D01*
X142140540Y-50290752D01*
X142095322Y-50275018D01*
X142032992Y-50261398D01*
X142014629Y-50258364D01*
X141918710Y-50243298D01*
X141842159Y-50230706D01*
X141782020Y-50219671D01*
X141735340Y-50209280D01*
X141699163Y-50198616D01*
X141670535Y-50186765D01*
X141646502Y-50172811D01*
X141624108Y-50155841D01*
X141600398Y-50134938D01*
X141592420Y-50127609D01*
X141564447Y-50100259D01*
X141549640Y-50078589D01*
X141543848Y-50053792D01*
X141542911Y-50022543D01*
X141553225Y-49961265D01*
X141584048Y-49909200D01*
X141635205Y-49866518D01*
X141706517Y-49833385D01*
X141757400Y-49818524D01*
X141812700Y-49808926D01*
X141878947Y-49803496D01*
X141952094Y-49801927D01*
X142028097Y-49803911D01*
G36*
X142795978Y-49825205D02*
G01*
X142802558Y-49832778D01*
X142807721Y-49842547D01*
X142811636Y-49857131D01*
X142814476Y-49879145D01*
X142816413Y-49911208D01*
X142817617Y-49955935D01*
X142818261Y-50015945D01*
X142818516Y-50093854D01*
X142818555Y-50169516D01*
X142818486Y-50263362D01*
X142818162Y-50337249D01*
X142817414Y-50393792D01*
X142816068Y-50435609D01*
X142813954Y-50465317D01*
X142810900Y-50485533D01*
X142806734Y-50498874D01*
X142801284Y-50507958D01*
X142795978Y-50513827D01*
X142762974Y-50533507D01*
X142727809Y-50531741D01*
X142696345Y-50510277D01*
X142689116Y-50501897D01*
X142683466Y-50492174D01*
X142679201Y-50478421D01*
X142676127Y-50457949D01*
X142674048Y-50428072D01*
X142672770Y-50386101D01*
X142672099Y-50329349D01*
X142671841Y-50255127D01*
X142671800Y-50171097D01*
X142671800Y-49858045D01*
X142699509Y-49830336D01*
X142733663Y-49807023D01*
X142766794Y-49806183D01*
X142795978Y-49825205D01*
G37*
X142795978Y-49825205D02*
X142802558Y-49832778D01*
X142807721Y-49842547D01*
X142811636Y-49857131D01*
X142814476Y-49879145D01*
X142816413Y-49911208D01*
X142817617Y-49955935D01*
X142818261Y-50015945D01*
X142818516Y-50093854D01*
X142818555Y-50169516D01*
X142818486Y-50263362D01*
X142818162Y-50337249D01*
X142817414Y-50393792D01*
X142816068Y-50435609D01*
X142813954Y-50465317D01*
X142810900Y-50485533D01*
X142806734Y-50498874D01*
X142801284Y-50507958D01*
X142795978Y-50513827D01*
X142762974Y-50533507D01*
X142727809Y-50531741D01*
X142696345Y-50510277D01*
X142689116Y-50501897D01*
X142683466Y-50492174D01*
X142679201Y-50478421D01*
X142676127Y-50457949D01*
X142674048Y-50428072D01*
X142672770Y-50386101D01*
X142672099Y-50329349D01*
X142671841Y-50255127D01*
X142671800Y-50171097D01*
X142671800Y-49858045D01*
X142699509Y-49830336D01*
X142733663Y-49807023D01*
X142766794Y-49806183D01*
X142795978Y-49825205D01*
G36*
X143769719Y-49808159D02*
G01*
X143838235Y-49819655D01*
X143890857Y-49837527D01*
X143925092Y-49861059D01*
X143934421Y-49874484D01*
X143943907Y-49905708D01*
X143937523Y-49933955D01*
X143917370Y-49960742D01*
X143886055Y-49973273D01*
X143840617Y-49972256D01*
X143805474Y-49965466D01*
X143727381Y-49952531D01*
X143647574Y-49951302D01*
X143558245Y-49961801D01*
X143533571Y-49966250D01*
X143450509Y-49989668D01*
X143385527Y-50024505D01*
X143339339Y-50070164D01*
X143312655Y-50126054D01*
X143307137Y-50154948D01*
X143310749Y-50213572D01*
X143334071Y-50265439D01*
X143374976Y-50309538D01*
X143431341Y-50344859D01*
X143501040Y-50370389D01*
X143581948Y-50385119D01*
X143671940Y-50388038D01*
X143768890Y-50378135D01*
X143774364Y-50377201D01*
X143812925Y-50370019D01*
X143834306Y-50363081D01*
X143843573Y-50352787D01*
X143845794Y-50335536D01*
X143845844Y-50326401D01*
X143845844Y-50288049D01*
X143777369Y-50288049D01*
X143716900Y-50283907D01*
X143675635Y-50270707D01*
X143651625Y-50247290D01*
X143642923Y-50212496D01*
X143642817Y-50207954D01*
X143647908Y-50178214D01*
X143665367Y-50156979D01*
X143697861Y-50142926D01*
X143748057Y-50134733D01*
X143796677Y-50131721D01*
X143867344Y-50129993D01*
X143918602Y-50132630D01*
X143953561Y-50142360D01*
X143975330Y-50161913D01*
X143987020Y-50194016D01*
X143991740Y-50241398D01*
X143992600Y-50303631D01*
X143991191Y-50373095D01*
X143986952Y-50420346D01*
X143979864Y-50445572D01*
X143978489Y-50447548D01*
X143939572Y-50479068D01*
X143882514Y-50504030D01*
X143810931Y-50521900D01*
X143728442Y-50532146D01*
X143638661Y-50534233D01*
X143545208Y-50527628D01*
X143490244Y-50519516D01*
X143404034Y-50495114D01*
X143323908Y-50455222D01*
X143256823Y-50403447D01*
X143246627Y-50393099D01*
X143213498Y-50349595D01*
X143183606Y-50295678D01*
X143160443Y-50239152D01*
X143147502Y-50187819D01*
X143145942Y-50168104D01*
X143152582Y-50126979D01*
X143170232Y-50075812D01*
X143195503Y-50021954D01*
X143225011Y-49972755D01*
X143251081Y-49939894D01*
X143312035Y-49891012D01*
X143390831Y-49852105D01*
X143484643Y-49824054D01*
X143590650Y-49807739D01*
X143687800Y-49803752D01*
X143769719Y-49808159D01*
G37*
X143769719Y-49808159D02*
X143838235Y-49819655D01*
X143890857Y-49837527D01*
X143925092Y-49861059D01*
X143934421Y-49874484D01*
X143943907Y-49905708D01*
X143937523Y-49933955D01*
X143917370Y-49960742D01*
X143886055Y-49973273D01*
X143840617Y-49972256D01*
X143805474Y-49965466D01*
X143727381Y-49952531D01*
X143647574Y-49951302D01*
X143558245Y-49961801D01*
X143533571Y-49966250D01*
X143450509Y-49989668D01*
X143385527Y-50024505D01*
X143339339Y-50070164D01*
X143312655Y-50126054D01*
X143307137Y-50154948D01*
X143310749Y-50213572D01*
X143334071Y-50265439D01*
X143374976Y-50309538D01*
X143431341Y-50344859D01*
X143501040Y-50370389D01*
X143581948Y-50385119D01*
X143671940Y-50388038D01*
X143768890Y-50378135D01*
X143774364Y-50377201D01*
X143812925Y-50370019D01*
X143834306Y-50363081D01*
X143843573Y-50352787D01*
X143845794Y-50335536D01*
X143845844Y-50326401D01*
X143845844Y-50288049D01*
X143777369Y-50288049D01*
X143716900Y-50283907D01*
X143675635Y-50270707D01*
X143651625Y-50247290D01*
X143642923Y-50212496D01*
X143642817Y-50207954D01*
X143647908Y-50178214D01*
X143665367Y-50156979D01*
X143697861Y-50142926D01*
X143748057Y-50134733D01*
X143796677Y-50131721D01*
X143867344Y-50129993D01*
X143918602Y-50132630D01*
X143953561Y-50142360D01*
X143975330Y-50161913D01*
X143987020Y-50194016D01*
X143991740Y-50241398D01*
X143992600Y-50303631D01*
X143991191Y-50373095D01*
X143986952Y-50420346D01*
X143979864Y-50445572D01*
X143978489Y-50447548D01*
X143939572Y-50479068D01*
X143882514Y-50504030D01*
X143810931Y-50521900D01*
X143728442Y-50532146D01*
X143638661Y-50534233D01*
X143545208Y-50527628D01*
X143490244Y-50519516D01*
X143404034Y-50495114D01*
X143323908Y-50455222D01*
X143256823Y-50403447D01*
X143246627Y-50393099D01*
X143213498Y-50349595D01*
X143183606Y-50295678D01*
X143160443Y-50239152D01*
X143147502Y-50187819D01*
X143145942Y-50168104D01*
X143152582Y-50126979D01*
X143170232Y-50075812D01*
X143195503Y-50021954D01*
X143225011Y-49972755D01*
X143251081Y-49939894D01*
X143312035Y-49891012D01*
X143390831Y-49852105D01*
X143484643Y-49824054D01*
X143590650Y-49807739D01*
X143687800Y-49803752D01*
X143769719Y-49808159D01*
G36*
X144419686Y-49807008D02*
G01*
X144443252Y-49820833D01*
X144474065Y-49843441D01*
X144513722Y-49875898D01*
X144563820Y-49919268D01*
X144625957Y-49974618D01*
X144701728Y-50043011D01*
X144788466Y-50121644D01*
X144969089Y-50285438D01*
X144974733Y-50065589D01*
X144976771Y-49989911D01*
X144978737Y-49933554D01*
X144981066Y-49893266D01*
X144984194Y-49865795D01*
X144988555Y-49847889D01*
X144994584Y-49836297D01*
X145002716Y-49827768D01*
X145007028Y-49824183D01*
X145041559Y-49805230D01*
X145074417Y-49808001D01*
X145100482Y-49824193D01*
X145127133Y-49845759D01*
X145130448Y-50160711D01*
X145131365Y-50253339D01*
X145131832Y-50326104D01*
X145131687Y-50381721D01*
X145130768Y-50422902D01*
X145128913Y-50452363D01*
X145125961Y-50472815D01*
X145121750Y-50486973D01*
X145116118Y-50497551D01*
X145109873Y-50506034D01*
X145096361Y-50521767D01*
X145082917Y-50532196D01*
X145067676Y-50536199D01*
X145048774Y-50532654D01*
X145024345Y-50520439D01*
X144992527Y-50498431D01*
X144951452Y-50465509D01*
X144899258Y-50420551D01*
X144834078Y-50362435D01*
X144760244Y-50295659D01*
X144494955Y-50055018D01*
X144489311Y-50274149D01*
X144487269Y-50349688D01*
X144485298Y-50405914D01*
X144482961Y-50446084D01*
X144479819Y-50473456D01*
X144475436Y-50491288D01*
X144469376Y-50502839D01*
X144461200Y-50511367D01*
X144457016Y-50514842D01*
X144420035Y-50533932D01*
X144385092Y-50531053D01*
X144354664Y-50506660D01*
X144347703Y-50496846D01*
X144342277Y-50485386D01*
X144338197Y-50469528D01*
X144335271Y-50446523D01*
X144333308Y-50413622D01*
X144332117Y-50368076D01*
X144331508Y-50307133D01*
X144331289Y-50228046D01*
X144331266Y-50169516D01*
X144331340Y-50077967D01*
X144331687Y-50006247D01*
X144332499Y-49951605D01*
X144333967Y-49911292D01*
X144336281Y-49882558D01*
X144339633Y-49862653D01*
X144344212Y-49848828D01*
X144350211Y-49838332D01*
X144354664Y-49832371D01*
X144365950Y-49818251D01*
X144376499Y-49807589D01*
X144387907Y-49801452D01*
X144401770Y-49800903D01*
X144419686Y-49807008D01*
G37*
X144419686Y-49807008D02*
X144443252Y-49820833D01*
X144474065Y-49843441D01*
X144513722Y-49875898D01*
X144563820Y-49919268D01*
X144625957Y-49974618D01*
X144701728Y-50043011D01*
X144788466Y-50121644D01*
X144969089Y-50285438D01*
X144974733Y-50065589D01*
X144976771Y-49989911D01*
X144978737Y-49933554D01*
X144981066Y-49893266D01*
X144984194Y-49865795D01*
X144988555Y-49847889D01*
X144994584Y-49836297D01*
X145002716Y-49827768D01*
X145007028Y-49824183D01*
X145041559Y-49805230D01*
X145074417Y-49808001D01*
X145100482Y-49824193D01*
X145127133Y-49845759D01*
X145130448Y-50160711D01*
X145131365Y-50253339D01*
X145131832Y-50326104D01*
X145131687Y-50381721D01*
X145130768Y-50422902D01*
X145128913Y-50452363D01*
X145125961Y-50472815D01*
X145121750Y-50486973D01*
X145116118Y-50497551D01*
X145109873Y-50506034D01*
X145096361Y-50521767D01*
X145082917Y-50532196D01*
X145067676Y-50536199D01*
X145048774Y-50532654D01*
X145024345Y-50520439D01*
X144992527Y-50498431D01*
X144951452Y-50465509D01*
X144899258Y-50420551D01*
X144834078Y-50362435D01*
X144760244Y-50295659D01*
X144494955Y-50055018D01*
X144489311Y-50274149D01*
X144487269Y-50349688D01*
X144485298Y-50405914D01*
X144482961Y-50446084D01*
X144479819Y-50473456D01*
X144475436Y-50491288D01*
X144469376Y-50502839D01*
X144461200Y-50511367D01*
X144457016Y-50514842D01*
X144420035Y-50533932D01*
X144385092Y-50531053D01*
X144354664Y-50506660D01*
X144347703Y-50496846D01*
X144342277Y-50485386D01*
X144338197Y-50469528D01*
X144335271Y-50446523D01*
X144333308Y-50413622D01*
X144332117Y-50368076D01*
X144331508Y-50307133D01*
X144331289Y-50228046D01*
X144331266Y-50169516D01*
X144331340Y-50077967D01*
X144331687Y-50006247D01*
X144332499Y-49951605D01*
X144333967Y-49911292D01*
X144336281Y-49882558D01*
X144339633Y-49862653D01*
X144344212Y-49848828D01*
X144350211Y-49838332D01*
X144354664Y-49832371D01*
X144365950Y-49818251D01*
X144376499Y-49807589D01*
X144387907Y-49801452D01*
X144401770Y-49800903D01*
X144419686Y-49807008D01*
G36*
X145950143Y-49802820D02*
G01*
X146026501Y-49803734D01*
X146085017Y-49805871D01*
X146128055Y-49809735D01*
X146157983Y-49815827D01*
X146177168Y-49824650D01*
X146187976Y-49836706D01*
X146192773Y-49852499D01*
X146193927Y-49872530D01*
X146193933Y-49874895D01*
X146192931Y-49897552D01*
X146188196Y-49915063D01*
X146177133Y-49928134D01*
X146157148Y-49937473D01*
X146125646Y-49943787D01*
X146080032Y-49947782D01*
X146017713Y-49950166D01*
X145936093Y-49951646D01*
X145911077Y-49951974D01*
X145669000Y-49955027D01*
X145665614Y-50019938D01*
X145662229Y-50084849D01*
X145830376Y-50084849D01*
X145896066Y-50085091D01*
X145942972Y-50086116D01*
X145974883Y-50088371D01*
X145995591Y-50092302D01*
X146008884Y-50098358D01*
X146018555Y-50106984D01*
X146018617Y-50107053D01*
X146036156Y-50140672D01*
X146035522Y-50177008D01*
X146017114Y-50207983D01*
X146013471Y-50211167D01*
X146000541Y-50219372D01*
X145982824Y-50225081D01*
X145956370Y-50228722D01*
X145917232Y-50230727D01*
X145861462Y-50231524D01*
X145825794Y-50231605D01*
X145663355Y-50231605D01*
X145663355Y-50389649D01*
X145909961Y-50389649D01*
X145991380Y-50389791D01*
X146053210Y-50390374D01*
X146098437Y-50391628D01*
X146130048Y-50393787D01*
X146151031Y-50397083D01*
X146164373Y-50401749D01*
X146173061Y-50408017D01*
X146175250Y-50410293D01*
X146191414Y-50441840D01*
X146192597Y-50477728D01*
X146179336Y-50508845D01*
X146168843Y-50518831D01*
X146157929Y-50524329D01*
X146141017Y-50528582D01*
X146115433Y-50531740D01*
X146078501Y-50533952D01*
X146027546Y-50535366D01*
X145959894Y-50536132D01*
X145872869Y-50536398D01*
X145853194Y-50536405D01*
X145764711Y-50536347D01*
X145696027Y-50536027D01*
X145644364Y-50535227D01*
X145606945Y-50533727D01*
X145580990Y-50531309D01*
X145563722Y-50527754D01*
X145552362Y-50522842D01*
X145544132Y-50516355D01*
X145539617Y-50511698D01*
X145532821Y-50503449D01*
X145527512Y-50493229D01*
X145523506Y-50478360D01*
X145520621Y-50456162D01*
X145518674Y-50423953D01*
X145517481Y-50379056D01*
X145516861Y-50318788D01*
X145516629Y-50240471D01*
X145516600Y-50174554D01*
X145516671Y-50082188D01*
X145517008Y-50009677D01*
X145517798Y-49954297D01*
X145519226Y-49913325D01*
X145521479Y-49884038D01*
X145524743Y-49863713D01*
X145529204Y-49849626D01*
X145535048Y-49839055D01*
X145539997Y-49832371D01*
X145563394Y-49802627D01*
X145853574Y-49802627D01*
X145950143Y-49802820D01*
G37*
X145950143Y-49802820D02*
X146026501Y-49803734D01*
X146085017Y-49805871D01*
X146128055Y-49809735D01*
X146157983Y-49815827D01*
X146177168Y-49824650D01*
X146187976Y-49836706D01*
X146192773Y-49852499D01*
X146193927Y-49872530D01*
X146193933Y-49874895D01*
X146192931Y-49897552D01*
X146188196Y-49915063D01*
X146177133Y-49928134D01*
X146157148Y-49937473D01*
X146125646Y-49943787D01*
X146080032Y-49947782D01*
X146017713Y-49950166D01*
X145936093Y-49951646D01*
X145911077Y-49951974D01*
X145669000Y-49955027D01*
X145665614Y-50019938D01*
X145662229Y-50084849D01*
X145830376Y-50084849D01*
X145896066Y-50085091D01*
X145942972Y-50086116D01*
X145974883Y-50088371D01*
X145995591Y-50092302D01*
X146008884Y-50098358D01*
X146018555Y-50106984D01*
X146018617Y-50107053D01*
X146036156Y-50140672D01*
X146035522Y-50177008D01*
X146017114Y-50207983D01*
X146013471Y-50211167D01*
X146000541Y-50219372D01*
X145982824Y-50225081D01*
X145956370Y-50228722D01*
X145917232Y-50230727D01*
X145861462Y-50231524D01*
X145825794Y-50231605D01*
X145663355Y-50231605D01*
X145663355Y-50389649D01*
X145909961Y-50389649D01*
X145991380Y-50389791D01*
X146053210Y-50390374D01*
X146098437Y-50391628D01*
X146130048Y-50393787D01*
X146151031Y-50397083D01*
X146164373Y-50401749D01*
X146173061Y-50408017D01*
X146175250Y-50410293D01*
X146191414Y-50441840D01*
X146192597Y-50477728D01*
X146179336Y-50508845D01*
X146168843Y-50518831D01*
X146157929Y-50524329D01*
X146141017Y-50528582D01*
X146115433Y-50531740D01*
X146078501Y-50533952D01*
X146027546Y-50535366D01*
X145959894Y-50536132D01*
X145872869Y-50536398D01*
X145853194Y-50536405D01*
X145764711Y-50536347D01*
X145696027Y-50536027D01*
X145644364Y-50535227D01*
X145606945Y-50533727D01*
X145580990Y-50531309D01*
X145563722Y-50527754D01*
X145552362Y-50522842D01*
X145544132Y-50516355D01*
X145539617Y-50511698D01*
X145532821Y-50503449D01*
X145527512Y-50493229D01*
X145523506Y-50478360D01*
X145520621Y-50456162D01*
X145518674Y-50423953D01*
X145517481Y-50379056D01*
X145516861Y-50318788D01*
X145516629Y-50240471D01*
X145516600Y-50174554D01*
X145516671Y-50082188D01*
X145517008Y-50009677D01*
X145517798Y-49954297D01*
X145519226Y-49913325D01*
X145521479Y-49884038D01*
X145524743Y-49863713D01*
X145529204Y-49849626D01*
X145535048Y-49839055D01*
X145539997Y-49832371D01*
X145563394Y-49802627D01*
X145853574Y-49802627D01*
X145950143Y-49802820D01*
G36*
X146738109Y-49802835D02*
G01*
X146867088Y-49807196D01*
X146976791Y-49820421D01*
X147069026Y-49843301D01*
X147145602Y-49876630D01*
X147208327Y-49921198D01*
X147259012Y-49977796D01*
X147299463Y-50047218D01*
X147300259Y-50048911D01*
X147324401Y-50111043D01*
X147333003Y-50166069D01*
X147326031Y-50221447D01*
X147303454Y-50284633D01*
X147299172Y-50294249D01*
X147269972Y-50350526D01*
X147237156Y-50394011D01*
X147194802Y-50430977D01*
X147136990Y-50467695D01*
X147133631Y-50469612D01*
X147083304Y-50493787D01*
X147026421Y-50511842D01*
X146959327Y-50524399D01*
X146878365Y-50532082D01*
X146779882Y-50535513D01*
X146745086Y-50535811D01*
X146579394Y-50536405D01*
X146555997Y-50506660D01*
X146549057Y-50496879D01*
X146543642Y-50485457D01*
X146539565Y-50469655D01*
X146536637Y-50446735D01*
X146534667Y-50413956D01*
X146534025Y-50389649D01*
X146690644Y-50389649D01*
X146784526Y-50389649D01*
X146839464Y-50388043D01*
X146895860Y-50383815D01*
X146942145Y-50377852D01*
X146944939Y-50377350D01*
X147027148Y-50355296D01*
X147090914Y-50322160D01*
X147138252Y-50276407D01*
X147171182Y-50216499D01*
X147176908Y-50200621D01*
X147182521Y-50175893D01*
X147180091Y-50151462D01*
X147168267Y-50118960D01*
X147161140Y-50102994D01*
X147137800Y-50060566D01*
X147109680Y-50030800D01*
X147078740Y-50010071D01*
X147016766Y-49983097D01*
X146937451Y-49963558D01*
X146845053Y-49952306D01*
X146778133Y-49949830D01*
X146690644Y-49949382D01*
X146690644Y-50389649D01*
X146534025Y-50389649D01*
X146533468Y-50368581D01*
X146532850Y-50307871D01*
X146532625Y-50229086D01*
X146532600Y-50167480D01*
X146532600Y-49858045D01*
X146560309Y-49830336D01*
X146572606Y-49819104D01*
X146585903Y-49811413D01*
X146604472Y-49806600D01*
X146632586Y-49804006D01*
X146674517Y-49802970D01*
X146734537Y-49802830D01*
X146738109Y-49802835D01*
G37*
X146738109Y-49802835D02*
X146867088Y-49807196D01*
X146976791Y-49820421D01*
X147069026Y-49843301D01*
X147145602Y-49876630D01*
X147208327Y-49921198D01*
X147259012Y-49977796D01*
X147299463Y-50047218D01*
X147300259Y-50048911D01*
X147324401Y-50111043D01*
X147333003Y-50166069D01*
X147326031Y-50221447D01*
X147303454Y-50284633D01*
X147299172Y-50294249D01*
X147269972Y-50350526D01*
X147237156Y-50394011D01*
X147194802Y-50430977D01*
X147136990Y-50467695D01*
X147133631Y-50469612D01*
X147083304Y-50493787D01*
X147026421Y-50511842D01*
X146959327Y-50524399D01*
X146878365Y-50532082D01*
X146779882Y-50535513D01*
X146745086Y-50535811D01*
X146579394Y-50536405D01*
X146555997Y-50506660D01*
X146549057Y-50496879D01*
X146543642Y-50485457D01*
X146539565Y-50469655D01*
X146536637Y-50446735D01*
X146534667Y-50413956D01*
X146534025Y-50389649D01*
X146690644Y-50389649D01*
X146784526Y-50389649D01*
X146839464Y-50388043D01*
X146895860Y-50383815D01*
X146942145Y-50377852D01*
X146944939Y-50377350D01*
X147027148Y-50355296D01*
X147090914Y-50322160D01*
X147138252Y-50276407D01*
X147171182Y-50216499D01*
X147176908Y-50200621D01*
X147182521Y-50175893D01*
X147180091Y-50151462D01*
X147168267Y-50118960D01*
X147161140Y-50102994D01*
X147137800Y-50060566D01*
X147109680Y-50030800D01*
X147078740Y-50010071D01*
X147016766Y-49983097D01*
X146937451Y-49963558D01*
X146845053Y-49952306D01*
X146778133Y-49949830D01*
X146690644Y-49949382D01*
X146690644Y-50389649D01*
X146534025Y-50389649D01*
X146533468Y-50368581D01*
X146532850Y-50307871D01*
X146532625Y-50229086D01*
X146532600Y-50167480D01*
X146532600Y-49858045D01*
X146560309Y-49830336D01*
X146572606Y-49819104D01*
X146585903Y-49811413D01*
X146604472Y-49806600D01*
X146632586Y-49804006D01*
X146674517Y-49802970D01*
X146734537Y-49802830D01*
X146738109Y-49802835D01*
G36*
X149464465Y-49804594D02*
G01*
X149484055Y-49811595D01*
X149484810Y-49811937D01*
X149511413Y-49832238D01*
X149526070Y-49853121D01*
X149528938Y-49862912D01*
X149528796Y-49875921D01*
X149524761Y-49894455D01*
X149515946Y-49920817D01*
X149501469Y-49957312D01*
X149480445Y-50006247D01*
X149451988Y-50069925D01*
X149415215Y-50150653D01*
X149394975Y-50194776D01*
X149358425Y-50273545D01*
X149324115Y-50345983D01*
X149293352Y-50409440D01*
X149267448Y-50461268D01*
X149247710Y-50498819D01*
X149235450Y-50519444D01*
X149233024Y-50522293D01*
X149201983Y-50534862D01*
X149166921Y-50533179D01*
X149138800Y-50517892D01*
X149137654Y-50516649D01*
X149126468Y-50499714D01*
X149107704Y-50466730D01*
X149083675Y-50421940D01*
X149056697Y-50369592D01*
X149047001Y-50350302D01*
X148973814Y-50203710D01*
X148894040Y-50362953D01*
X148865567Y-50417975D01*
X148839150Y-50465692D01*
X148816948Y-50502453D01*
X148801119Y-50524604D01*
X148795754Y-50529301D01*
X148754057Y-50535662D01*
X148719649Y-50522293D01*
X148709528Y-50508006D01*
X148692014Y-50476252D01*
X148668535Y-50430157D01*
X148640520Y-50372845D01*
X148609399Y-50307440D01*
X148576599Y-50237067D01*
X148543550Y-50164851D01*
X148511681Y-50093915D01*
X148482419Y-50027385D01*
X148457195Y-49968386D01*
X148437436Y-49920041D01*
X148424572Y-49885475D01*
X148420031Y-49867813D01*
X148420077Y-49867173D01*
X148431126Y-49844948D01*
X148453210Y-49822313D01*
X148454510Y-49821328D01*
X148481653Y-49805985D01*
X148506758Y-49806134D01*
X148516168Y-49809026D01*
X148527634Y-49815278D01*
X148539810Y-49827574D01*
X148554157Y-49848468D01*
X148572136Y-49880509D01*
X148595207Y-49926248D01*
X148624830Y-49988237D01*
X148651545Y-50045458D01*
X148682280Y-50111786D01*
X148709821Y-50171434D01*
X148732738Y-50221285D01*
X148749598Y-50258224D01*
X148758973Y-50279133D01*
X148760340Y-50282405D01*
X148766489Y-50277057D01*
X148780622Y-50254669D01*
X148800857Y-50218506D01*
X148825315Y-50171837D01*
X148835048Y-50152582D01*
X148868017Y-50087564D01*
X148893443Y-50040214D01*
X148913412Y-50007779D01*
X148930010Y-49987506D01*
X148945324Y-49976642D01*
X148961440Y-49972435D01*
X148971943Y-49971960D01*
X148990470Y-49973602D01*
X149006704Y-49980391D01*
X149022835Y-49995126D01*
X149041051Y-50020604D01*
X149063539Y-50059621D01*
X149092489Y-50114974D01*
X149108462Y-50146463D01*
X149134370Y-50196647D01*
X149156967Y-50238264D01*
X149174258Y-50267802D01*
X149184250Y-50281749D01*
X149185609Y-50282330D01*
X149192061Y-50271353D01*
X149206508Y-50242850D01*
X149227503Y-50199804D01*
X149253597Y-50145198D01*
X149283346Y-50082014D01*
X149297980Y-50050631D01*
X149336050Y-49969638D01*
X149366705Y-49907316D01*
X149391537Y-49861631D01*
X149412137Y-49830549D01*
X149430098Y-49812038D01*
X149447010Y-49804064D01*
X149464465Y-49804594D01*
G37*
X149464465Y-49804594D02*
X149484055Y-49811595D01*
X149484810Y-49811937D01*
X149511413Y-49832238D01*
X149526070Y-49853121D01*
X149528938Y-49862912D01*
X149528796Y-49875921D01*
X149524761Y-49894455D01*
X149515946Y-49920817D01*
X149501469Y-49957312D01*
X149480445Y-50006247D01*
X149451988Y-50069925D01*
X149415215Y-50150653D01*
X149394975Y-50194776D01*
X149358425Y-50273545D01*
X149324115Y-50345983D01*
X149293352Y-50409440D01*
X149267448Y-50461268D01*
X149247710Y-50498819D01*
X149235450Y-50519444D01*
X149233024Y-50522293D01*
X149201983Y-50534862D01*
X149166921Y-50533179D01*
X149138800Y-50517892D01*
X149137654Y-50516649D01*
X149126468Y-50499714D01*
X149107704Y-50466730D01*
X149083675Y-50421940D01*
X149056697Y-50369592D01*
X149047001Y-50350302D01*
X148973814Y-50203710D01*
X148894040Y-50362953D01*
X148865567Y-50417975D01*
X148839150Y-50465692D01*
X148816948Y-50502453D01*
X148801119Y-50524604D01*
X148795754Y-50529301D01*
X148754057Y-50535662D01*
X148719649Y-50522293D01*
X148709528Y-50508006D01*
X148692014Y-50476252D01*
X148668535Y-50430157D01*
X148640520Y-50372845D01*
X148609399Y-50307440D01*
X148576599Y-50237067D01*
X148543550Y-50164851D01*
X148511681Y-50093915D01*
X148482419Y-50027385D01*
X148457195Y-49968386D01*
X148437436Y-49920041D01*
X148424572Y-49885475D01*
X148420031Y-49867813D01*
X148420077Y-49867173D01*
X148431126Y-49844948D01*
X148453210Y-49822313D01*
X148454510Y-49821328D01*
X148481653Y-49805985D01*
X148506758Y-49806134D01*
X148516168Y-49809026D01*
X148527634Y-49815278D01*
X148539810Y-49827574D01*
X148554157Y-49848468D01*
X148572136Y-49880509D01*
X148595207Y-49926248D01*
X148624830Y-49988237D01*
X148651545Y-50045458D01*
X148682280Y-50111786D01*
X148709821Y-50171434D01*
X148732738Y-50221285D01*
X148749598Y-50258224D01*
X148758973Y-50279133D01*
X148760340Y-50282405D01*
X148766489Y-50277057D01*
X148780622Y-50254669D01*
X148800857Y-50218506D01*
X148825315Y-50171837D01*
X148835048Y-50152582D01*
X148868017Y-50087564D01*
X148893443Y-50040214D01*
X148913412Y-50007779D01*
X148930010Y-49987506D01*
X148945324Y-49976642D01*
X148961440Y-49972435D01*
X148971943Y-49971960D01*
X148990470Y-49973602D01*
X149006704Y-49980391D01*
X149022835Y-49995126D01*
X149041051Y-50020604D01*
X149063539Y-50059621D01*
X149092489Y-50114974D01*
X149108462Y-50146463D01*
X149134370Y-50196647D01*
X149156967Y-50238264D01*
X149174258Y-50267802D01*
X149184250Y-50281749D01*
X149185609Y-50282330D01*
X149192061Y-50271353D01*
X149206508Y-50242850D01*
X149227503Y-50199804D01*
X149253597Y-50145198D01*
X149283346Y-50082014D01*
X149297980Y-50050631D01*
X149336050Y-49969638D01*
X149366705Y-49907316D01*
X149391537Y-49861631D01*
X149412137Y-49830549D01*
X149430098Y-49812038D01*
X149447010Y-49804064D01*
X149464465Y-49804594D01*
G36*
X149908414Y-49809437D02*
G01*
X149932127Y-49824207D01*
X149958778Y-49845787D01*
X149958778Y-50167333D01*
X149958693Y-50261390D01*
X149958329Y-50335492D01*
X149957524Y-50392264D01*
X149956113Y-50434328D01*
X149953933Y-50464308D01*
X149950821Y-50484827D01*
X149946614Y-50498509D01*
X149941148Y-50507976D01*
X149937272Y-50512642D01*
X149905834Y-50533135D01*
X149870033Y-50532299D01*
X149838673Y-50514824D01*
X149812022Y-50493244D01*
X149812022Y-49845787D01*
X149838673Y-49824207D01*
X149864394Y-49808509D01*
X149885400Y-49802627D01*
X149908414Y-49809437D01*
G37*
X149908414Y-49809437D02*
X149932127Y-49824207D01*
X149958778Y-49845787D01*
X149958778Y-50167333D01*
X149958693Y-50261390D01*
X149958329Y-50335492D01*
X149957524Y-50392264D01*
X149956113Y-50434328D01*
X149953933Y-50464308D01*
X149950821Y-50484827D01*
X149946614Y-50498509D01*
X149941148Y-50507976D01*
X149937272Y-50512642D01*
X149905834Y-50533135D01*
X149870033Y-50532299D01*
X149838673Y-50514824D01*
X149812022Y-50493244D01*
X149812022Y-49845787D01*
X149838673Y-49824207D01*
X149864394Y-49808509D01*
X149885400Y-49802627D01*
X149908414Y-49809437D01*
G36*
X150682865Y-49802723D02*
G01*
X150761572Y-49803102D01*
X150822663Y-49803893D01*
X150868617Y-49805230D01*
X150901914Y-49807243D01*
X150925036Y-49810066D01*
X150940462Y-49813829D01*
X150950671Y-49818665D01*
X150955613Y-49822382D01*
X150981257Y-49854918D01*
X150984359Y-49888698D01*
X150968511Y-49919386D01*
X150958148Y-49931649D01*
X150946996Y-49940010D01*
X150930835Y-49945217D01*
X150905442Y-49948017D01*
X150866598Y-49949156D01*
X150810080Y-49949381D01*
X150798980Y-49949382D01*
X150653044Y-49949382D01*
X150653044Y-50220316D01*
X150652948Y-50305714D01*
X150652511Y-50371424D01*
X150651512Y-50420334D01*
X150649728Y-50455333D01*
X150646937Y-50479309D01*
X150642917Y-50495153D01*
X150637445Y-50505751D01*
X150630466Y-50513827D01*
X150597534Y-50533672D01*
X150563154Y-50532108D01*
X150531976Y-50509466D01*
X150529686Y-50506660D01*
X150522229Y-50496052D01*
X150516547Y-50483641D01*
X150512401Y-50466410D01*
X150509550Y-50441344D01*
X150507754Y-50405427D01*
X150506772Y-50355643D01*
X150506364Y-50288977D01*
X150506289Y-50213149D01*
X150506289Y-49949382D01*
X150366927Y-49949382D01*
X150307122Y-49948978D01*
X150265718Y-49947400D01*
X150238548Y-49944107D01*
X150221446Y-49938552D01*
X150210243Y-49930191D01*
X150208883Y-49928738D01*
X150192525Y-49895499D01*
X150193972Y-49857922D01*
X150212778Y-49825205D01*
X150220050Y-49818858D01*
X150229427Y-49813826D01*
X150243409Y-49809956D01*
X150264496Y-49807097D01*
X150295189Y-49805095D01*
X150337989Y-49803799D01*
X150395395Y-49803058D01*
X150469910Y-49802718D01*
X150564033Y-49802628D01*
X150584060Y-49802627D01*
X150682865Y-49802723D01*
G37*
X150682865Y-49802723D02*
X150761572Y-49803102D01*
X150822663Y-49803893D01*
X150868617Y-49805230D01*
X150901914Y-49807243D01*
X150925036Y-49810066D01*
X150940462Y-49813829D01*
X150950671Y-49818665D01*
X150955613Y-49822382D01*
X150981257Y-49854918D01*
X150984359Y-49888698D01*
X150968511Y-49919386D01*
X150958148Y-49931649D01*
X150946996Y-49940010D01*
X150930835Y-49945217D01*
X150905442Y-49948017D01*
X150866598Y-49949156D01*
X150810080Y-49949381D01*
X150798980Y-49949382D01*
X150653044Y-49949382D01*
X150653044Y-50220316D01*
X150652948Y-50305714D01*
X150652511Y-50371424D01*
X150651512Y-50420334D01*
X150649728Y-50455333D01*
X150646937Y-50479309D01*
X150642917Y-50495153D01*
X150637445Y-50505751D01*
X150630466Y-50513827D01*
X150597534Y-50533672D01*
X150563154Y-50532108D01*
X150531976Y-50509466D01*
X150529686Y-50506660D01*
X150522229Y-50496052D01*
X150516547Y-50483641D01*
X150512401Y-50466410D01*
X150509550Y-50441344D01*
X150507754Y-50405427D01*
X150506772Y-50355643D01*
X150506364Y-50288977D01*
X150506289Y-50213149D01*
X150506289Y-49949382D01*
X150366927Y-49949382D01*
X150307122Y-49948978D01*
X150265718Y-49947400D01*
X150238548Y-49944107D01*
X150221446Y-49938552D01*
X150210243Y-49930191D01*
X150208883Y-49928738D01*
X150192525Y-49895499D01*
X150193972Y-49857922D01*
X150212778Y-49825205D01*
X150220050Y-49818858D01*
X150229427Y-49813826D01*
X150243409Y-49809956D01*
X150264496Y-49807097D01*
X150295189Y-49805095D01*
X150337989Y-49803799D01*
X150395395Y-49803058D01*
X150469910Y-49802718D01*
X150564033Y-49802628D01*
X150584060Y-49802627D01*
X150682865Y-49802723D01*
G36*
X151948623Y-49808093D02*
G01*
X151980002Y-49830336D01*
X152007711Y-49858045D01*
X152007711Y-50167480D01*
X152007638Y-50259359D01*
X152007295Y-50331400D01*
X152006492Y-50386340D01*
X152005041Y-50426920D01*
X152002752Y-50455877D01*
X151999436Y-50475951D01*
X151994905Y-50489881D01*
X151988969Y-50500405D01*
X151984314Y-50506660D01*
X151953583Y-50531233D01*
X151918296Y-50533901D01*
X151886045Y-50518831D01*
X151875388Y-50509934D01*
X151868264Y-50498117D01*
X151863967Y-50479086D01*
X151861791Y-50448552D01*
X151861028Y-50402222D01*
X151860955Y-50366431D01*
X151860955Y-50231605D01*
X151364244Y-50231605D01*
X151364244Y-50354260D01*
X151363731Y-50410347D01*
X151361676Y-50448893D01*
X151357308Y-50474921D01*
X151349856Y-50493457D01*
X151340847Y-50506660D01*
X151309944Y-50531164D01*
X151274996Y-50534066D01*
X151241538Y-50516649D01*
X151232404Y-50507519D01*
X151225952Y-50495415D01*
X151221697Y-50476561D01*
X151219152Y-50447180D01*
X151217829Y-50403497D01*
X151217243Y-50341735D01*
X151217175Y-50327560D01*
X151216691Y-50211191D01*
X151216441Y-50115287D01*
X151216523Y-50037737D01*
X151217031Y-49976429D01*
X151218062Y-49929250D01*
X151219713Y-49894090D01*
X151222079Y-49868836D01*
X151225257Y-49851377D01*
X151229344Y-49839601D01*
X151234434Y-49831395D01*
X151240066Y-49825205D01*
X151271928Y-49805404D01*
X151305157Y-49808093D01*
X151336535Y-49830336D01*
X151349233Y-49844686D01*
X151357326Y-49860538D01*
X151361842Y-49883114D01*
X151363806Y-49917638D01*
X151364244Y-49969336D01*
X151364244Y-50084849D01*
X151860955Y-50084849D01*
X151860955Y-49966316D01*
X151861462Y-49911708D01*
X151863498Y-49874835D01*
X151867835Y-49850867D01*
X151875247Y-49834975D01*
X151883533Y-49825205D01*
X151915394Y-49805404D01*
X151948623Y-49808093D01*
G37*
X151948623Y-49808093D02*
X151980002Y-49830336D01*
X152007711Y-49858045D01*
X152007711Y-50167480D01*
X152007638Y-50259359D01*
X152007295Y-50331400D01*
X152006492Y-50386340D01*
X152005041Y-50426920D01*
X152002752Y-50455877D01*
X151999436Y-50475951D01*
X151994905Y-50489881D01*
X151988969Y-50500405D01*
X151984314Y-50506660D01*
X151953583Y-50531233D01*
X151918296Y-50533901D01*
X151886045Y-50518831D01*
X151875388Y-50509934D01*
X151868264Y-50498117D01*
X151863967Y-50479086D01*
X151861791Y-50448552D01*
X151861028Y-50402222D01*
X151860955Y-50366431D01*
X151860955Y-50231605D01*
X151364244Y-50231605D01*
X151364244Y-50354260D01*
X151363731Y-50410347D01*
X151361676Y-50448893D01*
X151357308Y-50474921D01*
X151349856Y-50493457D01*
X151340847Y-50506660D01*
X151309944Y-50531164D01*
X151274996Y-50534066D01*
X151241538Y-50516649D01*
X151232404Y-50507519D01*
X151225952Y-50495415D01*
X151221697Y-50476561D01*
X151219152Y-50447180D01*
X151217829Y-50403497D01*
X151217243Y-50341735D01*
X151217175Y-50327560D01*
X151216691Y-50211191D01*
X151216441Y-50115287D01*
X151216523Y-50037737D01*
X151217031Y-49976429D01*
X151218062Y-49929250D01*
X151219713Y-49894090D01*
X151222079Y-49868836D01*
X151225257Y-49851377D01*
X151229344Y-49839601D01*
X151234434Y-49831395D01*
X151240066Y-49825205D01*
X151271928Y-49805404D01*
X151305157Y-49808093D01*
X151336535Y-49830336D01*
X151349233Y-49844686D01*
X151357326Y-49860538D01*
X151361842Y-49883114D01*
X151363806Y-49917638D01*
X151364244Y-49969336D01*
X151364244Y-50084849D01*
X151860955Y-50084849D01*
X151860955Y-49966316D01*
X151861462Y-49911708D01*
X151863498Y-49874835D01*
X151867835Y-49850867D01*
X151875247Y-49834975D01*
X151883533Y-49825205D01*
X151915394Y-49805404D01*
X151948623Y-49808093D01*
%TO.C,OSHW-logo*%
G36*
X145986544Y-43870558D02*
G01*
X146042001Y-43898208D01*
X146090948Y-43949120D01*
X146104429Y-43967978D01*
X146119114Y-43992655D01*
X146128642Y-44019456D01*
X146134093Y-44055227D01*
X146136547Y-44106809D01*
X146137086Y-44174907D01*
X146134652Y-44268228D01*
X146126194Y-44338297D01*
X146109974Y-44390571D01*
X146084254Y-44430509D01*
X146047297Y-44463569D01*
X146044582Y-44465526D01*
X146008160Y-44485548D01*
X145964302Y-44495455D01*
X145908524Y-44497897D01*
X145817848Y-44497897D01*
X145817810Y-44585923D01*
X145816966Y-44634948D01*
X145811824Y-44663705D01*
X145798387Y-44680951D01*
X145772658Y-44695448D01*
X145766479Y-44698409D01*
X145737564Y-44712288D01*
X145715176Y-44721054D01*
X145698529Y-44721811D01*
X145686836Y-44711663D01*
X145679310Y-44687713D01*
X145675166Y-44647066D01*
X145673615Y-44586826D01*
X145673871Y-44504095D01*
X145675149Y-44395979D01*
X145675548Y-44363640D01*
X145676985Y-44252164D01*
X145678272Y-44179243D01*
X145817771Y-44179243D01*
X145818555Y-44241139D01*
X145822040Y-44281637D01*
X145829924Y-44308348D01*
X145843905Y-44328884D01*
X145853397Y-44338900D01*
X145892204Y-44368207D01*
X145926563Y-44370592D01*
X145962016Y-44346390D01*
X145962914Y-44345497D01*
X145977339Y-44326793D01*
X145986113Y-44301372D01*
X145990539Y-44262224D01*
X145991918Y-44202337D01*
X145991943Y-44189070D01*
X145988612Y-44106541D01*
X145977769Y-44049331D01*
X145958140Y-44014406D01*
X145928450Y-43998734D01*
X145911291Y-43997154D01*
X145870566Y-44004566D01*
X145842632Y-44028970D01*
X145825817Y-44073620D01*
X145818450Y-44141770D01*
X145817771Y-44179243D01*
X145678272Y-44179243D01*
X145678508Y-44165885D01*
X145680477Y-44100973D01*
X145683250Y-44053598D01*
X145687188Y-44019930D01*
X145692649Y-43996138D01*
X145699992Y-43978393D01*
X145709577Y-43962864D01*
X145713687Y-43957021D01*
X145768205Y-43901825D01*
X145837136Y-43870530D01*
X145916872Y-43861805D01*
X145986544Y-43870558D01*
G37*
X145986544Y-43870558D02*
X146042001Y-43898208D01*
X146090948Y-43949120D01*
X146104429Y-43967978D01*
X146119114Y-43992655D01*
X146128642Y-44019456D01*
X146134093Y-44055227D01*
X146136547Y-44106809D01*
X146137086Y-44174907D01*
X146134652Y-44268228D01*
X146126194Y-44338297D01*
X146109974Y-44390571D01*
X146084254Y-44430509D01*
X146047297Y-44463569D01*
X146044582Y-44465526D01*
X146008160Y-44485548D01*
X145964302Y-44495455D01*
X145908524Y-44497897D01*
X145817848Y-44497897D01*
X145817810Y-44585923D01*
X145816966Y-44634948D01*
X145811824Y-44663705D01*
X145798387Y-44680951D01*
X145772658Y-44695448D01*
X145766479Y-44698409D01*
X145737564Y-44712288D01*
X145715176Y-44721054D01*
X145698529Y-44721811D01*
X145686836Y-44711663D01*
X145679310Y-44687713D01*
X145675166Y-44647066D01*
X145673615Y-44586826D01*
X145673871Y-44504095D01*
X145675149Y-44395979D01*
X145675548Y-44363640D01*
X145676985Y-44252164D01*
X145678272Y-44179243D01*
X145817771Y-44179243D01*
X145818555Y-44241139D01*
X145822040Y-44281637D01*
X145829924Y-44308348D01*
X145843905Y-44328884D01*
X145853397Y-44338900D01*
X145892204Y-44368207D01*
X145926563Y-44370592D01*
X145962016Y-44346390D01*
X145962914Y-44345497D01*
X145977339Y-44326793D01*
X145986113Y-44301372D01*
X145990539Y-44262224D01*
X145991918Y-44202337D01*
X145991943Y-44189070D01*
X145988612Y-44106541D01*
X145977769Y-44049331D01*
X145958140Y-44014406D01*
X145928450Y-43998734D01*
X145911291Y-43997154D01*
X145870566Y-44004566D01*
X145842632Y-44028970D01*
X145825817Y-44073620D01*
X145818450Y-44141770D01*
X145817771Y-44179243D01*
X145678272Y-44179243D01*
X145678508Y-44165885D01*
X145680477Y-44100973D01*
X145683250Y-44053598D01*
X145687188Y-44019930D01*
X145692649Y-43996138D01*
X145699992Y-43978393D01*
X145709577Y-43962864D01*
X145713687Y-43957021D01*
X145768205Y-43901825D01*
X145837136Y-43870530D01*
X145916872Y-43861805D01*
X145986544Y-43870558D01*
G36*
X147102893Y-43878420D02*
G01*
X147149472Y-43905363D01*
X147181857Y-43932106D01*
X147205542Y-43960124D01*
X147221859Y-43994388D01*
X147232139Y-44039867D01*
X147237714Y-44101532D01*
X147239916Y-44184351D01*
X147240171Y-44243886D01*
X147240171Y-44463031D01*
X147178486Y-44490684D01*
X147116800Y-44518337D01*
X147109543Y-44278310D01*
X147106544Y-44188668D01*
X147103398Y-44123602D01*
X147099501Y-44078666D01*
X147094247Y-44049410D01*
X147087031Y-44031388D01*
X147077250Y-44020151D01*
X147074112Y-44017719D01*
X147026561Y-43998723D01*
X146978497Y-44006240D01*
X146949886Y-44026183D01*
X146938247Y-44040315D01*
X146930191Y-44058860D01*
X146925071Y-44086974D01*
X146922241Y-44129813D01*
X146921056Y-44192535D01*
X146920857Y-44257901D01*
X146920818Y-44339908D01*
X146919414Y-44397956D01*
X146914714Y-44437105D01*
X146904787Y-44462420D01*
X146887703Y-44478963D01*
X146861532Y-44491796D01*
X146826575Y-44505131D01*
X146788396Y-44519647D01*
X146792941Y-44262029D01*
X146794771Y-44169159D01*
X146796912Y-44100529D01*
X146799981Y-44051351D01*
X146804594Y-44016838D01*
X146811368Y-43992202D01*
X146820919Y-43972656D01*
X146832434Y-43955410D01*
X146887990Y-43900320D01*
X146955780Y-43868462D01*
X147029513Y-43860831D01*
X147102893Y-43878420D01*
G37*
X147102893Y-43878420D02*
X147149472Y-43905363D01*
X147181857Y-43932106D01*
X147205542Y-43960124D01*
X147221859Y-43994388D01*
X147232139Y-44039867D01*
X147237714Y-44101532D01*
X147239916Y-44184351D01*
X147240171Y-44243886D01*
X147240171Y-44463031D01*
X147178486Y-44490684D01*
X147116800Y-44518337D01*
X147109543Y-44278310D01*
X147106544Y-44188668D01*
X147103398Y-44123602D01*
X147099501Y-44078666D01*
X147094247Y-44049410D01*
X147087031Y-44031388D01*
X147077250Y-44020151D01*
X147074112Y-44017719D01*
X147026561Y-43998723D01*
X146978497Y-44006240D01*
X146949886Y-44026183D01*
X146938247Y-44040315D01*
X146930191Y-44058860D01*
X146925071Y-44086974D01*
X146922241Y-44129813D01*
X146921056Y-44192535D01*
X146920857Y-44257901D01*
X146920818Y-44339908D01*
X146919414Y-44397956D01*
X146914714Y-44437105D01*
X146904787Y-44462420D01*
X146887703Y-44478963D01*
X146861532Y-44491796D01*
X146826575Y-44505131D01*
X146788396Y-44519647D01*
X146792941Y-44262029D01*
X146794771Y-44169159D01*
X146796912Y-44100529D01*
X146799981Y-44051351D01*
X146804594Y-44016838D01*
X146811368Y-43992202D01*
X146820919Y-43972656D01*
X146832434Y-43955410D01*
X146887990Y-43900320D01*
X146955780Y-43868462D01*
X147029513Y-43860831D01*
X147102893Y-43878420D01*
G36*
X145427915Y-43872602D02*
G01*
X145495945Y-43908373D01*
X145546151Y-43965941D01*
X145563985Y-44002952D01*
X145577863Y-44058522D01*
X145584967Y-44128736D01*
X145585640Y-44205367D01*
X145580227Y-44280192D01*
X145569070Y-44344982D01*
X145552514Y-44391513D01*
X145547426Y-44399527D01*
X145487155Y-44459347D01*
X145415569Y-44495175D01*
X145337892Y-44505660D01*
X145259348Y-44489450D01*
X145237489Y-44479732D01*
X145194922Y-44449783D01*
X145157563Y-44410073D01*
X145154032Y-44405037D01*
X145139681Y-44380764D01*
X145130194Y-44354818D01*
X145124590Y-44320662D01*
X145121886Y-44271759D01*
X145121099Y-44201575D01*
X145121086Y-44185840D01*
X145121122Y-44180832D01*
X145266229Y-44180832D01*
X145267073Y-44247070D01*
X145270396Y-44291026D01*
X145277383Y-44319419D01*
X145289216Y-44338965D01*
X145295257Y-44345497D01*
X145329986Y-44370320D01*
X145363703Y-44369188D01*
X145397795Y-44347656D01*
X145418129Y-44324669D01*
X145430171Y-44291118D01*
X145436934Y-44238209D01*
X145437398Y-44232039D01*
X145438552Y-44136153D01*
X145426488Y-44064939D01*
X145401370Y-44018834D01*
X145363360Y-43998275D01*
X145349792Y-43997154D01*
X145314164Y-44002792D01*
X145289794Y-44022326D01*
X145274893Y-44059682D01*
X145267675Y-44118790D01*
X145266229Y-44180832D01*
X145121122Y-44180832D01*
X145121626Y-44111053D01*
X145123896Y-44058799D01*
X145128868Y-44022589D01*
X145137513Y-43995939D01*
X145150805Y-43972362D01*
X145153743Y-43967978D01*
X145203113Y-43908889D01*
X145256909Y-43874587D01*
X145322402Y-43860971D01*
X145344642Y-43860305D01*
X145427915Y-43872602D01*
G37*
X145427915Y-43872602D02*
X145495945Y-43908373D01*
X145546151Y-43965941D01*
X145563985Y-44002952D01*
X145577863Y-44058522D01*
X145584967Y-44128736D01*
X145585640Y-44205367D01*
X145580227Y-44280192D01*
X145569070Y-44344982D01*
X145552514Y-44391513D01*
X145547426Y-44399527D01*
X145487155Y-44459347D01*
X145415569Y-44495175D01*
X145337892Y-44505660D01*
X145259348Y-44489450D01*
X145237489Y-44479732D01*
X145194922Y-44449783D01*
X145157563Y-44410073D01*
X145154032Y-44405037D01*
X145139681Y-44380764D01*
X145130194Y-44354818D01*
X145124590Y-44320662D01*
X145121886Y-44271759D01*
X145121099Y-44201575D01*
X145121086Y-44185840D01*
X145121122Y-44180832D01*
X145266229Y-44180832D01*
X145267073Y-44247070D01*
X145270396Y-44291026D01*
X145277383Y-44319419D01*
X145289216Y-44338965D01*
X145295257Y-44345497D01*
X145329986Y-44370320D01*
X145363703Y-44369188D01*
X145397795Y-44347656D01*
X145418129Y-44324669D01*
X145430171Y-44291118D01*
X145436934Y-44238209D01*
X145437398Y-44232039D01*
X145438552Y-44136153D01*
X145426488Y-44064939D01*
X145401370Y-44018834D01*
X145363360Y-43998275D01*
X145349792Y-43997154D01*
X145314164Y-44002792D01*
X145289794Y-44022326D01*
X145274893Y-44059682D01*
X145267675Y-44118790D01*
X145266229Y-44180832D01*
X145121122Y-44180832D01*
X145121626Y-44111053D01*
X145123896Y-44058799D01*
X145128868Y-44022589D01*
X145137513Y-43995939D01*
X145150805Y-43972362D01*
X145153743Y-43967978D01*
X145203113Y-43908889D01*
X145256909Y-43874587D01*
X145322402Y-43860971D01*
X145344642Y-43860305D01*
X145427915Y-43872602D01*
G36*
X146555103Y-43881879D02*
G01*
X146612327Y-43920375D01*
X146656549Y-43975975D01*
X146682967Y-44046726D01*
X146688310Y-44098802D01*
X146687703Y-44120533D01*
X146682622Y-44137171D01*
X146668655Y-44152077D01*
X146641389Y-44168613D01*
X146596412Y-44190138D01*
X146529311Y-44220014D01*
X146528971Y-44220164D01*
X146467207Y-44248453D01*
X146416559Y-44273573D01*
X146382204Y-44292819D01*
X146369318Y-44303488D01*
X146369314Y-44303574D01*
X146380672Y-44326806D01*
X146407231Y-44352414D01*
X146437723Y-44370861D01*
X146453170Y-44374526D01*
X146495315Y-44361852D01*
X146531608Y-44330111D01*
X146549317Y-44295212D01*
X146566352Y-44269485D01*
X146599722Y-44240186D01*
X146638949Y-44214875D01*
X146673556Y-44201111D01*
X146680793Y-44200354D01*
X146688939Y-44212800D01*
X146689430Y-44244612D01*
X146683443Y-44287506D01*
X146672157Y-44333198D01*
X146656750Y-44373401D01*
X146655971Y-44374962D01*
X146609604Y-44439702D01*
X146549511Y-44483737D01*
X146481265Y-44505351D01*
X146410438Y-44502825D01*
X146342604Y-44474444D01*
X146339588Y-44472448D01*
X146286227Y-44424088D01*
X146251140Y-44360992D01*
X146231722Y-44278027D01*
X146229116Y-44254718D01*
X146224501Y-44144695D01*
X146230033Y-44093388D01*
X146369314Y-44093388D01*
X146371124Y-44125393D01*
X146381022Y-44134733D01*
X146405698Y-44127745D01*
X146444595Y-44111227D01*
X146488075Y-44090521D01*
X146489156Y-44089973D01*
X146526009Y-44070589D01*
X146540800Y-44057653D01*
X146537153Y-44044091D01*
X146521795Y-44026272D01*
X146482723Y-44000485D01*
X146440646Y-43998590D01*
X146402903Y-44017357D01*
X146376834Y-44053555D01*
X146369314Y-44093388D01*
X146230033Y-44093388D01*
X146233994Y-44056667D01*
X146258350Y-43986852D01*
X146292256Y-43937942D01*
X146353453Y-43888518D01*
X146420863Y-43863999D01*
X146489680Y-43862437D01*
X146555103Y-43881879D01*
G37*
X146555103Y-43881879D02*
X146612327Y-43920375D01*
X146656549Y-43975975D01*
X146682967Y-44046726D01*
X146688310Y-44098802D01*
X146687703Y-44120533D01*
X146682622Y-44137171D01*
X146668655Y-44152077D01*
X146641389Y-44168613D01*
X146596412Y-44190138D01*
X146529311Y-44220014D01*
X146528971Y-44220164D01*
X146467207Y-44248453D01*
X146416559Y-44273573D01*
X146382204Y-44292819D01*
X146369318Y-44303488D01*
X146369314Y-44303574D01*
X146380672Y-44326806D01*
X146407231Y-44352414D01*
X146437723Y-44370861D01*
X146453170Y-44374526D01*
X146495315Y-44361852D01*
X146531608Y-44330111D01*
X146549317Y-44295212D01*
X146566352Y-44269485D01*
X146599722Y-44240186D01*
X146638949Y-44214875D01*
X146673556Y-44201111D01*
X146680793Y-44200354D01*
X146688939Y-44212800D01*
X146689430Y-44244612D01*
X146683443Y-44287506D01*
X146672157Y-44333198D01*
X146656750Y-44373401D01*
X146655971Y-44374962D01*
X146609604Y-44439702D01*
X146549511Y-44483737D01*
X146481265Y-44505351D01*
X146410438Y-44502825D01*
X146342604Y-44474444D01*
X146339588Y-44472448D01*
X146286227Y-44424088D01*
X146251140Y-44360992D01*
X146231722Y-44278027D01*
X146229116Y-44254718D01*
X146224501Y-44144695D01*
X146230033Y-44093388D01*
X146369314Y-44093388D01*
X146371124Y-44125393D01*
X146381022Y-44134733D01*
X146405698Y-44127745D01*
X146444595Y-44111227D01*
X146488075Y-44090521D01*
X146489156Y-44089973D01*
X146526009Y-44070589D01*
X146540800Y-44057653D01*
X146537153Y-44044091D01*
X146521795Y-44026272D01*
X146482723Y-44000485D01*
X146440646Y-43998590D01*
X146402903Y-44017357D01*
X146376834Y-44053555D01*
X146369314Y-44093388D01*
X146230033Y-44093388D01*
X146233994Y-44056667D01*
X146258350Y-43986852D01*
X146292256Y-43937942D01*
X146353453Y-43888518D01*
X146420863Y-43863999D01*
X146489680Y-43862437D01*
X146555103Y-43881879D01*
G36*
X147762686Y-43801929D02*
G01*
X147766939Y-43861253D01*
X147771825Y-43896212D01*
X147778595Y-43911460D01*
X147788502Y-43911655D01*
X147791714Y-43909835D01*
X147834444Y-43896655D01*
X147890027Y-43897425D01*
X147946537Y-43910973D01*
X147981882Y-43928501D01*
X148018121Y-43956501D01*
X148044613Y-43988189D01*
X148062799Y-44028453D01*
X148074122Y-44082183D01*
X148080022Y-44154266D01*
X148081943Y-44249591D01*
X148081977Y-44267877D01*
X148082000Y-44473286D01*
X148036291Y-44489220D01*
X148003827Y-44500060D01*
X147986015Y-44505108D01*
X147985491Y-44505154D01*
X147983737Y-44491468D01*
X147982244Y-44453716D01*
X147981126Y-44396864D01*
X147980497Y-44325874D01*
X147980400Y-44282713D01*
X147980198Y-44197613D01*
X147979158Y-44136621D01*
X147976631Y-44094817D01*
X147971964Y-44067282D01*
X147964507Y-44049096D01*
X147953611Y-44035338D01*
X147946807Y-44028713D01*
X147900072Y-44002015D01*
X147849072Y-44000015D01*
X147802801Y-44022595D01*
X147794244Y-44030747D01*
X147781693Y-44046076D01*
X147772988Y-44064258D01*
X147767431Y-44090549D01*
X147764326Y-44130202D01*
X147762976Y-44188472D01*
X147762686Y-44268813D01*
X147762686Y-44473286D01*
X147716977Y-44489220D01*
X147684513Y-44500060D01*
X147666701Y-44505108D01*
X147666177Y-44505154D01*
X147664837Y-44491263D01*
X147663628Y-44452079D01*
X147662601Y-44391340D01*
X147661802Y-44312781D01*
X147661281Y-44220138D01*
X147661086Y-44117149D01*
X147661086Y-43719982D01*
X147708257Y-43700084D01*
X147755429Y-43680187D01*
X147762686Y-43801929D01*
G37*
X147762686Y-43801929D02*
X147766939Y-43861253D01*
X147771825Y-43896212D01*
X147778595Y-43911460D01*
X147788502Y-43911655D01*
X147791714Y-43909835D01*
X147834444Y-43896655D01*
X147890027Y-43897425D01*
X147946537Y-43910973D01*
X147981882Y-43928501D01*
X148018121Y-43956501D01*
X148044613Y-43988189D01*
X148062799Y-44028453D01*
X148074122Y-44082183D01*
X148080022Y-44154266D01*
X148081943Y-44249591D01*
X148081977Y-44267877D01*
X148082000Y-44473286D01*
X148036291Y-44489220D01*
X148003827Y-44500060D01*
X147986015Y-44505108D01*
X147985491Y-44505154D01*
X147983737Y-44491468D01*
X147982244Y-44453716D01*
X147981126Y-44396864D01*
X147980497Y-44325874D01*
X147980400Y-44282713D01*
X147980198Y-44197613D01*
X147979158Y-44136621D01*
X147976631Y-44094817D01*
X147971964Y-44067282D01*
X147964507Y-44049096D01*
X147953611Y-44035338D01*
X147946807Y-44028713D01*
X147900072Y-44002015D01*
X147849072Y-44000015D01*
X147802801Y-44022595D01*
X147794244Y-44030747D01*
X147781693Y-44046076D01*
X147772988Y-44064258D01*
X147767431Y-44090549D01*
X147764326Y-44130202D01*
X147762976Y-44188472D01*
X147762686Y-44268813D01*
X147762686Y-44473286D01*
X147716977Y-44489220D01*
X147684513Y-44500060D01*
X147666701Y-44505108D01*
X147666177Y-44505154D01*
X147664837Y-44491263D01*
X147663628Y-44452079D01*
X147662601Y-44391340D01*
X147661802Y-44312781D01*
X147661281Y-44220138D01*
X147661086Y-44117149D01*
X147661086Y-43719982D01*
X147708257Y-43700084D01*
X147755429Y-43680187D01*
X147762686Y-43801929D01*
G36*
X148426544Y-43901608D02*
G01*
X148483416Y-43922727D01*
X148484067Y-43923133D01*
X148519240Y-43949020D01*
X148545207Y-43979273D01*
X148563470Y-44018698D01*
X148575532Y-44072102D01*
X148582896Y-44144291D01*
X148587064Y-44240072D01*
X148587429Y-44253718D01*
X148592676Y-44459482D01*
X148548516Y-44482318D01*
X148516563Y-44497750D01*
X148497270Y-44505063D01*
X148496378Y-44505154D01*
X148493039Y-44491662D01*
X148490387Y-44455266D01*
X148488756Y-44402092D01*
X148488400Y-44359033D01*
X148488392Y-44289281D01*
X148485203Y-44245477D01*
X148474088Y-44224584D01*
X148450301Y-44223565D01*
X148409096Y-44239381D01*
X148346886Y-44268455D01*
X148301141Y-44292603D01*
X148277613Y-44313553D01*
X148270696Y-44336387D01*
X148270686Y-44337517D01*
X148282099Y-44376852D01*
X148315892Y-44398102D01*
X148367609Y-44401179D01*
X148404861Y-44400646D01*
X148424503Y-44411375D01*
X148436752Y-44437145D01*
X148443802Y-44469977D01*
X148433642Y-44488606D01*
X148429817Y-44491272D01*
X148393801Y-44501980D01*
X148343366Y-44503496D01*
X148291426Y-44496399D01*
X148254622Y-44483428D01*
X148203738Y-44440225D01*
X148174814Y-44380086D01*
X148169086Y-44333102D01*
X148173457Y-44290722D01*
X148189275Y-44256128D01*
X148220597Y-44225403D01*
X148271478Y-44194630D01*
X148345976Y-44159892D01*
X148350514Y-44157928D01*
X148417621Y-44126927D01*
X148459032Y-44101502D01*
X148476781Y-44078654D01*
X148472907Y-44055385D01*
X148449443Y-44028696D01*
X148442427Y-44022554D01*
X148395430Y-43998740D01*
X148346733Y-43999743D01*
X148304322Y-44023091D01*
X148276184Y-44066315D01*
X148273569Y-44074800D01*
X148248108Y-44115948D01*
X148215801Y-44135768D01*
X148169086Y-44155410D01*
X148169086Y-44104590D01*
X148183296Y-44030722D01*
X148225475Y-43962967D01*
X148247424Y-43940301D01*
X148297317Y-43911209D01*
X148360767Y-43898040D01*
X148426544Y-43901608D01*
G37*
X148426544Y-43901608D02*
X148483416Y-43922727D01*
X148484067Y-43923133D01*
X148519240Y-43949020D01*
X148545207Y-43979273D01*
X148563470Y-44018698D01*
X148575532Y-44072102D01*
X148582896Y-44144291D01*
X148587064Y-44240072D01*
X148587429Y-44253718D01*
X148592676Y-44459482D01*
X148548516Y-44482318D01*
X148516563Y-44497750D01*
X148497270Y-44505063D01*
X148496378Y-44505154D01*
X148493039Y-44491662D01*
X148490387Y-44455266D01*
X148488756Y-44402092D01*
X148488400Y-44359033D01*
X148488392Y-44289281D01*
X148485203Y-44245477D01*
X148474088Y-44224584D01*
X148450301Y-44223565D01*
X148409096Y-44239381D01*
X148346886Y-44268455D01*
X148301141Y-44292603D01*
X148277613Y-44313553D01*
X148270696Y-44336387D01*
X148270686Y-44337517D01*
X148282099Y-44376852D01*
X148315892Y-44398102D01*
X148367609Y-44401179D01*
X148404861Y-44400646D01*
X148424503Y-44411375D01*
X148436752Y-44437145D01*
X148443802Y-44469977D01*
X148433642Y-44488606D01*
X148429817Y-44491272D01*
X148393801Y-44501980D01*
X148343366Y-44503496D01*
X148291426Y-44496399D01*
X148254622Y-44483428D01*
X148203738Y-44440225D01*
X148174814Y-44380086D01*
X148169086Y-44333102D01*
X148173457Y-44290722D01*
X148189275Y-44256128D01*
X148220597Y-44225403D01*
X148271478Y-44194630D01*
X148345976Y-44159892D01*
X148350514Y-44157928D01*
X148417621Y-44126927D01*
X148459032Y-44101502D01*
X148476781Y-44078654D01*
X148472907Y-44055385D01*
X148449443Y-44028696D01*
X148442427Y-44022554D01*
X148395430Y-43998740D01*
X148346733Y-43999743D01*
X148304322Y-44023091D01*
X148276184Y-44066315D01*
X148273569Y-44074800D01*
X148248108Y-44115948D01*
X148215801Y-44135768D01*
X148169086Y-44155410D01*
X148169086Y-44104590D01*
X148183296Y-44030722D01*
X148225475Y-43962967D01*
X148247424Y-43940301D01*
X148297317Y-43911209D01*
X148360767Y-43898040D01*
X148426544Y-43901608D01*
G36*
X148916726Y-43900395D02*
G01*
X148982658Y-43924724D01*
X149036073Y-43967757D01*
X149056964Y-43998049D01*
X149079739Y-44053634D01*
X149079266Y-44093826D01*
X149055362Y-44120857D01*
X149046517Y-44125453D01*
X149008330Y-44139784D01*
X148988828Y-44136112D01*
X148982222Y-44112047D01*
X148981886Y-44098754D01*
X148969792Y-44049850D01*
X148938271Y-44015639D01*
X148894459Y-43999116D01*
X148845495Y-44003274D01*
X148805694Y-44024867D01*
X148792250Y-44037184D01*
X148782721Y-44052127D01*
X148776285Y-44074715D01*
X148772117Y-44109968D01*
X148769397Y-44162906D01*
X148767302Y-44238547D01*
X148766760Y-44262497D01*
X148764781Y-44344430D01*
X148762531Y-44402095D01*
X148759157Y-44440248D01*
X148753806Y-44463644D01*
X148745624Y-44477038D01*
X148733759Y-44485185D01*
X148726162Y-44488784D01*
X148693902Y-44501092D01*
X148674911Y-44505154D01*
X148668636Y-44491588D01*
X148664806Y-44450574D01*
X148663400Y-44381639D01*
X148664398Y-44284309D01*
X148664708Y-44269297D01*
X148666901Y-44180499D01*
X148669493Y-44115659D01*
X148673182Y-44069707D01*
X148678664Y-44037575D01*
X148686635Y-44014193D01*
X148697793Y-43994492D01*
X148703630Y-43986050D01*
X148737096Y-43948697D01*
X148774527Y-43919643D01*
X148779109Y-43917107D01*
X148846226Y-43897083D01*
X148916726Y-43900395D01*
G37*
X148916726Y-43900395D02*
X148982658Y-43924724D01*
X149036073Y-43967757D01*
X149056964Y-43998049D01*
X149079739Y-44053634D01*
X149079266Y-44093826D01*
X149055362Y-44120857D01*
X149046517Y-44125453D01*
X149008330Y-44139784D01*
X148988828Y-44136112D01*
X148982222Y-44112047D01*
X148981886Y-44098754D01*
X148969792Y-44049850D01*
X148938271Y-44015639D01*
X148894459Y-43999116D01*
X148845495Y-44003274D01*
X148805694Y-44024867D01*
X148792250Y-44037184D01*
X148782721Y-44052127D01*
X148776285Y-44074715D01*
X148772117Y-44109968D01*
X148769397Y-44162906D01*
X148767302Y-44238547D01*
X148766760Y-44262497D01*
X148764781Y-44344430D01*
X148762531Y-44402095D01*
X148759157Y-44440248D01*
X148753806Y-44463644D01*
X148745624Y-44477038D01*
X148733759Y-44485185D01*
X148726162Y-44488784D01*
X148693902Y-44501092D01*
X148674911Y-44505154D01*
X148668636Y-44491588D01*
X148664806Y-44450574D01*
X148663400Y-44381639D01*
X148664398Y-44284309D01*
X148664708Y-44269297D01*
X148666901Y-44180499D01*
X148669493Y-44115659D01*
X148673182Y-44069707D01*
X148678664Y-44037575D01*
X148686635Y-44014193D01*
X148697793Y-43994492D01*
X148703630Y-43986050D01*
X148737096Y-43948697D01*
X148774527Y-43919643D01*
X148779109Y-43917107D01*
X148846226Y-43897083D01*
X148916726Y-43900395D01*
G36*
X149576917Y-44015998D02*
G01*
X149576733Y-44124477D01*
X149576019Y-44207927D01*
X149574475Y-44270344D01*
X149571801Y-44315725D01*
X149567694Y-44348069D01*
X149561855Y-44371373D01*
X149553982Y-44389635D01*
X149548021Y-44400058D01*
X149498655Y-44456585D01*
X149436064Y-44492017D01*
X149366813Y-44504730D01*
X149297468Y-44493103D01*
X149256175Y-44472208D01*
X149212825Y-44436062D01*
X149183281Y-44391916D01*
X149165455Y-44334102D01*
X149157263Y-44256953D01*
X149156102Y-44200354D01*
X149156258Y-44196287D01*
X149257657Y-44196287D01*
X149258276Y-44261190D01*
X149261114Y-44304154D01*
X149267640Y-44332262D01*
X149279323Y-44352593D01*
X149293283Y-44367928D01*
X149340165Y-44397530D01*
X149390501Y-44400059D01*
X149438076Y-44375345D01*
X149441779Y-44371996D01*
X149457583Y-44354575D01*
X149467493Y-44333849D01*
X149472858Y-44303002D01*
X149475028Y-44255217D01*
X149475371Y-44202388D01*
X149474627Y-44136021D01*
X149471548Y-44091746D01*
X149464861Y-44062649D01*
X149453296Y-44041813D01*
X149443813Y-44030747D01*
X149399760Y-44002838D01*
X149349024Y-43999483D01*
X149300596Y-44020799D01*
X149291250Y-44028713D01*
X149275340Y-44046287D01*
X149265410Y-44067227D01*
X149260078Y-44098422D01*
X149257963Y-44146762D01*
X149257657Y-44196287D01*
X149156258Y-44196287D01*
X149159610Y-44109208D01*
X149171526Y-44040726D01*
X149193935Y-43989240D01*
X149228924Y-43949083D01*
X149256175Y-43928501D01*
X149305707Y-43906265D01*
X149363116Y-43895944D01*
X149416482Y-43898707D01*
X149446343Y-43909852D01*
X149458061Y-43913023D01*
X149465837Y-43901197D01*
X149471265Y-43869506D01*
X149475371Y-43821233D01*
X149479867Y-43767469D01*
X149486113Y-43735122D01*
X149497476Y-43716625D01*
X149517328Y-43704410D01*
X149529800Y-43699002D01*
X149576971Y-43679241D01*
X149576917Y-44015998D01*
G37*
X149576917Y-44015998D02*
X149576733Y-44124477D01*
X149576019Y-44207927D01*
X149574475Y-44270344D01*
X149571801Y-44315725D01*
X149567694Y-44348069D01*
X149561855Y-44371373D01*
X149553982Y-44389635D01*
X149548021Y-44400058D01*
X149498655Y-44456585D01*
X149436064Y-44492017D01*
X149366813Y-44504730D01*
X149297468Y-44493103D01*
X149256175Y-44472208D01*
X149212825Y-44436062D01*
X149183281Y-44391916D01*
X149165455Y-44334102D01*
X149157263Y-44256953D01*
X149156102Y-44200354D01*
X149156258Y-44196287D01*
X149257657Y-44196287D01*
X149258276Y-44261190D01*
X149261114Y-44304154D01*
X149267640Y-44332262D01*
X149279323Y-44352593D01*
X149293283Y-44367928D01*
X149340165Y-44397530D01*
X149390501Y-44400059D01*
X149438076Y-44375345D01*
X149441779Y-44371996D01*
X149457583Y-44354575D01*
X149467493Y-44333849D01*
X149472858Y-44303002D01*
X149475028Y-44255217D01*
X149475371Y-44202388D01*
X149474627Y-44136021D01*
X149471548Y-44091746D01*
X149464861Y-44062649D01*
X149453296Y-44041813D01*
X149443813Y-44030747D01*
X149399760Y-44002838D01*
X149349024Y-43999483D01*
X149300596Y-44020799D01*
X149291250Y-44028713D01*
X149275340Y-44046287D01*
X149265410Y-44067227D01*
X149260078Y-44098422D01*
X149257963Y-44146762D01*
X149257657Y-44196287D01*
X149156258Y-44196287D01*
X149159610Y-44109208D01*
X149171526Y-44040726D01*
X149193935Y-43989240D01*
X149228924Y-43949083D01*
X149256175Y-43928501D01*
X149305707Y-43906265D01*
X149363116Y-43895944D01*
X149416482Y-43898707D01*
X149446343Y-43909852D01*
X149458061Y-43913023D01*
X149465837Y-43901197D01*
X149471265Y-43869506D01*
X149475371Y-43821233D01*
X149479867Y-43767469D01*
X149486113Y-43735122D01*
X149497476Y-43716625D01*
X149517328Y-43704410D01*
X149529800Y-43699002D01*
X149576971Y-43679241D01*
X149576917Y-44015998D01*
G36*
X150166633Y-43909303D02*
G01*
X150168848Y-43947490D01*
X150170584Y-44005526D01*
X150171699Y-44078820D01*
X150172057Y-44155695D01*
X150172057Y-44415836D01*
X150126126Y-44461767D01*
X150094475Y-44490069D01*
X150066690Y-44501533D01*
X150028715Y-44500808D01*
X150013640Y-44498961D01*
X149966526Y-44493588D01*
X149927556Y-44490509D01*
X149918057Y-44490225D01*
X149886033Y-44492085D01*
X149840232Y-44496754D01*
X149822474Y-44498961D01*
X149778857Y-44502375D01*
X149749545Y-44494960D01*
X149720480Y-44472067D01*
X149709988Y-44461767D01*
X149664057Y-44415836D01*
X149664057Y-43929242D01*
X149701026Y-43912398D01*
X149732859Y-43899922D01*
X149751483Y-43895554D01*
X149756258Y-43909358D01*
X149760721Y-43947926D01*
X149764575Y-44006996D01*
X149767522Y-44082303D01*
X149768943Y-44145926D01*
X149772914Y-44396297D01*
X149807559Y-44401196D01*
X149839068Y-44397771D01*
X149854508Y-44386681D01*
X149858823Y-44365948D01*
X149862508Y-44321785D01*
X149865269Y-44259786D01*
X149866812Y-44185549D01*
X149867035Y-44147346D01*
X149867257Y-43927423D01*
X149912966Y-43911489D01*
X149945318Y-43900655D01*
X149962915Y-43895602D01*
X149963423Y-43895554D01*
X149965188Y-43909288D01*
X149967129Y-43947370D01*
X149969082Y-44005122D01*
X149970884Y-44077867D01*
X149972143Y-44145926D01*
X149976114Y-44396297D01*
X150063200Y-44396297D01*
X150067196Y-44167880D01*
X150071192Y-43939462D01*
X150113647Y-43917508D01*
X150144992Y-43902433D01*
X150163544Y-43895591D01*
X150164079Y-43895554D01*
X150166633Y-43909303D01*
G37*
X150166633Y-43909303D02*
X150168848Y-43947490D01*
X150170584Y-44005526D01*
X150171699Y-44078820D01*
X150172057Y-44155695D01*
X150172057Y-44415836D01*
X150126126Y-44461767D01*
X150094475Y-44490069D01*
X150066690Y-44501533D01*
X150028715Y-44500808D01*
X150013640Y-44498961D01*
X149966526Y-44493588D01*
X149927556Y-44490509D01*
X149918057Y-44490225D01*
X149886033Y-44492085D01*
X149840232Y-44496754D01*
X149822474Y-44498961D01*
X149778857Y-44502375D01*
X149749545Y-44494960D01*
X149720480Y-44472067D01*
X149709988Y-44461767D01*
X149664057Y-44415836D01*
X149664057Y-43929242D01*
X149701026Y-43912398D01*
X149732859Y-43899922D01*
X149751483Y-43895554D01*
X149756258Y-43909358D01*
X149760721Y-43947926D01*
X149764575Y-44006996D01*
X149767522Y-44082303D01*
X149768943Y-44145926D01*
X149772914Y-44396297D01*
X149807559Y-44401196D01*
X149839068Y-44397771D01*
X149854508Y-44386681D01*
X149858823Y-44365948D01*
X149862508Y-44321785D01*
X149865269Y-44259786D01*
X149866812Y-44185549D01*
X149867035Y-44147346D01*
X149867257Y-43927423D01*
X149912966Y-43911489D01*
X149945318Y-43900655D01*
X149962915Y-43895602D01*
X149963423Y-43895554D01*
X149965188Y-43909288D01*
X149967129Y-43947370D01*
X149969082Y-44005122D01*
X149970884Y-44077867D01*
X149972143Y-44145926D01*
X149976114Y-44396297D01*
X150063200Y-44396297D01*
X150067196Y-44167880D01*
X150071192Y-43939462D01*
X150113647Y-43917508D01*
X150144992Y-43902433D01*
X150163544Y-43895591D01*
X150164079Y-43895554D01*
X150166633Y-43909303D01*
G36*
X150531676Y-43906975D02*
G01*
X150573467Y-43925984D01*
X150606269Y-43949018D01*
X150630303Y-43974773D01*
X150646897Y-44007998D01*
X150657377Y-44053440D01*
X150663071Y-44115847D01*
X150665307Y-44199967D01*
X150665543Y-44255361D01*
X150665543Y-44471466D01*
X150628574Y-44488310D01*
X150599456Y-44500621D01*
X150585031Y-44505154D01*
X150582272Y-44491665D01*
X150580082Y-44455293D01*
X150578742Y-44402182D01*
X150578457Y-44360012D01*
X150577234Y-44299087D01*
X150573936Y-44250755D01*
X150569121Y-44221158D01*
X150565296Y-44214869D01*
X150539583Y-44221292D01*
X150499218Y-44237765D01*
X150452479Y-44260098D01*
X150407645Y-44284097D01*
X150372993Y-44305570D01*
X150356802Y-44320325D01*
X150356738Y-44320485D01*
X150358130Y-44347792D01*
X150370618Y-44373859D01*
X150392543Y-44395032D01*
X150424543Y-44402114D01*
X150451892Y-44401289D01*
X150490626Y-44400682D01*
X150510958Y-44409756D01*
X150523169Y-44433732D01*
X150524709Y-44438253D01*
X150530003Y-44472446D01*
X150515847Y-44493208D01*
X150478948Y-44503102D01*
X150439089Y-44504932D01*
X150367362Y-44491367D01*
X150330232Y-44471995D01*
X150284376Y-44426485D01*
X150260056Y-44370623D01*
X150257873Y-44311597D01*
X150278429Y-44256593D01*
X150309349Y-44222126D01*
X150340220Y-44202829D01*
X150388742Y-44178399D01*
X150445285Y-44153625D01*
X150454710Y-44149839D01*
X150516819Y-44122431D01*
X150552622Y-44098274D01*
X150564137Y-44074259D01*
X150553380Y-44047275D01*
X150534914Y-44026183D01*
X150491269Y-44000212D01*
X150443246Y-43998264D01*
X150399206Y-44018277D01*
X150367509Y-44058191D01*
X150363349Y-44068488D01*
X150339127Y-44106364D01*
X150303765Y-44134482D01*
X150259143Y-44157557D01*
X150259143Y-44092125D01*
X150261769Y-44052146D01*
X150273030Y-44020637D01*
X150297999Y-43987018D01*
X150321969Y-43961124D01*
X150359241Y-43924457D01*
X150388201Y-43904761D01*
X150419305Y-43896860D01*
X150454513Y-43895554D01*
X150531676Y-43906975D01*
G37*
X150531676Y-43906975D02*
X150573467Y-43925984D01*
X150606269Y-43949018D01*
X150630303Y-43974773D01*
X150646897Y-44007998D01*
X150657377Y-44053440D01*
X150663071Y-44115847D01*
X150665307Y-44199967D01*
X150665543Y-44255361D01*
X150665543Y-44471466D01*
X150628574Y-44488310D01*
X150599456Y-44500621D01*
X150585031Y-44505154D01*
X150582272Y-44491665D01*
X150580082Y-44455293D01*
X150578742Y-44402182D01*
X150578457Y-44360012D01*
X150577234Y-44299087D01*
X150573936Y-44250755D01*
X150569121Y-44221158D01*
X150565296Y-44214869D01*
X150539583Y-44221292D01*
X150499218Y-44237765D01*
X150452479Y-44260098D01*
X150407645Y-44284097D01*
X150372993Y-44305570D01*
X150356802Y-44320325D01*
X150356738Y-44320485D01*
X150358130Y-44347792D01*
X150370618Y-44373859D01*
X150392543Y-44395032D01*
X150424543Y-44402114D01*
X150451892Y-44401289D01*
X150490626Y-44400682D01*
X150510958Y-44409756D01*
X150523169Y-44433732D01*
X150524709Y-44438253D01*
X150530003Y-44472446D01*
X150515847Y-44493208D01*
X150478948Y-44503102D01*
X150439089Y-44504932D01*
X150367362Y-44491367D01*
X150330232Y-44471995D01*
X150284376Y-44426485D01*
X150260056Y-44370623D01*
X150257873Y-44311597D01*
X150278429Y-44256593D01*
X150309349Y-44222126D01*
X150340220Y-44202829D01*
X150388742Y-44178399D01*
X150445285Y-44153625D01*
X150454710Y-44149839D01*
X150516819Y-44122431D01*
X150552622Y-44098274D01*
X150564137Y-44074259D01*
X150553380Y-44047275D01*
X150534914Y-44026183D01*
X150491269Y-44000212D01*
X150443246Y-43998264D01*
X150399206Y-44018277D01*
X150367509Y-44058191D01*
X150363349Y-44068488D01*
X150339127Y-44106364D01*
X150303765Y-44134482D01*
X150259143Y-44157557D01*
X150259143Y-44092125D01*
X150261769Y-44052146D01*
X150273030Y-44020637D01*
X150297999Y-43987018D01*
X150321969Y-43961124D01*
X150359241Y-43924457D01*
X150388201Y-43904761D01*
X150419305Y-43896860D01*
X150454513Y-43895554D01*
X150531676Y-43906975D01*
G36*
X151039400Y-43909392D02*
G01*
X151056748Y-43916974D01*
X151098156Y-43949768D01*
X151133565Y-43997187D01*
X151155464Y-44047791D01*
X151159029Y-44072738D01*
X151147079Y-44107567D01*
X151120867Y-44125997D01*
X151092764Y-44137156D01*
X151079895Y-44139212D01*
X151073629Y-44124289D01*
X151061256Y-44091815D01*
X151055828Y-44077142D01*
X151025390Y-44026384D01*
X150981320Y-44001067D01*
X150924810Y-44001846D01*
X150920625Y-44002843D01*
X150890455Y-44017147D01*
X150868276Y-44045033D01*
X150853127Y-44089927D01*
X150844050Y-44155255D01*
X150840086Y-44244444D01*
X150839714Y-44291901D01*
X150839530Y-44366711D01*
X150838322Y-44417709D01*
X150835109Y-44450111D01*
X150828909Y-44469135D01*
X150818740Y-44479996D01*
X150803619Y-44487912D01*
X150802746Y-44488310D01*
X150773628Y-44500621D01*
X150759203Y-44505154D01*
X150756986Y-44491449D01*
X150755089Y-44453565D01*
X150753647Y-44396355D01*
X150752798Y-44324667D01*
X150752629Y-44272205D01*
X150753492Y-44170687D01*
X150756870Y-44093672D01*
X150763942Y-44036663D01*
X150775888Y-43995166D01*
X150793890Y-43964683D01*
X150819127Y-43940720D01*
X150844047Y-43923995D01*
X150903971Y-43901737D01*
X150973711Y-43896716D01*
X151039400Y-43909392D01*
G37*
X151039400Y-43909392D02*
X151056748Y-43916974D01*
X151098156Y-43949768D01*
X151133565Y-43997187D01*
X151155464Y-44047791D01*
X151159029Y-44072738D01*
X151147079Y-44107567D01*
X151120867Y-44125997D01*
X151092764Y-44137156D01*
X151079895Y-44139212D01*
X151073629Y-44124289D01*
X151061256Y-44091815D01*
X151055828Y-44077142D01*
X151025390Y-44026384D01*
X150981320Y-44001067D01*
X150924810Y-44001846D01*
X150920625Y-44002843D01*
X150890455Y-44017147D01*
X150868276Y-44045033D01*
X150853127Y-44089927D01*
X150844050Y-44155255D01*
X150840086Y-44244444D01*
X150839714Y-44291901D01*
X150839530Y-44366711D01*
X150838322Y-44417709D01*
X150835109Y-44450111D01*
X150828909Y-44469135D01*
X150818740Y-44479996D01*
X150803619Y-44487912D01*
X150802746Y-44488310D01*
X150773628Y-44500621D01*
X150759203Y-44505154D01*
X150756986Y-44491449D01*
X150755089Y-44453565D01*
X150753647Y-44396355D01*
X150752798Y-44324667D01*
X150752629Y-44272205D01*
X150753492Y-44170687D01*
X150756870Y-44093672D01*
X150763942Y-44036663D01*
X150775888Y-43995166D01*
X150793890Y-43964683D01*
X150819127Y-43940720D01*
X150844047Y-43923995D01*
X150903971Y-43901737D01*
X150973711Y-43896716D01*
X151039400Y-43909392D01*
G36*
X151540395Y-43917606D02*
G01*
X151597821Y-43955137D01*
X151625519Y-43988736D01*
X151647462Y-44049704D01*
X151649205Y-44097948D01*
X151645257Y-44162456D01*
X151496486Y-44227574D01*
X151424149Y-44260842D01*
X151376884Y-44287604D01*
X151352307Y-44310784D01*
X151348037Y-44333307D01*
X151361689Y-44358095D01*
X151376743Y-44374526D01*
X151420546Y-44400875D01*
X151468189Y-44402721D01*
X151511945Y-44382186D01*
X151544089Y-44341392D01*
X151549838Y-44326987D01*
X151577376Y-44281996D01*
X151609058Y-44262822D01*
X151652514Y-44246419D01*
X151652514Y-44308606D01*
X151648672Y-44350923D01*
X151633623Y-44386609D01*
X151602080Y-44427583D01*
X151597392Y-44432907D01*
X151562306Y-44469360D01*
X151532147Y-44488923D01*
X151494415Y-44497923D01*
X151463135Y-44500870D01*
X151407185Y-44501605D01*
X151367355Y-44492300D01*
X151342508Y-44478486D01*
X151303456Y-44448107D01*
X151276425Y-44415253D01*
X151259317Y-44373934D01*
X151250038Y-44318161D01*
X151246493Y-44241945D01*
X151246210Y-44203262D01*
X151247172Y-44156887D01*
X151334807Y-44156887D01*
X151335823Y-44181766D01*
X151338356Y-44185840D01*
X151355074Y-44180305D01*
X151391049Y-44165657D01*
X151439131Y-44144830D01*
X151449186Y-44140354D01*
X151509952Y-44109454D01*
X151543432Y-44082297D01*
X151550790Y-44056860D01*
X151533191Y-44031121D01*
X151518656Y-44019749D01*
X151466210Y-43997004D01*
X151417122Y-44000762D01*
X151376027Y-44028524D01*
X151347558Y-44077792D01*
X151338431Y-44116897D01*
X151334807Y-44156887D01*
X151247172Y-44156887D01*
X151248085Y-44112889D01*
X151254996Y-44046024D01*
X151268684Y-43997335D01*
X151290896Y-43961489D01*
X151323374Y-43933153D01*
X151337533Y-43923995D01*
X151401853Y-43900147D01*
X151472273Y-43898646D01*
X151540395Y-43917606D01*
G37*
X151540395Y-43917606D02*
X151597821Y-43955137D01*
X151625519Y-43988736D01*
X151647462Y-44049704D01*
X151649205Y-44097948D01*
X151645257Y-44162456D01*
X151496486Y-44227574D01*
X151424149Y-44260842D01*
X151376884Y-44287604D01*
X151352307Y-44310784D01*
X151348037Y-44333307D01*
X151361689Y-44358095D01*
X151376743Y-44374526D01*
X151420546Y-44400875D01*
X151468189Y-44402721D01*
X151511945Y-44382186D01*
X151544089Y-44341392D01*
X151549838Y-44326987D01*
X151577376Y-44281996D01*
X151609058Y-44262822D01*
X151652514Y-44246419D01*
X151652514Y-44308606D01*
X151648672Y-44350923D01*
X151633623Y-44386609D01*
X151602080Y-44427583D01*
X151597392Y-44432907D01*
X151562306Y-44469360D01*
X151532147Y-44488923D01*
X151494415Y-44497923D01*
X151463135Y-44500870D01*
X151407185Y-44501605D01*
X151367355Y-44492300D01*
X151342508Y-44478486D01*
X151303456Y-44448107D01*
X151276425Y-44415253D01*
X151259317Y-44373934D01*
X151250038Y-44318161D01*
X151246493Y-44241945D01*
X151246210Y-44203262D01*
X151247172Y-44156887D01*
X151334807Y-44156887D01*
X151335823Y-44181766D01*
X151338356Y-44185840D01*
X151355074Y-44180305D01*
X151391049Y-44165657D01*
X151439131Y-44144830D01*
X151449186Y-44140354D01*
X151509952Y-44109454D01*
X151543432Y-44082297D01*
X151550790Y-44056860D01*
X151533191Y-44031121D01*
X151518656Y-44019749D01*
X151466210Y-43997004D01*
X151417122Y-44000762D01*
X151376027Y-44028524D01*
X151347558Y-44077792D01*
X151338431Y-44116897D01*
X151334807Y-44156887D01*
X151247172Y-44156887D01*
X151248085Y-44112889D01*
X151254996Y-44046024D01*
X151268684Y-43997335D01*
X151290896Y-43961489D01*
X151323374Y-43933153D01*
X151337533Y-43923995D01*
X151401853Y-43900147D01*
X151472273Y-43898646D01*
X151540395Y-43917606D01*
G36*
X148490710Y-39192988D02*
G01*
X148569254Y-39193418D01*
X148626098Y-39194582D01*
X148664905Y-39196847D01*
X148689338Y-39200580D01*
X148703062Y-39206146D01*
X148709740Y-39213913D01*
X148713036Y-39224245D01*
X148713356Y-39225583D01*
X148718362Y-39249719D01*
X148727629Y-39297341D01*
X148740192Y-39363381D01*
X148755087Y-39442768D01*
X148771351Y-39530436D01*
X148771919Y-39533515D01*
X148788210Y-39619429D01*
X148803452Y-39695336D01*
X148816661Y-39756685D01*
X148826854Y-39798922D01*
X148833048Y-39817495D01*
X148833343Y-39817824D01*
X148851588Y-39826893D01*
X148889205Y-39842007D01*
X148938071Y-39859902D01*
X148938343Y-39859998D01*
X148999893Y-39883133D01*
X149072457Y-39912605D01*
X149140857Y-39942237D01*
X149144094Y-39943702D01*
X149255502Y-39994266D01*
X149502199Y-39825800D01*
X149577877Y-39774443D01*
X149646431Y-39728529D01*
X149703888Y-39690670D01*
X149746276Y-39663477D01*
X149769625Y-39649561D01*
X149771842Y-39648529D01*
X149788810Y-39653124D01*
X149820501Y-39675295D01*
X149868152Y-39716087D01*
X149932998Y-39776545D01*
X149999197Y-39840867D01*
X150063014Y-39904252D01*
X150120129Y-39962091D01*
X150167105Y-40010815D01*
X150200503Y-40046850D01*
X150216885Y-40066624D01*
X150217494Y-40067642D01*
X150219305Y-40081212D01*
X150212483Y-40103373D01*
X150195340Y-40137118D01*
X150166193Y-40185440D01*
X150123355Y-40251332D01*
X150066248Y-40336157D01*
X150015566Y-40410817D01*
X149970261Y-40477780D01*
X149932950Y-40533156D01*
X149906252Y-40573060D01*
X149892785Y-40593602D01*
X149891937Y-40594996D01*
X149893581Y-40614678D01*
X149906045Y-40652933D01*
X149926848Y-40702529D01*
X149934262Y-40718368D01*
X149966614Y-40788930D01*
X150001128Y-40868993D01*
X150029165Y-40938269D01*
X150049368Y-40989685D01*
X150065415Y-41028759D01*
X150074688Y-41049181D01*
X150075841Y-41050754D01*
X150092896Y-41053361D01*
X150133098Y-41060503D01*
X150191102Y-41071163D01*
X150261563Y-41084325D01*
X150339135Y-41098973D01*
X150418472Y-41114089D01*
X150494231Y-41128658D01*
X150561064Y-41141662D01*
X150613628Y-41152085D01*
X150646576Y-41158910D01*
X150654657Y-41160839D01*
X150663005Y-41165602D01*
X150669306Y-41176358D01*
X150673845Y-41196738D01*
X150676904Y-41230374D01*
X150678767Y-41280895D01*
X150679718Y-41351932D01*
X150680040Y-41447116D01*
X150680057Y-41486132D01*
X150680057Y-41803439D01*
X150603857Y-41818479D01*
X150561463Y-41826635D01*
X150498200Y-41838539D01*
X150421762Y-41852756D01*
X150339843Y-41867850D01*
X150317200Y-41871995D01*
X150241606Y-41886693D01*
X150175753Y-41901145D01*
X150125166Y-41914015D01*
X150095374Y-41923962D01*
X150090412Y-41926927D01*
X150078226Y-41947923D01*
X150060753Y-41988607D01*
X150041377Y-42040962D01*
X150037534Y-42052240D01*
X150012139Y-42122163D01*
X149980617Y-42201058D01*
X149949769Y-42271906D01*
X149949617Y-42272235D01*
X149898247Y-42383373D01*
X150067199Y-42631893D01*
X150236152Y-42880412D01*
X150019229Y-43097698D01*
X149953619Y-43162366D01*
X149893779Y-43219373D01*
X149843067Y-43265673D01*
X149804846Y-43298224D01*
X149782475Y-43313983D01*
X149779266Y-43314983D01*
X149760426Y-43307109D01*
X149721980Y-43285218D01*
X149668130Y-43251907D01*
X149603076Y-43209771D01*
X149532740Y-43162583D01*
X149461355Y-43114450D01*
X149397708Y-43072568D01*
X149345841Y-43039511D01*
X149309795Y-43017858D01*
X149293667Y-43010183D01*
X149273989Y-43016677D01*
X149236675Y-43033790D01*
X149189421Y-43057966D01*
X149184412Y-43060653D01*
X149120777Y-43092567D01*
X149077141Y-43108219D01*
X149050002Y-43108385D01*
X149035857Y-43093844D01*
X149035775Y-43093640D01*
X149028705Y-43076419D01*
X149011842Y-43035539D01*
X148986495Y-42974165D01*
X148953971Y-42895459D01*
X148915578Y-42802587D01*
X148872622Y-42698712D01*
X148831022Y-42598142D01*
X148785304Y-42487156D01*
X148743326Y-42384343D01*
X148706348Y-42292855D01*
X148675627Y-42215841D01*
X148652422Y-42156455D01*
X148637990Y-42117849D01*
X148633543Y-42103440D01*
X148644696Y-42086912D01*
X148673869Y-42060570D01*
X148712771Y-42031527D01*
X148823557Y-41939679D01*
X148910151Y-41834399D01*
X148971516Y-41717906D01*
X149006615Y-41592416D01*
X149014408Y-41460147D01*
X149008743Y-41399097D01*
X148977878Y-41272435D01*
X148924720Y-41160581D01*
X148852567Y-41064641D01*
X148764717Y-40985716D01*
X148664465Y-40924910D01*
X148555110Y-40883327D01*
X148439947Y-40862068D01*
X148322275Y-40862239D01*
X148205390Y-40884941D01*
X148092589Y-40931278D01*
X147987169Y-41002353D01*
X147943168Y-41042551D01*
X147858779Y-41145769D01*
X147800022Y-41258565D01*
X147766504Y-41377650D01*
X147757835Y-41499735D01*
X147773623Y-41621533D01*
X147813478Y-41739756D01*
X147877007Y-41851115D01*
X147963821Y-41952324D01*
X148060829Y-42031527D01*
X148101237Y-42061802D01*
X148129782Y-42087859D01*
X148140057Y-42103465D01*
X148134677Y-42120483D01*
X148119375Y-42161140D01*
X148095412Y-42222282D01*
X148064044Y-42300759D01*
X148026532Y-42393420D01*
X147984133Y-42497112D01*
X147942463Y-42598166D01*
X147896490Y-42709247D01*
X147853907Y-42812181D01*
X147816021Y-42903805D01*
X147784140Y-42980956D01*
X147759571Y-43040471D01*
X147743620Y-43079184D01*
X147737710Y-43093640D01*
X147723748Y-43108325D01*
X147696740Y-43108282D01*
X147653213Y-43092739D01*
X147589690Y-43060924D01*
X147589188Y-43060653D01*
X147541360Y-43035963D01*
X147502697Y-43017978D01*
X147480895Y-43010254D01*
X147479933Y-43010183D01*
X147463521Y-43018018D01*
X147427287Y-43039805D01*
X147375274Y-43072968D01*
X147311525Y-43114931D01*
X147240860Y-43162583D01*
X147168916Y-43210831D01*
X147104074Y-43252791D01*
X147050535Y-43285867D01*
X147012497Y-43307461D01*
X146994333Y-43314983D01*
X146977608Y-43305097D01*
X146943980Y-43277466D01*
X146896810Y-43235135D01*
X146839458Y-43181145D01*
X146775284Y-43118539D01*
X146754297Y-43097623D01*
X146537299Y-42880263D01*
X146702468Y-42637860D01*
X146752664Y-42563421D01*
X146796719Y-42496612D01*
X146832162Y-42441305D01*
X146856519Y-42401369D01*
X146867322Y-42380676D01*
X146867638Y-42379203D01*
X146861943Y-42359698D01*
X146846626Y-42320462D01*
X146824337Y-42268070D01*
X146808693Y-42232995D01*
X146779441Y-42165841D01*
X146751894Y-42097998D01*
X146730537Y-42040674D01*
X146724735Y-42023212D01*
X146708252Y-41976578D01*
X146692140Y-41940545D01*
X146683290Y-41926927D01*
X146663760Y-41918592D01*
X146621134Y-41906777D01*
X146560945Y-41892821D01*
X146488722Y-41878062D01*
X146456400Y-41871995D01*
X146374322Y-41856913D01*
X146295595Y-41842309D01*
X146227909Y-41829620D01*
X146178960Y-41820282D01*
X146169743Y-41818479D01*
X146093543Y-41803439D01*
X146093543Y-41486132D01*
X146093714Y-41381794D01*
X146094416Y-41302853D01*
X146095934Y-41245678D01*
X146098549Y-41206639D01*
X146102546Y-41182105D01*
X146108209Y-41168445D01*
X146115820Y-41162029D01*
X146118943Y-41160839D01*
X146137778Y-41156620D01*
X146179388Y-41148202D01*
X146238430Y-41136601D01*
X146309557Y-41122835D01*
X146387425Y-41107920D01*
X146466687Y-41092872D01*
X146541998Y-41078709D01*
X146608013Y-41066446D01*
X146659387Y-41057101D01*
X146690775Y-41051690D01*
X146697759Y-41050754D01*
X146704085Y-41038236D01*
X146718090Y-41004886D01*
X146737155Y-40957017D01*
X146744434Y-40938269D01*
X146773796Y-40865835D01*
X146808371Y-40785810D01*
X146839337Y-40718368D01*
X146862123Y-40666799D01*
X146877282Y-40624425D01*
X146882342Y-40598474D01*
X146881536Y-40594996D01*
X146870841Y-40578576D01*
X146846420Y-40542057D01*
X146810895Y-40489327D01*
X146766887Y-40424275D01*
X146717017Y-40350791D01*
X146707156Y-40336285D01*
X146649292Y-40250344D01*
X146606756Y-40184901D01*
X146577854Y-40136944D01*
X146560890Y-40103460D01*
X146554167Y-40081435D01*
X146555990Y-40067857D01*
X146556036Y-40067771D01*
X146570386Y-40049937D01*
X146602123Y-40015457D01*
X146647810Y-39967908D01*
X146704004Y-39910862D01*
X146767268Y-39847895D01*
X146774402Y-39840867D01*
X146854130Y-39763660D01*
X146915657Y-39706970D01*
X146960221Y-39669750D01*
X146989057Y-39650955D01*
X147001758Y-39648529D01*
X147020294Y-39659111D01*
X147058761Y-39683556D01*
X147113186Y-39719252D01*
X147179598Y-39763587D01*
X147254025Y-39813951D01*
X147271401Y-39825800D01*
X147518097Y-39994266D01*
X147629506Y-39943702D01*
X147697257Y-39914235D01*
X147769983Y-39884599D01*
X147832503Y-39860970D01*
X147835257Y-39859998D01*
X147884160Y-39842097D01*
X147921857Y-39826960D01*
X147940225Y-39817850D01*
X147940256Y-39817824D01*
X147946085Y-39801357D01*
X147955992Y-39760859D01*
X147968995Y-39700882D01*
X147984109Y-39625980D01*
X148000352Y-39540704D01*
X148001681Y-39533515D01*
X148017975Y-39445654D01*
X148032933Y-39365900D01*
X148045591Y-39299321D01*
X148054986Y-39250987D01*
X148060154Y-39225965D01*
X148060244Y-39225583D01*
X148063389Y-39214939D01*
X148069504Y-39206902D01*
X148082253Y-39201107D01*
X148105300Y-39197187D01*
X148142309Y-39194775D01*
X148196944Y-39193505D01*
X148272867Y-39193011D01*
X148373744Y-39192926D01*
X148386800Y-39192926D01*
X148490710Y-39192988D01*
G37*
X148490710Y-39192988D02*
X148569254Y-39193418D01*
X148626098Y-39194582D01*
X148664905Y-39196847D01*
X148689338Y-39200580D01*
X148703062Y-39206146D01*
X148709740Y-39213913D01*
X148713036Y-39224245D01*
X148713356Y-39225583D01*
X148718362Y-39249719D01*
X148727629Y-39297341D01*
X148740192Y-39363381D01*
X148755087Y-39442768D01*
X148771351Y-39530436D01*
X148771919Y-39533515D01*
X148788210Y-39619429D01*
X148803452Y-39695336D01*
X148816661Y-39756685D01*
X148826854Y-39798922D01*
X148833048Y-39817495D01*
X148833343Y-39817824D01*
X148851588Y-39826893D01*
X148889205Y-39842007D01*
X148938071Y-39859902D01*
X148938343Y-39859998D01*
X148999893Y-39883133D01*
X149072457Y-39912605D01*
X149140857Y-39942237D01*
X149144094Y-39943702D01*
X149255502Y-39994266D01*
X149502199Y-39825800D01*
X149577877Y-39774443D01*
X149646431Y-39728529D01*
X149703888Y-39690670D01*
X149746276Y-39663477D01*
X149769625Y-39649561D01*
X149771842Y-39648529D01*
X149788810Y-39653124D01*
X149820501Y-39675295D01*
X149868152Y-39716087D01*
X149932998Y-39776545D01*
X149999197Y-39840867D01*
X150063014Y-39904252D01*
X150120129Y-39962091D01*
X150167105Y-40010815D01*
X150200503Y-40046850D01*
X150216885Y-40066624D01*
X150217494Y-40067642D01*
X150219305Y-40081212D01*
X150212483Y-40103373D01*
X150195340Y-40137118D01*
X150166193Y-40185440D01*
X150123355Y-40251332D01*
X150066248Y-40336157D01*
X150015566Y-40410817D01*
X149970261Y-40477780D01*
X149932950Y-40533156D01*
X149906252Y-40573060D01*
X149892785Y-40593602D01*
X149891937Y-40594996D01*
X149893581Y-40614678D01*
X149906045Y-40652933D01*
X149926848Y-40702529D01*
X149934262Y-40718368D01*
X149966614Y-40788930D01*
X150001128Y-40868993D01*
X150029165Y-40938269D01*
X150049368Y-40989685D01*
X150065415Y-41028759D01*
X150074688Y-41049181D01*
X150075841Y-41050754D01*
X150092896Y-41053361D01*
X150133098Y-41060503D01*
X150191102Y-41071163D01*
X150261563Y-41084325D01*
X150339135Y-41098973D01*
X150418472Y-41114089D01*
X150494231Y-41128658D01*
X150561064Y-41141662D01*
X150613628Y-41152085D01*
X150646576Y-41158910D01*
X150654657Y-41160839D01*
X150663005Y-41165602D01*
X150669306Y-41176358D01*
X150673845Y-41196738D01*
X150676904Y-41230374D01*
X150678767Y-41280895D01*
X150679718Y-41351932D01*
X150680040Y-41447116D01*
X150680057Y-41486132D01*
X150680057Y-41803439D01*
X150603857Y-41818479D01*
X150561463Y-41826635D01*
X150498200Y-41838539D01*
X150421762Y-41852756D01*
X150339843Y-41867850D01*
X150317200Y-41871995D01*
X150241606Y-41886693D01*
X150175753Y-41901145D01*
X150125166Y-41914015D01*
X150095374Y-41923962D01*
X150090412Y-41926927D01*
X150078226Y-41947923D01*
X150060753Y-41988607D01*
X150041377Y-42040962D01*
X150037534Y-42052240D01*
X150012139Y-42122163D01*
X149980617Y-42201058D01*
X149949769Y-42271906D01*
X149949617Y-42272235D01*
X149898247Y-42383373D01*
X150067199Y-42631893D01*
X150236152Y-42880412D01*
X150019229Y-43097698D01*
X149953619Y-43162366D01*
X149893779Y-43219373D01*
X149843067Y-43265673D01*
X149804846Y-43298224D01*
X149782475Y-43313983D01*
X149779266Y-43314983D01*
X149760426Y-43307109D01*
X149721980Y-43285218D01*
X149668130Y-43251907D01*
X149603076Y-43209771D01*
X149532740Y-43162583D01*
X149461355Y-43114450D01*
X149397708Y-43072568D01*
X149345841Y-43039511D01*
X149309795Y-43017858D01*
X149293667Y-43010183D01*
X149273989Y-43016677D01*
X149236675Y-43033790D01*
X149189421Y-43057966D01*
X149184412Y-43060653D01*
X149120777Y-43092567D01*
X149077141Y-43108219D01*
X149050002Y-43108385D01*
X149035857Y-43093844D01*
X149035775Y-43093640D01*
X149028705Y-43076419D01*
X149011842Y-43035539D01*
X148986495Y-42974165D01*
X148953971Y-42895459D01*
X148915578Y-42802587D01*
X148872622Y-42698712D01*
X148831022Y-42598142D01*
X148785304Y-42487156D01*
X148743326Y-42384343D01*
X148706348Y-42292855D01*
X148675627Y-42215841D01*
X148652422Y-42156455D01*
X148637990Y-42117849D01*
X148633543Y-42103440D01*
X148644696Y-42086912D01*
X148673869Y-42060570D01*
X148712771Y-42031527D01*
X148823557Y-41939679D01*
X148910151Y-41834399D01*
X148971516Y-41717906D01*
X149006615Y-41592416D01*
X149014408Y-41460147D01*
X149008743Y-41399097D01*
X148977878Y-41272435D01*
X148924720Y-41160581D01*
X148852567Y-41064641D01*
X148764717Y-40985716D01*
X148664465Y-40924910D01*
X148555110Y-40883327D01*
X148439947Y-40862068D01*
X148322275Y-40862239D01*
X148205390Y-40884941D01*
X148092589Y-40931278D01*
X147987169Y-41002353D01*
X147943168Y-41042551D01*
X147858779Y-41145769D01*
X147800022Y-41258565D01*
X147766504Y-41377650D01*
X147757835Y-41499735D01*
X147773623Y-41621533D01*
X147813478Y-41739756D01*
X147877007Y-41851115D01*
X147963821Y-41952324D01*
X148060829Y-42031527D01*
X148101237Y-42061802D01*
X148129782Y-42087859D01*
X148140057Y-42103465D01*
X148134677Y-42120483D01*
X148119375Y-42161140D01*
X148095412Y-42222282D01*
X148064044Y-42300759D01*
X148026532Y-42393420D01*
X147984133Y-42497112D01*
X147942463Y-42598166D01*
X147896490Y-42709247D01*
X147853907Y-42812181D01*
X147816021Y-42903805D01*
X147784140Y-42980956D01*
X147759571Y-43040471D01*
X147743620Y-43079184D01*
X147737710Y-43093640D01*
X147723748Y-43108325D01*
X147696740Y-43108282D01*
X147653213Y-43092739D01*
X147589690Y-43060924D01*
X147589188Y-43060653D01*
X147541360Y-43035963D01*
X147502697Y-43017978D01*
X147480895Y-43010254D01*
X147479933Y-43010183D01*
X147463521Y-43018018D01*
X147427287Y-43039805D01*
X147375274Y-43072968D01*
X147311525Y-43114931D01*
X147240860Y-43162583D01*
X147168916Y-43210831D01*
X147104074Y-43252791D01*
X147050535Y-43285867D01*
X147012497Y-43307461D01*
X146994333Y-43314983D01*
X146977608Y-43305097D01*
X146943980Y-43277466D01*
X146896810Y-43235135D01*
X146839458Y-43181145D01*
X146775284Y-43118539D01*
X146754297Y-43097623D01*
X146537299Y-42880263D01*
X146702468Y-42637860D01*
X146752664Y-42563421D01*
X146796719Y-42496612D01*
X146832162Y-42441305D01*
X146856519Y-42401369D01*
X146867322Y-42380676D01*
X146867638Y-42379203D01*
X146861943Y-42359698D01*
X146846626Y-42320462D01*
X146824337Y-42268070D01*
X146808693Y-42232995D01*
X146779441Y-42165841D01*
X146751894Y-42097998D01*
X146730537Y-42040674D01*
X146724735Y-42023212D01*
X146708252Y-41976578D01*
X146692140Y-41940545D01*
X146683290Y-41926927D01*
X146663760Y-41918592D01*
X146621134Y-41906777D01*
X146560945Y-41892821D01*
X146488722Y-41878062D01*
X146456400Y-41871995D01*
X146374322Y-41856913D01*
X146295595Y-41842309D01*
X146227909Y-41829620D01*
X146178960Y-41820282D01*
X146169743Y-41818479D01*
X146093543Y-41803439D01*
X146093543Y-41486132D01*
X146093714Y-41381794D01*
X146094416Y-41302853D01*
X146095934Y-41245678D01*
X146098549Y-41206639D01*
X146102546Y-41182105D01*
X146108209Y-41168445D01*
X146115820Y-41162029D01*
X146118943Y-41160839D01*
X146137778Y-41156620D01*
X146179388Y-41148202D01*
X146238430Y-41136601D01*
X146309557Y-41122835D01*
X146387425Y-41107920D01*
X146466687Y-41092872D01*
X146541998Y-41078709D01*
X146608013Y-41066446D01*
X146659387Y-41057101D01*
X146690775Y-41051690D01*
X146697759Y-41050754D01*
X146704085Y-41038236D01*
X146718090Y-41004886D01*
X146737155Y-40957017D01*
X146744434Y-40938269D01*
X146773796Y-40865835D01*
X146808371Y-40785810D01*
X146839337Y-40718368D01*
X146862123Y-40666799D01*
X146877282Y-40624425D01*
X146882342Y-40598474D01*
X146881536Y-40594996D01*
X146870841Y-40578576D01*
X146846420Y-40542057D01*
X146810895Y-40489327D01*
X146766887Y-40424275D01*
X146717017Y-40350791D01*
X146707156Y-40336285D01*
X146649292Y-40250344D01*
X146606756Y-40184901D01*
X146577854Y-40136944D01*
X146560890Y-40103460D01*
X146554167Y-40081435D01*
X146555990Y-40067857D01*
X146556036Y-40067771D01*
X146570386Y-40049937D01*
X146602123Y-40015457D01*
X146647810Y-39967908D01*
X146704004Y-39910862D01*
X146767268Y-39847895D01*
X146774402Y-39840867D01*
X146854130Y-39763660D01*
X146915657Y-39706970D01*
X146960221Y-39669750D01*
X146989057Y-39650955D01*
X147001758Y-39648529D01*
X147020294Y-39659111D01*
X147058761Y-39683556D01*
X147113186Y-39719252D01*
X147179598Y-39763587D01*
X147254025Y-39813951D01*
X147271401Y-39825800D01*
X147518097Y-39994266D01*
X147629506Y-39943702D01*
X147697257Y-39914235D01*
X147769983Y-39884599D01*
X147832503Y-39860970D01*
X147835257Y-39859998D01*
X147884160Y-39842097D01*
X147921857Y-39826960D01*
X147940225Y-39817850D01*
X147940256Y-39817824D01*
X147946085Y-39801357D01*
X147955992Y-39760859D01*
X147968995Y-39700882D01*
X147984109Y-39625980D01*
X148000352Y-39540704D01*
X148001681Y-39533515D01*
X148017975Y-39445654D01*
X148032933Y-39365900D01*
X148045591Y-39299321D01*
X148054986Y-39250987D01*
X148060154Y-39225965D01*
X148060244Y-39225583D01*
X148063389Y-39214939D01*
X148069504Y-39206902D01*
X148082253Y-39201107D01*
X148105300Y-39197187D01*
X148142309Y-39194775D01*
X148196944Y-39193505D01*
X148272867Y-39193011D01*
X148373744Y-39192926D01*
X148386800Y-39192926D01*
X148490710Y-39192988D01*
%TO.C,CON2*%
D11*
X47837014Y-40068740D02*
X47265585Y-40068740D01*
X47551300Y-40068740D02*
X47551300Y-39068740D01*
X47456061Y-39211598D01*
X47360823Y-39306836D01*
X47265585Y-39354455D01*
X77753205Y-39394454D02*
X77753205Y-40061120D01*
X77515110Y-39013501D02*
X77277015Y-39727787D01*
X77896062Y-39727787D01*
X78324634Y-40061120D02*
X78515110Y-40061120D01*
X78610348Y-40013501D01*
X78657967Y-39965882D01*
X78753205Y-39823025D01*
X78800824Y-39632549D01*
X78800824Y-39251597D01*
X78753205Y-39156359D01*
X78705586Y-39108740D01*
X78610348Y-39061120D01*
X78419872Y-39061120D01*
X78324634Y-39108740D01*
X78277015Y-39156359D01*
X78229396Y-39251597D01*
X78229396Y-39489692D01*
X78277015Y-39584930D01*
X78324634Y-39632549D01*
X78419872Y-39680168D01*
X78610348Y-39680168D01*
X78705586Y-39632549D01*
X78753205Y-39584930D01*
X78800824Y-39489692D01*
X81636224Y-39068740D02*
X81160034Y-39068740D01*
X81112415Y-39544931D01*
X81160034Y-39497312D01*
X81255272Y-39449693D01*
X81493367Y-39449693D01*
X81588605Y-39497312D01*
X81636224Y-39544931D01*
X81683843Y-39640169D01*
X81683843Y-39878264D01*
X81636224Y-39973502D01*
X81588605Y-40021121D01*
X81493367Y-40068740D01*
X81255272Y-40068740D01*
X81160034Y-40021121D01*
X81112415Y-39973502D01*
X82636224Y-40068740D02*
X82064796Y-40068740D01*
X82350510Y-40068740D02*
X82350510Y-39068740D01*
X82255272Y-39211598D01*
X82160034Y-39306836D01*
X82064796Y-39354455D01*
X143430033Y-40061120D02*
X142858604Y-40061120D01*
X143144319Y-40061120D02*
X143144319Y-39061120D01*
X143049080Y-39203978D01*
X142953842Y-39299216D01*
X142858604Y-39346835D01*
X144287176Y-39394454D02*
X144287176Y-40061120D01*
X144049080Y-39013501D02*
X143810985Y-39727787D01*
X144430033Y-39727787D01*
X144858604Y-40061120D02*
X145049080Y-40061120D01*
X145144319Y-40013501D01*
X145191938Y-39965882D01*
X145287176Y-39823025D01*
X145334795Y-39632549D01*
X145334795Y-39251597D01*
X145287176Y-39156359D01*
X145239557Y-39108740D01*
X145144319Y-39061120D01*
X144953842Y-39061120D01*
X144858604Y-39108740D01*
X144810985Y-39156359D01*
X144763366Y-39251597D01*
X144763366Y-39489692D01*
X144810985Y-39584930D01*
X144858604Y-39632549D01*
X144953842Y-39680168D01*
X145144319Y-39680168D01*
X145239557Y-39632549D01*
X145287176Y-39584930D01*
X145334795Y-39489692D01*
%TD*%
M02*
