%TF.GenerationSoftware,KiCad,Pcbnew,(5.1.6)-1*%
%TF.CreationDate,2023-02-01T13:27:27-05:00*%
%TF.ProjectId,A1200-adapter,41313230-302d-4616-9461-707465722e6b,rev?*%
%TF.SameCoordinates,Original*%
%TF.FileFunction,Legend,Bot*%
%TF.FilePolarity,Positive*%
%FSLAX46Y46*%
G04 Gerber Fmt 4.6, Leading zero omitted, Abs format (unit mm)*
G04 Created by KiCad (PCBNEW (5.1.6)-1) date 2023-02-01 13:27:27*
%MOMM*%
%LPD*%
G01*
G04 APERTURE LIST*
%ADD10C,0.150000*%
G04 APERTURE END LIST*
D10*
X157087605Y-172227500D02*
X157659034Y-172227500D01*
X157373320Y-172227500D02*
X157373320Y-171227500D01*
X157468558Y-171370358D01*
X157563796Y-171465596D01*
X157659034Y-171513215D01*
%TO.C,CON1*%
X163332000Y-38730000D02*
X153172000Y-38730000D01*
X163332000Y-175890000D02*
X163332000Y-38730000D01*
X153172000Y-175890000D02*
X163332000Y-175890000D01*
X153172000Y-38730000D02*
X153172000Y-175890000D01*
X153172000Y-172334000D02*
X154442000Y-171445000D01*
X153172000Y-170556000D02*
X153172000Y-172334000D01*
X154442000Y-171445000D02*
X153172000Y-170556000D01*
%TO.C,CON2*%
X47862414Y-39161439D02*
X47814795Y-39113820D01*
X47719557Y-39066200D01*
X47481461Y-39066200D01*
X47386223Y-39113820D01*
X47338604Y-39161439D01*
X47290985Y-39256677D01*
X47290985Y-39351915D01*
X47338604Y-39494772D01*
X47910033Y-40066200D01*
X47290985Y-40066200D01*
X78284635Y-39068740D02*
X78760825Y-39068740D01*
X78808444Y-39544931D01*
X78760825Y-39497312D01*
X78665587Y-39449693D01*
X78427492Y-39449693D01*
X78332254Y-39497312D01*
X78284635Y-39544931D01*
X78237016Y-39640169D01*
X78237016Y-39878264D01*
X78284635Y-39973502D01*
X78332254Y-40021121D01*
X78427492Y-40068740D01*
X78665587Y-40068740D01*
X78760825Y-40021121D01*
X78808444Y-39973502D01*
X77617968Y-39068740D02*
X77522730Y-39068740D01*
X77427492Y-39116360D01*
X77379873Y-39163979D01*
X77332254Y-39259217D01*
X77284635Y-39449693D01*
X77284635Y-39687788D01*
X77332254Y-39878264D01*
X77379873Y-39973502D01*
X77427492Y-40021121D01*
X77522730Y-40068740D01*
X77617968Y-40068740D01*
X77713206Y-40021121D01*
X77760825Y-39973502D01*
X77808444Y-39878264D01*
X77856063Y-39687788D01*
X77856063Y-39449693D01*
X77808444Y-39259217D01*
X77760825Y-39163979D01*
X77713206Y-39116360D01*
X77617968Y-39068740D01*
X82112415Y-39068740D02*
X82588605Y-39068740D01*
X82636224Y-39544931D01*
X82588605Y-39497312D01*
X82493367Y-39449693D01*
X82255272Y-39449693D01*
X82160034Y-39497312D01*
X82112415Y-39544931D01*
X82064796Y-39640169D01*
X82064796Y-39878264D01*
X82112415Y-39973502D01*
X82160034Y-40021121D01*
X82255272Y-40068740D01*
X82493367Y-40068740D01*
X82588605Y-40021121D01*
X82636224Y-39973502D01*
X81683843Y-39163979D02*
X81636224Y-39116360D01*
X81540986Y-39068740D01*
X81302891Y-39068740D01*
X81207653Y-39116360D01*
X81160034Y-39163979D01*
X81112415Y-39259217D01*
X81112415Y-39354455D01*
X81160034Y-39497312D01*
X81731462Y-40068740D01*
X81112415Y-40068740D01*
X144770986Y-40063660D02*
X145342415Y-40063660D01*
X145056700Y-40063660D02*
X145056700Y-39063660D01*
X145151939Y-39206518D01*
X145247177Y-39301756D01*
X145342415Y-39349375D01*
X143866224Y-39063660D02*
X144342415Y-39063660D01*
X144390034Y-39539851D01*
X144342415Y-39492232D01*
X144247177Y-39444613D01*
X144009081Y-39444613D01*
X143913843Y-39492232D01*
X143866224Y-39539851D01*
X143818605Y-39635089D01*
X143818605Y-39873184D01*
X143866224Y-39968422D01*
X143913843Y-40016041D01*
X144009081Y-40063660D01*
X144247177Y-40063660D01*
X144342415Y-40016041D01*
X144390034Y-39968422D01*
X143199558Y-39063660D02*
X143104320Y-39063660D01*
X143009081Y-39111280D01*
X142961462Y-39158899D01*
X142913843Y-39254137D01*
X142866224Y-39444613D01*
X142866224Y-39682708D01*
X142913843Y-39873184D01*
X142961462Y-39968422D01*
X143009081Y-40016041D01*
X143104320Y-40063660D01*
X143199558Y-40063660D01*
X143294796Y-40016041D01*
X143342415Y-39968422D01*
X143390034Y-39873184D01*
X143437653Y-39682708D01*
X143437653Y-39444613D01*
X143390034Y-39254137D01*
X143342415Y-39158899D01*
X143294796Y-39111280D01*
X143199558Y-39063660D01*
%TD*%
M02*
