%FSLAX45Y45*%
G04 Gerber Fmt 4.5, Leading zero omitted, Abs format (unit mm)*
G04 Created by KiCad (PCBNEW (5.1.6)-1) date 2023-02-01 13:27:30*
%MOMM*%
%LPD*%
G01*
G04 APERTURE LIST*
%TA.AperFunction,Profile*%
%ADD10C,0.050000*%
%TD*%
%ADD11C,0.200000*%
%ADD12C,0.300000*%
G04 APERTURE END LIST*
D10*
X14814804Y-17699736D02*
X4462780Y-3772154D01*
X14876272Y-3771900D02*
X14530324Y-3771900D01*
X4582160Y-3772154D02*
X4462780Y-3772154D01*
X4635754Y-3772154D02*
X4582160Y-3772154D01*
X16420084Y-17699736D02*
X14814804Y-17699736D01*
X16420084Y-3771900D02*
X16420084Y-17699736D01*
X14876272Y-3771900D02*
X16420084Y-3771900D01*
X4635754Y-2939542D02*
X4635754Y-3772154D01*
X7923784Y-2939542D02*
X4635754Y-2939542D01*
X14530324Y-3771900D02*
X14530324Y-3765296D01*
X14530324Y-2939542D02*
X14530324Y-3765296D01*
X7923784Y-3733038D02*
X7923784Y-3729482D01*
X8063487Y-3733292D02*
X8063484Y-3729482D01*
X8063487Y-3733292D02*
G75*
G02*
X7923784Y-3733038I-69852J0D01*
G01*
X8063484Y-2939542D02*
X14530324Y-2939542D01*
X8063484Y-3729482D02*
X8063484Y-2939542D01*
X7923784Y-2939542D02*
X7923784Y-3729482D01*
D11*
X5128928Y-4108356D02*
X5148928Y-4128356D01*
X5148928Y-4108356D02*
X5128928Y-4128356D01*
X5160210Y-4216830D02*
X5180210Y-4236830D01*
X5180210Y-4216830D02*
X5160210Y-4236830D01*
X5209680Y-4336000D02*
X5229680Y-4356000D01*
X5229680Y-4336000D02*
X5209680Y-4356000D01*
X5255670Y-4001420D02*
X5275670Y-4021420D01*
X5275670Y-4001420D02*
X5255670Y-4021420D01*
X5322476Y-4718464D02*
X5342476Y-4738464D01*
X5342476Y-4718464D02*
X5322476Y-4738464D01*
X5342290Y-4002690D02*
X5362290Y-4022690D01*
X5362290Y-4002690D02*
X5342290Y-4022690D01*
X5405250Y-4339930D02*
X5425250Y-4359930D01*
X5425250Y-4339930D02*
X5405250Y-4359930D01*
X5588560Y-4866770D02*
X5608560Y-4886770D01*
X5608560Y-4866770D02*
X5588560Y-4886770D01*
X5671080Y-4802630D02*
X5691080Y-4822630D01*
X5691080Y-4802630D02*
X5671080Y-4822630D01*
X5884324Y-4334416D02*
X5904324Y-4354416D01*
X5904324Y-4334416D02*
X5884324Y-4354416D01*
X5890420Y-4001170D02*
X5910420Y-4021170D01*
X5910420Y-4001170D02*
X5890420Y-4021170D01*
X5976780Y-4002180D02*
X5996780Y-4022180D01*
X5996780Y-4002180D02*
X5976780Y-4022180D01*
X6058370Y-4909290D02*
X6078370Y-4929290D01*
X6078370Y-4909290D02*
X6058370Y-4929290D01*
X6105890Y-5419190D02*
X6125890Y-5439190D01*
X6125890Y-5419190D02*
X6105890Y-5439190D01*
X6141130Y-4208150D02*
X6161130Y-4228150D01*
X6161130Y-4208150D02*
X6141130Y-4228150D01*
X6184230Y-5925600D02*
X6204230Y-5945600D01*
X6204230Y-5925600D02*
X6184230Y-5945600D01*
X6231740Y-5745200D02*
X6251740Y-5765200D01*
X6251740Y-5745200D02*
X6231740Y-5765200D01*
X6308400Y-6173770D02*
X6328400Y-6193770D01*
X6328400Y-6173770D02*
X6308400Y-6193770D01*
X6398670Y-4546580D02*
X6418670Y-4566580D01*
X6418670Y-4546580D02*
X6398670Y-4566580D01*
X6468524Y-6039264D02*
X6488524Y-6059264D01*
X6488524Y-6039264D02*
X6468524Y-6059264D01*
X6525930Y-4001170D02*
X6545930Y-4021170D01*
X6545930Y-4001170D02*
X6525930Y-4021170D01*
X6612290Y-4002180D02*
X6632290Y-4022180D01*
X6632290Y-4002180D02*
X6612290Y-4022180D01*
X6635420Y-5995640D02*
X6655420Y-6015640D01*
X6655420Y-5995640D02*
X6635420Y-6015640D01*
X6755010Y-5563000D02*
X6775010Y-5583000D01*
X6775010Y-5563000D02*
X6755010Y-5583000D01*
X6883880Y-6355060D02*
X6903880Y-6375060D01*
X6903880Y-6355060D02*
X6883880Y-6375060D01*
X7033670Y-4470190D02*
X7053670Y-4490190D01*
X7053670Y-4470190D02*
X7033670Y-4490190D01*
X7160670Y-4001420D02*
X7180670Y-4021420D01*
X7180670Y-4001420D02*
X7160670Y-4021420D01*
X7211220Y-4277520D02*
X7231220Y-4297520D01*
X7231220Y-4277520D02*
X7211220Y-4297520D01*
X7247290Y-4002690D02*
X7267290Y-4022690D01*
X7267290Y-4002690D02*
X7247290Y-4022690D01*
X7504050Y-5967140D02*
X7524050Y-5987140D01*
X7524050Y-5967140D02*
X7504050Y-5987140D01*
X7596150Y-5669130D02*
X7616150Y-5689130D01*
X7616150Y-5669130D02*
X7596150Y-5689130D01*
X7668670Y-4088140D02*
X7688670Y-4108140D01*
X7688670Y-4088140D02*
X7668670Y-4108140D01*
X7756330Y-4336100D02*
X7776330Y-4356100D01*
X7776330Y-4336100D02*
X7756330Y-4356100D01*
X7756330Y-6169910D02*
X7776330Y-6189910D01*
X7776330Y-6169910D02*
X7756330Y-6189910D01*
X7795670Y-4002950D02*
X7815670Y-4022950D01*
X7815670Y-4002950D02*
X7795670Y-4022950D01*
X7882800Y-4004220D02*
X7902800Y-4024220D01*
X7902800Y-4004220D02*
X7882800Y-4024220D01*
X8244492Y-4200304D02*
X8264492Y-4220304D01*
X8264492Y-4200304D02*
X8244492Y-4220304D01*
X8374540Y-4200304D02*
X8394540Y-4220304D01*
X8394540Y-4200304D02*
X8374540Y-4220304D01*
X8404400Y-4426670D02*
X8424400Y-4446670D01*
X8424400Y-4426670D02*
X8404400Y-4446670D01*
X8466320Y-4439070D02*
X8486320Y-4459070D01*
X8486320Y-4439070D02*
X8466320Y-4459070D01*
X8508500Y-4698520D02*
X8528500Y-4718520D01*
X8528500Y-4698520D02*
X8508500Y-4718520D01*
X8557670Y-4760800D02*
X8577670Y-4780800D01*
X8577670Y-4760800D02*
X8557670Y-4780800D01*
X8609440Y-4168120D02*
X8629440Y-4188120D01*
X8629440Y-4168120D02*
X8609440Y-4188120D01*
X8655972Y-4371500D02*
X8675972Y-4391500D01*
X8675972Y-4371500D02*
X8655972Y-4391500D01*
X8678260Y-4095680D02*
X8698260Y-4115680D01*
X8698260Y-4095680D02*
X8678260Y-4115680D01*
X8684930Y-4002180D02*
X8704930Y-4022180D01*
X8704930Y-4002180D02*
X8684930Y-4022180D01*
X8725380Y-4817300D02*
X8745380Y-4837300D01*
X8745380Y-4817300D02*
X8725380Y-4837300D01*
X8773830Y-4003200D02*
X8793830Y-4023200D01*
X8793830Y-4003200D02*
X8773830Y-4023200D01*
X8804250Y-5044270D02*
X8824250Y-5064270D01*
X8824250Y-5044270D02*
X8804250Y-5064270D01*
X8889930Y-7353030D02*
X8909930Y-7373030D01*
X8909930Y-7353030D02*
X8889930Y-7373030D01*
X8938670Y-7077460D02*
X8958670Y-7097460D01*
X8958670Y-7077460D02*
X8938670Y-7097460D01*
X9065670Y-7132040D02*
X9085670Y-7152040D01*
X9085670Y-7132040D02*
X9065670Y-7152040D01*
X9149380Y-7397790D02*
X9169380Y-7417790D01*
X9169380Y-7397790D02*
X9149380Y-7417790D01*
X9192670Y-5535910D02*
X9212670Y-5555910D01*
X9212670Y-5535910D02*
X9192670Y-5555910D01*
X9318400Y-4002690D02*
X9338400Y-4022690D01*
X9338400Y-4002690D02*
X9318400Y-4022690D01*
X9383170Y-4065020D02*
X9403170Y-4085020D01*
X9403170Y-4065020D02*
X9383170Y-4085020D01*
X9383170Y-5220500D02*
X9403170Y-5240500D01*
X9403170Y-5220500D02*
X9383170Y-5240500D01*
X9404760Y-4003710D02*
X9424760Y-4023710D01*
X9424760Y-4003710D02*
X9404760Y-4023710D01*
X9524550Y-4356860D02*
X9544550Y-4376860D01*
X9544550Y-4356860D02*
X9524550Y-4376860D01*
X9573670Y-4675090D02*
X9593670Y-4695090D01*
X9593670Y-4675090D02*
X9573670Y-4695090D01*
X9678068Y-7731920D02*
X9698068Y-7751920D01*
X9698068Y-7731920D02*
X9678068Y-7751920D01*
X9700670Y-4745110D02*
X9720670Y-4765110D01*
X9720670Y-4745110D02*
X9700670Y-4765110D01*
X9811672Y-7949852D02*
X9831672Y-7969852D01*
X9831672Y-7949852D02*
X9811672Y-7969852D01*
X9827670Y-5087010D02*
X9847670Y-5107010D01*
X9847670Y-5087010D02*
X9827670Y-5107010D01*
X9839104Y-5695856D02*
X9859104Y-5715856D01*
X9859104Y-5695856D02*
X9839104Y-5715856D01*
X9884920Y-3906290D02*
X9904920Y-3926290D01*
X9904920Y-3906290D02*
X9884920Y-3926290D01*
X9884920Y-4864830D02*
X9904920Y-4884830D01*
X9904920Y-4864830D02*
X9884920Y-4884830D01*
X9955440Y-4001170D02*
X9975440Y-4021170D01*
X9975440Y-4001170D02*
X9955440Y-4021170D01*
X9957110Y-4069270D02*
X9977110Y-4089270D01*
X9977110Y-4069270D02*
X9957110Y-4089270D01*
X9957110Y-4817320D02*
X9977110Y-4837320D01*
X9977110Y-4817320D02*
X9957110Y-4837320D01*
X9995060Y-8281068D02*
X10015060Y-8301068D01*
X10015060Y-8281068D02*
X9995060Y-8301068D01*
X10041800Y-4001680D02*
X10061800Y-4021680D01*
X10061800Y-4001680D02*
X10041800Y-4021680D01*
X10106330Y-3901820D02*
X10126330Y-3921820D01*
X10126330Y-3901820D02*
X10106330Y-3921820D01*
X10106330Y-8587120D02*
X10126330Y-8607120D01*
X10126330Y-8587120D02*
X10106330Y-8607120D01*
X10178620Y-8592200D02*
X10198620Y-8612200D01*
X10198620Y-8592200D02*
X10178620Y-8612200D01*
X10301970Y-8807520D02*
X10321970Y-8827520D01*
X10321970Y-8807520D02*
X10301970Y-8827520D01*
X10331870Y-3998270D02*
X10351870Y-4018270D01*
X10351870Y-3998270D02*
X10331870Y-4018270D01*
X10331870Y-8281480D02*
X10351870Y-8301480D01*
X10351870Y-8281480D02*
X10331870Y-8301480D01*
X10415120Y-8855890D02*
X10435120Y-8875890D01*
X10435120Y-8855890D02*
X10415120Y-8875890D01*
X10504040Y-9034350D02*
X10524040Y-9054350D01*
X10524040Y-9034350D02*
X10504040Y-9054350D01*
X10545200Y-8599620D02*
X10565200Y-8619620D01*
X10565200Y-8599620D02*
X10545200Y-8619620D01*
X10716670Y-8371500D02*
X10736670Y-8391500D01*
X10736670Y-8371500D02*
X10716670Y-8391500D01*
X10777560Y-3904240D02*
X10797560Y-3924240D01*
X10797560Y-3904240D02*
X10777560Y-3924240D01*
X10777560Y-9240650D02*
X10797560Y-9260650D01*
X10797560Y-9240650D02*
X10777560Y-9260650D01*
X10940870Y-4229330D02*
X10960870Y-4249330D01*
X10960870Y-4229330D02*
X10940870Y-4249330D01*
X10940870Y-8689710D02*
X10960870Y-8709710D01*
X10960870Y-8689710D02*
X10940870Y-8709710D01*
X11015124Y-9118252D02*
X11035124Y-9138252D01*
X11035124Y-9118252D02*
X11015124Y-9138252D01*
X11097670Y-6163310D02*
X11117670Y-6183310D01*
X11117670Y-6163310D02*
X11097670Y-6183310D01*
X11161170Y-3879090D02*
X11181170Y-3899090D01*
X11181170Y-3879090D02*
X11161170Y-3899090D01*
X11161170Y-9276370D02*
X11181170Y-9296370D01*
X11181170Y-9276370D02*
X11161170Y-9296370D01*
X11224670Y-7895130D02*
X11244670Y-7915130D01*
X11244670Y-7895130D02*
X11224670Y-7915130D01*
X11351700Y-4001930D02*
X11371700Y-4021930D01*
X11371700Y-4001930D02*
X11351700Y-4021930D01*
X11407808Y-8728616D02*
X11427808Y-8748616D01*
X11427808Y-8728616D02*
X11407808Y-8748616D01*
X11437300Y-4002180D02*
X11457300Y-4022180D01*
X11457300Y-4002180D02*
X11437300Y-4022180D01*
X11514000Y-8847210D02*
X11534000Y-8867210D01*
X11534000Y-8847210D02*
X11514000Y-8867210D01*
X11599260Y-3915790D02*
X11619260Y-3935790D01*
X11619260Y-3915790D02*
X11599260Y-3935790D01*
X11599260Y-9100760D02*
X11619260Y-9120760D01*
X11619260Y-9100760D02*
X11599260Y-9120760D01*
X11758836Y-4012852D02*
X11778836Y-4032852D01*
X11778836Y-4012852D02*
X11758836Y-4032852D01*
X11915320Y-4159310D02*
X11935320Y-4179310D01*
X11935320Y-4159310D02*
X11915320Y-4179310D01*
X11915320Y-12394650D02*
X11935320Y-12414650D01*
X11935320Y-12394650D02*
X11915320Y-12414650D01*
X11982380Y-4159310D02*
X12002380Y-4179310D01*
X12002380Y-4159310D02*
X11982380Y-4179310D01*
X12067450Y-3904010D02*
X12087450Y-3924010D01*
X12087450Y-3904010D02*
X12067450Y-3924010D01*
X12083320Y-4229330D02*
X12103320Y-4249330D01*
X12103320Y-4229330D02*
X12083320Y-4249330D01*
X12143600Y-5979150D02*
X12163600Y-5999150D01*
X12163600Y-5979150D02*
X12143600Y-5999150D01*
X12178460Y-5424980D02*
X12198460Y-5444980D01*
X12198460Y-5424980D02*
X12178460Y-5444980D01*
X12227880Y-4030900D02*
X12247880Y-4050900D01*
X12247880Y-4030900D02*
X12227880Y-4050900D01*
X12274120Y-9191850D02*
X12294120Y-9211850D01*
X12294120Y-9191850D02*
X12274120Y-9211850D01*
X12321630Y-6301520D02*
X12341630Y-6321520D01*
X12341630Y-6301520D02*
X12321630Y-6321520D01*
X12322420Y-5488400D02*
X12342420Y-5508400D01*
X12342420Y-5488400D02*
X12322420Y-5508400D01*
X12405960Y-5845190D02*
X12425960Y-5865190D01*
X12425960Y-5845190D02*
X12405960Y-5865190D01*
X12494700Y-4001930D02*
X12514700Y-4021930D01*
X12514700Y-4001930D02*
X12494700Y-4021930D01*
X12527800Y-8973750D02*
X12547800Y-8993750D01*
X12547800Y-8973750D02*
X12527800Y-8993750D01*
X12567572Y-9744616D02*
X12587572Y-9764616D01*
X12587572Y-9744616D02*
X12567572Y-9764616D01*
X12581300Y-4003200D02*
X12601300Y-4023200D01*
X12601300Y-4003200D02*
X12581300Y-4023200D01*
X12624080Y-5918560D02*
X12644080Y-5938560D01*
X12644080Y-5918560D02*
X12624080Y-5938560D01*
X12692360Y-6039750D02*
X12712360Y-6059750D01*
X12712360Y-6039750D02*
X12692360Y-6059750D01*
X12739870Y-6283930D02*
X12759870Y-6303930D01*
X12759870Y-6283930D02*
X12739870Y-6303930D01*
X12763630Y-6089750D02*
X12783630Y-6109750D01*
X12783630Y-6089750D02*
X12763630Y-6109750D01*
X12822390Y-6122080D02*
X12842390Y-6142080D01*
X12842390Y-6122080D02*
X12822390Y-6142080D01*
X12928590Y-6236420D02*
X12948590Y-6256420D01*
X12948590Y-6236420D02*
X12928590Y-6256420D01*
X13078630Y-6564390D02*
X13098630Y-6584390D01*
X13098630Y-6564390D02*
X13078630Y-6584390D01*
X13229496Y-6955188D02*
X13249496Y-6975188D01*
X13249496Y-6955188D02*
X13229496Y-6975188D01*
X13243720Y-10334912D02*
X13263720Y-10354912D01*
X13263720Y-10334912D02*
X13243720Y-10354912D01*
X13292996Y-5630832D02*
X13312996Y-5650832D01*
X13312996Y-5630832D02*
X13292996Y-5650832D01*
X13613544Y-7372256D02*
X13633544Y-7392256D01*
X13633544Y-7372256D02*
X13613544Y-7392256D01*
X13764900Y-4003200D02*
X13784900Y-4023200D01*
X13784900Y-4003200D02*
X13764900Y-4023200D01*
X13802370Y-4050730D02*
X13822370Y-4070730D01*
X13822370Y-4050730D02*
X13802370Y-4070730D01*
X13854300Y-4003200D02*
X13874300Y-4023200D01*
X13874300Y-4003200D02*
X13854300Y-4023200D01*
X14034168Y-12885580D02*
X14054168Y-12905580D01*
X14054168Y-12885580D02*
X14034168Y-12905580D01*
X14102910Y-10830590D02*
X14122910Y-10850590D01*
X14122910Y-10830590D02*
X14102910Y-10850590D01*
X14145400Y-4003200D02*
X14165400Y-4023200D01*
X14165400Y-4003200D02*
X14145400Y-4023200D01*
X14153548Y-7372256D02*
X14173548Y-7392256D01*
X14173548Y-7372256D02*
X14153548Y-7392256D01*
X14187584Y-12043824D02*
X14207584Y-12063824D01*
X14207584Y-12043824D02*
X14187584Y-12063824D01*
X14212990Y-12992280D02*
X14232990Y-13012280D01*
X14232990Y-12992280D02*
X14212990Y-13012280D01*
X14235336Y-11051192D02*
X14255336Y-11071192D01*
X14255336Y-11051192D02*
X14235336Y-11071192D01*
X14310012Y-11290968D02*
X14330012Y-11310968D01*
X14330012Y-11290968D02*
X14310012Y-11310968D01*
X14310012Y-11530744D02*
X14330012Y-11550744D01*
X14330012Y-11530744D02*
X14310012Y-11550744D01*
X14357350Y-12991770D02*
X14377350Y-13011770D01*
X14377350Y-12991770D02*
X14357350Y-13011770D01*
X14358780Y-14166248D02*
X14378780Y-14186248D01*
X14378780Y-14166248D02*
X14358780Y-14186248D01*
X14421264Y-13273184D02*
X14441264Y-13293184D01*
X14441264Y-13273184D02*
X14421264Y-13293184D01*
X14432948Y-13798964D02*
X14452948Y-13818964D01*
X14452948Y-13798964D02*
X14432948Y-13818964D01*
X14530140Y-9961940D02*
X14550140Y-9981940D01*
X14550140Y-9961940D02*
X14530140Y-9981940D01*
X14574680Y-12447684D02*
X14594680Y-12467684D01*
X14594680Y-12447684D02*
X14574680Y-12467684D01*
X14582808Y-13649104D02*
X14602808Y-13669104D01*
X14602808Y-13649104D02*
X14582808Y-13669104D01*
X14589950Y-13759540D02*
X14609950Y-13779540D01*
X14609950Y-13759540D02*
X14589950Y-13779540D01*
X14629020Y-8048860D02*
X14649020Y-8068860D01*
X14649020Y-8048860D02*
X14629020Y-8068860D01*
X14642244Y-13079636D02*
X14662244Y-13099636D01*
X14662244Y-13079636D02*
X14642244Y-13099636D01*
X14749432Y-6910992D02*
X14769432Y-6930992D01*
X14769432Y-6910992D02*
X14749432Y-6930992D01*
X14766704Y-13776612D02*
X14786704Y-13796612D01*
X14786704Y-13776612D02*
X14766704Y-13796612D01*
X14769130Y-10600800D02*
X14789130Y-10620800D01*
X14789130Y-10600800D02*
X14769130Y-10620800D01*
X14873580Y-12631960D02*
X14893580Y-12651960D01*
X14893580Y-12631960D02*
X14873580Y-12651960D01*
X14928440Y-4669270D02*
X14948440Y-4689270D01*
X14948440Y-4669270D02*
X14928440Y-4689270D01*
X14995812Y-6701696D02*
X15015812Y-6721696D01*
X15015812Y-6701696D02*
X14995812Y-6721696D01*
X14998352Y-9779668D02*
X15018352Y-9799668D01*
X15018352Y-9779668D02*
X14998352Y-9799668D01*
X15002580Y-6535400D02*
X15022580Y-6555400D01*
X15022580Y-6535400D02*
X15002580Y-6555400D01*
X15106556Y-6549804D02*
X15126556Y-6569804D01*
X15126556Y-6549804D02*
X15106556Y-6569804D01*
X15213236Y-12518296D02*
X15233236Y-12538296D01*
X15233236Y-12518296D02*
X15213236Y-12538296D01*
X15268960Y-4493780D02*
X15288960Y-4513780D01*
X15288960Y-4493780D02*
X15268960Y-4513780D01*
X15316480Y-4454010D02*
X15336480Y-4474010D01*
X15336480Y-4454010D02*
X15316480Y-4474010D01*
X15378220Y-4719710D02*
X15398220Y-4739710D01*
X15398220Y-4719710D02*
X15378220Y-4739710D01*
X15425730Y-4216800D02*
X15445730Y-4236800D01*
X15445730Y-4216800D02*
X15425730Y-4236800D01*
X15552072Y-10669176D02*
X15572072Y-10689176D01*
X15572072Y-10669176D02*
X15552072Y-10689176D01*
X15658170Y-4476240D02*
X15678170Y-4496240D01*
X15678170Y-4476240D02*
X15658170Y-4496240D01*
X15763460Y-11314590D02*
X15783460Y-11334590D01*
X15783460Y-11314590D02*
X15763460Y-11334590D01*
X15873390Y-11648720D02*
X15893390Y-11668720D01*
X15893390Y-11648720D02*
X15873390Y-11668720D01*
X16210948Y-17398144D02*
X16230948Y-17418144D01*
X16230948Y-17398144D02*
X16210948Y-17418144D01*
X16231440Y-3809130D02*
X16251440Y-3829130D01*
X16251440Y-3809130D02*
X16231440Y-3829130D01*
X16315030Y-4169290D02*
X16335030Y-4189290D01*
X16335030Y-4169290D02*
X16315030Y-4189290D01*
X16365820Y-7207700D02*
X16385820Y-7227700D01*
X16385820Y-7207700D02*
X16365820Y-7227700D01*
X15585800Y-4444500D02*
G75*
G03*
X15585800Y-4444500I-40000J0D01*
G01*
X15585800Y-4698500D02*
G75*
G03*
X15585800Y-4698500I-40000J0D01*
G01*
X15585800Y-4952500D02*
G75*
G03*
X15585800Y-4952500I-40000J0D01*
G01*
X15585800Y-5206500D02*
G75*
G03*
X15585800Y-5206500I-40000J0D01*
G01*
X15585800Y-5460500D02*
G75*
G03*
X15585800Y-5460500I-40000J0D01*
G01*
X15585800Y-5714500D02*
G75*
G03*
X15585800Y-5714500I-40000J0D01*
G01*
X15585800Y-5968500D02*
G75*
G03*
X15585800Y-5968500I-40000J0D01*
G01*
X15585800Y-6222500D02*
G75*
G03*
X15585800Y-6222500I-40000J0D01*
G01*
X15585800Y-6476500D02*
G75*
G03*
X15585800Y-6476500I-40000J0D01*
G01*
X15585800Y-6730500D02*
G75*
G03*
X15585800Y-6730500I-40000J0D01*
G01*
X15585800Y-6984500D02*
G75*
G03*
X15585800Y-6984500I-40000J0D01*
G01*
X15585800Y-7238500D02*
G75*
G03*
X15585800Y-7238500I-40000J0D01*
G01*
X15585800Y-7492500D02*
G75*
G03*
X15585800Y-7492500I-40000J0D01*
G01*
X15585800Y-7746500D02*
G75*
G03*
X15585800Y-7746500I-40000J0D01*
G01*
X15585800Y-8000500D02*
G75*
G03*
X15585800Y-8000500I-40000J0D01*
G01*
X15585800Y-8254500D02*
G75*
G03*
X15585800Y-8254500I-40000J0D01*
G01*
X15585800Y-8508500D02*
G75*
G03*
X15585800Y-8508500I-40000J0D01*
G01*
X15585800Y-8762500D02*
G75*
G03*
X15585800Y-8762500I-40000J0D01*
G01*
X15585800Y-9016500D02*
G75*
G03*
X15585800Y-9016500I-40000J0D01*
G01*
X15585800Y-9270500D02*
G75*
G03*
X15585800Y-9270500I-40000J0D01*
G01*
X15585800Y-9524500D02*
G75*
G03*
X15585800Y-9524500I-40000J0D01*
G01*
X15585800Y-9778500D02*
G75*
G03*
X15585800Y-9778500I-40000J0D01*
G01*
X15585800Y-10032500D02*
G75*
G03*
X15585800Y-10032500I-40000J0D01*
G01*
X15585800Y-10286500D02*
G75*
G03*
X15585800Y-10286500I-40000J0D01*
G01*
X15585800Y-10540500D02*
G75*
G03*
X15585800Y-10540500I-40000J0D01*
G01*
X15585800Y-11048500D02*
G75*
G03*
X15585800Y-11048500I-40000J0D01*
G01*
X15585800Y-11302500D02*
G75*
G03*
X15585800Y-11302500I-40000J0D01*
G01*
X15585800Y-11556500D02*
G75*
G03*
X15585800Y-11556500I-40000J0D01*
G01*
X15585800Y-11810500D02*
G75*
G03*
X15585800Y-11810500I-40000J0D01*
G01*
X15585800Y-12064500D02*
G75*
G03*
X15585800Y-12064500I-40000J0D01*
G01*
X15585800Y-12318500D02*
G75*
G03*
X15585800Y-12318500I-40000J0D01*
G01*
X15585800Y-12572500D02*
G75*
G03*
X15585800Y-12572500I-40000J0D01*
G01*
X15585800Y-12826500D02*
G75*
G03*
X15585800Y-12826500I-40000J0D01*
G01*
X15585800Y-13080500D02*
G75*
G03*
X15585800Y-13080500I-40000J0D01*
G01*
X15585800Y-13334500D02*
G75*
G03*
X15585800Y-13334500I-40000J0D01*
G01*
X15585800Y-13588500D02*
G75*
G03*
X15585800Y-13588500I-40000J0D01*
G01*
X15585800Y-13842500D02*
G75*
G03*
X15585800Y-13842500I-40000J0D01*
G01*
X15585800Y-14096500D02*
G75*
G03*
X15585800Y-14096500I-40000J0D01*
G01*
X15585800Y-14350500D02*
G75*
G03*
X15585800Y-14350500I-40000J0D01*
G01*
X15585800Y-14604500D02*
G75*
G03*
X15585800Y-14604500I-40000J0D01*
G01*
X15585800Y-14858500D02*
G75*
G03*
X15585800Y-14858500I-40000J0D01*
G01*
X15585800Y-15112500D02*
G75*
G03*
X15585800Y-15112500I-40000J0D01*
G01*
X15585800Y-15366500D02*
G75*
G03*
X15585800Y-15366500I-40000J0D01*
G01*
X15585800Y-15620500D02*
G75*
G03*
X15585800Y-15620500I-40000J0D01*
G01*
X15585800Y-15874500D02*
G75*
G03*
X15585800Y-15874500I-40000J0D01*
G01*
X15585800Y-16128500D02*
G75*
G03*
X15585800Y-16128500I-40000J0D01*
G01*
X15585800Y-16382500D02*
G75*
G03*
X15585800Y-16382500I-40000J0D01*
G01*
X15585800Y-16636500D02*
G75*
G03*
X15585800Y-16636500I-40000J0D01*
G01*
X15585800Y-16890500D02*
G75*
G03*
X15585800Y-16890500I-40000J0D01*
G01*
X15585800Y-17144500D02*
G75*
G03*
X15585800Y-17144500I-40000J0D01*
G01*
X15776300Y-4317500D02*
G75*
G03*
X15776300Y-4317500I-40000J0D01*
G01*
X15776300Y-4571500D02*
G75*
G03*
X15776300Y-4571500I-40000J0D01*
G01*
X15776300Y-4825500D02*
G75*
G03*
X15776300Y-4825500I-40000J0D01*
G01*
X15776300Y-5079500D02*
G75*
G03*
X15776300Y-5079500I-40000J0D01*
G01*
X15776300Y-5333500D02*
G75*
G03*
X15776300Y-5333500I-40000J0D01*
G01*
X15776300Y-5587500D02*
G75*
G03*
X15776300Y-5587500I-40000J0D01*
G01*
X15776300Y-5841500D02*
G75*
G03*
X15776300Y-5841500I-40000J0D01*
G01*
X15776300Y-6095500D02*
G75*
G03*
X15776300Y-6095500I-40000J0D01*
G01*
X15776300Y-6349500D02*
G75*
G03*
X15776300Y-6349500I-40000J0D01*
G01*
X15776300Y-6603500D02*
G75*
G03*
X15776300Y-6603500I-40000J0D01*
G01*
X15776300Y-6857500D02*
G75*
G03*
X15776300Y-6857500I-40000J0D01*
G01*
X15776300Y-7111500D02*
G75*
G03*
X15776300Y-7111500I-40000J0D01*
G01*
X15776300Y-7365500D02*
G75*
G03*
X15776300Y-7365500I-40000J0D01*
G01*
X15776300Y-7619500D02*
G75*
G03*
X15776300Y-7619500I-40000J0D01*
G01*
X15776300Y-7873500D02*
G75*
G03*
X15776300Y-7873500I-40000J0D01*
G01*
X15776300Y-8127500D02*
G75*
G03*
X15776300Y-8127500I-40000J0D01*
G01*
X15776300Y-8381500D02*
G75*
G03*
X15776300Y-8381500I-40000J0D01*
G01*
X15776300Y-8635500D02*
G75*
G03*
X15776300Y-8635500I-40000J0D01*
G01*
X15776300Y-8889500D02*
G75*
G03*
X15776300Y-8889500I-40000J0D01*
G01*
X15776300Y-9143500D02*
G75*
G03*
X15776300Y-9143500I-40000J0D01*
G01*
X15776300Y-9397500D02*
G75*
G03*
X15776300Y-9397500I-40000J0D01*
G01*
X15776300Y-9651500D02*
G75*
G03*
X15776300Y-9651500I-40000J0D01*
G01*
X15776300Y-9905500D02*
G75*
G03*
X15776300Y-9905500I-40000J0D01*
G01*
X15776300Y-10159500D02*
G75*
G03*
X15776300Y-10159500I-40000J0D01*
G01*
X15776300Y-10413500D02*
G75*
G03*
X15776300Y-10413500I-40000J0D01*
G01*
X15776300Y-10921500D02*
G75*
G03*
X15776300Y-10921500I-40000J0D01*
G01*
X15776300Y-11175500D02*
G75*
G03*
X15776300Y-11175500I-40000J0D01*
G01*
X15776300Y-11429500D02*
G75*
G03*
X15776300Y-11429500I-40000J0D01*
G01*
X15776300Y-11683500D02*
G75*
G03*
X15776300Y-11683500I-40000J0D01*
G01*
X15776300Y-11937500D02*
G75*
G03*
X15776300Y-11937500I-40000J0D01*
G01*
X15776300Y-12191500D02*
G75*
G03*
X15776300Y-12191500I-40000J0D01*
G01*
X15776300Y-12445500D02*
G75*
G03*
X15776300Y-12445500I-40000J0D01*
G01*
X15776300Y-12699500D02*
G75*
G03*
X15776300Y-12699500I-40000J0D01*
G01*
X15776300Y-12953500D02*
G75*
G03*
X15776300Y-12953500I-40000J0D01*
G01*
X15776300Y-13207500D02*
G75*
G03*
X15776300Y-13207500I-40000J0D01*
G01*
X15776300Y-13461500D02*
G75*
G03*
X15776300Y-13461500I-40000J0D01*
G01*
X15776300Y-13715500D02*
G75*
G03*
X15776300Y-13715500I-40000J0D01*
G01*
X15776300Y-13969500D02*
G75*
G03*
X15776300Y-13969500I-40000J0D01*
G01*
X15776300Y-14223500D02*
G75*
G03*
X15776300Y-14223500I-40000J0D01*
G01*
X15776300Y-14477500D02*
G75*
G03*
X15776300Y-14477500I-40000J0D01*
G01*
X15776300Y-14731500D02*
G75*
G03*
X15776300Y-14731500I-40000J0D01*
G01*
X15776300Y-14985500D02*
G75*
G03*
X15776300Y-14985500I-40000J0D01*
G01*
X15776300Y-15239500D02*
G75*
G03*
X15776300Y-15239500I-40000J0D01*
G01*
X15776300Y-15493500D02*
G75*
G03*
X15776300Y-15493500I-40000J0D01*
G01*
X15776300Y-15747500D02*
G75*
G03*
X15776300Y-15747500I-40000J0D01*
G01*
X15776300Y-16001500D02*
G75*
G03*
X15776300Y-16001500I-40000J0D01*
G01*
X15776300Y-16255500D02*
G75*
G03*
X15776300Y-16255500I-40000J0D01*
G01*
X15776300Y-16509500D02*
G75*
G03*
X15776300Y-16509500I-40000J0D01*
G01*
X15776300Y-16763500D02*
G75*
G03*
X15776300Y-16763500I-40000J0D01*
G01*
X15776300Y-17017500D02*
G75*
G03*
X15776300Y-17017500I-40000J0D01*
G01*
X15966800Y-4444500D02*
G75*
G03*
X15966800Y-4444500I-40000J0D01*
G01*
X15966800Y-4698500D02*
G75*
G03*
X15966800Y-4698500I-40000J0D01*
G01*
X15966800Y-4952500D02*
G75*
G03*
X15966800Y-4952500I-40000J0D01*
G01*
X15966800Y-5206500D02*
G75*
G03*
X15966800Y-5206500I-40000J0D01*
G01*
X15966800Y-5460500D02*
G75*
G03*
X15966800Y-5460500I-40000J0D01*
G01*
X15966800Y-5714500D02*
G75*
G03*
X15966800Y-5714500I-40000J0D01*
G01*
X15966800Y-5968500D02*
G75*
G03*
X15966800Y-5968500I-40000J0D01*
G01*
X15966800Y-6222500D02*
G75*
G03*
X15966800Y-6222500I-40000J0D01*
G01*
X15966800Y-6476500D02*
G75*
G03*
X15966800Y-6476500I-40000J0D01*
G01*
X15966800Y-6730500D02*
G75*
G03*
X15966800Y-6730500I-40000J0D01*
G01*
X15966800Y-6984500D02*
G75*
G03*
X15966800Y-6984500I-40000J0D01*
G01*
X15966800Y-7238500D02*
G75*
G03*
X15966800Y-7238500I-40000J0D01*
G01*
X15966800Y-7492500D02*
G75*
G03*
X15966800Y-7492500I-40000J0D01*
G01*
X15966800Y-7746500D02*
G75*
G03*
X15966800Y-7746500I-40000J0D01*
G01*
X15966800Y-8000500D02*
G75*
G03*
X15966800Y-8000500I-40000J0D01*
G01*
X15966800Y-8254500D02*
G75*
G03*
X15966800Y-8254500I-40000J0D01*
G01*
X15966800Y-8508500D02*
G75*
G03*
X15966800Y-8508500I-40000J0D01*
G01*
X15966800Y-8762500D02*
G75*
G03*
X15966800Y-8762500I-40000J0D01*
G01*
X15966800Y-9016500D02*
G75*
G03*
X15966800Y-9016500I-40000J0D01*
G01*
X15966800Y-9270500D02*
G75*
G03*
X15966800Y-9270500I-40000J0D01*
G01*
X15966800Y-9524500D02*
G75*
G03*
X15966800Y-9524500I-40000J0D01*
G01*
X15966800Y-9778500D02*
G75*
G03*
X15966800Y-9778500I-40000J0D01*
G01*
X15966800Y-10032500D02*
G75*
G03*
X15966800Y-10032500I-40000J0D01*
G01*
X15966800Y-10286500D02*
G75*
G03*
X15966800Y-10286500I-40000J0D01*
G01*
X15966800Y-10540500D02*
G75*
G03*
X15966800Y-10540500I-40000J0D01*
G01*
X15966800Y-11048500D02*
G75*
G03*
X15966800Y-11048500I-40000J0D01*
G01*
X15966800Y-11302500D02*
G75*
G03*
X15966800Y-11302500I-40000J0D01*
G01*
X15966800Y-11556500D02*
G75*
G03*
X15966800Y-11556500I-40000J0D01*
G01*
X15966800Y-11810500D02*
G75*
G03*
X15966800Y-11810500I-40000J0D01*
G01*
X15966800Y-12064500D02*
G75*
G03*
X15966800Y-12064500I-40000J0D01*
G01*
X15966800Y-12318500D02*
G75*
G03*
X15966800Y-12318500I-40000J0D01*
G01*
X15966800Y-12572500D02*
G75*
G03*
X15966800Y-12572500I-40000J0D01*
G01*
X15966800Y-12826500D02*
G75*
G03*
X15966800Y-12826500I-40000J0D01*
G01*
X15966800Y-13080500D02*
G75*
G03*
X15966800Y-13080500I-40000J0D01*
G01*
X15966800Y-13334500D02*
G75*
G03*
X15966800Y-13334500I-40000J0D01*
G01*
X15966800Y-13588500D02*
G75*
G03*
X15966800Y-13588500I-40000J0D01*
G01*
X15966800Y-13842500D02*
G75*
G03*
X15966800Y-13842500I-40000J0D01*
G01*
X15966800Y-14096500D02*
G75*
G03*
X15966800Y-14096500I-40000J0D01*
G01*
X15966800Y-14350500D02*
G75*
G03*
X15966800Y-14350500I-40000J0D01*
G01*
X15966800Y-14604500D02*
G75*
G03*
X15966800Y-14604500I-40000J0D01*
G01*
X15966800Y-14858500D02*
G75*
G03*
X15966800Y-14858500I-40000J0D01*
G01*
X15966800Y-15112500D02*
G75*
G03*
X15966800Y-15112500I-40000J0D01*
G01*
X15966800Y-15366500D02*
G75*
G03*
X15966800Y-15366500I-40000J0D01*
G01*
X15966800Y-15620500D02*
G75*
G03*
X15966800Y-15620500I-40000J0D01*
G01*
X15966800Y-15874500D02*
G75*
G03*
X15966800Y-15874500I-40000J0D01*
G01*
X15966800Y-16128500D02*
G75*
G03*
X15966800Y-16128500I-40000J0D01*
G01*
X15966800Y-16382500D02*
G75*
G03*
X15966800Y-16382500I-40000J0D01*
G01*
X15966800Y-16636500D02*
G75*
G03*
X15966800Y-16636500I-40000J0D01*
G01*
X15966800Y-16890500D02*
G75*
G03*
X15966800Y-16890500I-40000J0D01*
G01*
X15966800Y-17144500D02*
G75*
G03*
X15966800Y-17144500I-40000J0D01*
G01*
X16157300Y-4317500D02*
G75*
G03*
X16157300Y-4317500I-40000J0D01*
G01*
X16157300Y-4571500D02*
G75*
G03*
X16157300Y-4571500I-40000J0D01*
G01*
X16157300Y-4825500D02*
G75*
G03*
X16157300Y-4825500I-40000J0D01*
G01*
X16157300Y-5079500D02*
G75*
G03*
X16157300Y-5079500I-40000J0D01*
G01*
X16157300Y-5333500D02*
G75*
G03*
X16157300Y-5333500I-40000J0D01*
G01*
X16157300Y-5587500D02*
G75*
G03*
X16157300Y-5587500I-40000J0D01*
G01*
X16157300Y-5841500D02*
G75*
G03*
X16157300Y-5841500I-40000J0D01*
G01*
X16157300Y-6095500D02*
G75*
G03*
X16157300Y-6095500I-40000J0D01*
G01*
X16157300Y-6349500D02*
G75*
G03*
X16157300Y-6349500I-40000J0D01*
G01*
X16157300Y-6603500D02*
G75*
G03*
X16157300Y-6603500I-40000J0D01*
G01*
X16157300Y-6857500D02*
G75*
G03*
X16157300Y-6857500I-40000J0D01*
G01*
X16157300Y-7111500D02*
G75*
G03*
X16157300Y-7111500I-40000J0D01*
G01*
X16157300Y-7365500D02*
G75*
G03*
X16157300Y-7365500I-40000J0D01*
G01*
X16157300Y-7619500D02*
G75*
G03*
X16157300Y-7619500I-40000J0D01*
G01*
X16157300Y-7873500D02*
G75*
G03*
X16157300Y-7873500I-40000J0D01*
G01*
X16157300Y-8127500D02*
G75*
G03*
X16157300Y-8127500I-40000J0D01*
G01*
X16157300Y-8381500D02*
G75*
G03*
X16157300Y-8381500I-40000J0D01*
G01*
X16157300Y-8635500D02*
G75*
G03*
X16157300Y-8635500I-40000J0D01*
G01*
X16157300Y-8889500D02*
G75*
G03*
X16157300Y-8889500I-40000J0D01*
G01*
X16157300Y-9143500D02*
G75*
G03*
X16157300Y-9143500I-40000J0D01*
G01*
X16157300Y-9397500D02*
G75*
G03*
X16157300Y-9397500I-40000J0D01*
G01*
X16157300Y-9651500D02*
G75*
G03*
X16157300Y-9651500I-40000J0D01*
G01*
X16157300Y-9905500D02*
G75*
G03*
X16157300Y-9905500I-40000J0D01*
G01*
X16157300Y-10159500D02*
G75*
G03*
X16157300Y-10159500I-40000J0D01*
G01*
X16157300Y-10413500D02*
G75*
G03*
X16157300Y-10413500I-40000J0D01*
G01*
X16157300Y-10921500D02*
G75*
G03*
X16157300Y-10921500I-40000J0D01*
G01*
X16157300Y-11175500D02*
G75*
G03*
X16157300Y-11175500I-40000J0D01*
G01*
X16157300Y-11429500D02*
G75*
G03*
X16157300Y-11429500I-40000J0D01*
G01*
X16157300Y-11683500D02*
G75*
G03*
X16157300Y-11683500I-40000J0D01*
G01*
X16157300Y-11937500D02*
G75*
G03*
X16157300Y-11937500I-40000J0D01*
G01*
X16157300Y-12191500D02*
G75*
G03*
X16157300Y-12191500I-40000J0D01*
G01*
X16157300Y-12445500D02*
G75*
G03*
X16157300Y-12445500I-40000J0D01*
G01*
X16157300Y-12699500D02*
G75*
G03*
X16157300Y-12699500I-40000J0D01*
G01*
X16157300Y-12953500D02*
G75*
G03*
X16157300Y-12953500I-40000J0D01*
G01*
X16157300Y-13207500D02*
G75*
G03*
X16157300Y-13207500I-40000J0D01*
G01*
X16157300Y-13461500D02*
G75*
G03*
X16157300Y-13461500I-40000J0D01*
G01*
X16157300Y-13715500D02*
G75*
G03*
X16157300Y-13715500I-40000J0D01*
G01*
X16157300Y-13969500D02*
G75*
G03*
X16157300Y-13969500I-40000J0D01*
G01*
X16157300Y-14223500D02*
G75*
G03*
X16157300Y-14223500I-40000J0D01*
G01*
X16157300Y-14477500D02*
G75*
G03*
X16157300Y-14477500I-40000J0D01*
G01*
X16157300Y-14731500D02*
G75*
G03*
X16157300Y-14731500I-40000J0D01*
G01*
X16157300Y-14985500D02*
G75*
G03*
X16157300Y-14985500I-40000J0D01*
G01*
X16157300Y-15239500D02*
G75*
G03*
X16157300Y-15239500I-40000J0D01*
G01*
X16157300Y-15493500D02*
G75*
G03*
X16157300Y-15493500I-40000J0D01*
G01*
X16157300Y-15747500D02*
G75*
G03*
X16157300Y-15747500I-40000J0D01*
G01*
X16157300Y-16001500D02*
G75*
G03*
X16157300Y-16001500I-40000J0D01*
G01*
X16157300Y-16255500D02*
G75*
G03*
X16157300Y-16255500I-40000J0D01*
G01*
X16157300Y-16509500D02*
G75*
G03*
X16157300Y-16509500I-40000J0D01*
G01*
X16157300Y-16763500D02*
G75*
G03*
X16157300Y-16763500I-40000J0D01*
G01*
X16157300Y-17017500D02*
G75*
G03*
X16157300Y-17017500I-40000J0D01*
G01*
X15825200Y-3885000D02*
X15825200Y-4115000D01*
X15710200Y-4000000D02*
X15940200Y-4000000D01*
X15825200Y-17347000D02*
X15825200Y-17577000D01*
X15710200Y-17462000D02*
X15940200Y-17462000D01*
D12*
X4746708Y-18167950D02*
X4746708Y-17867950D01*
X4818137Y-17867950D01*
X4860994Y-17882236D01*
X4889566Y-17910808D01*
X4903851Y-17939379D01*
X4918137Y-17996522D01*
X4918137Y-18039379D01*
X4903851Y-18096522D01*
X4889566Y-18125093D01*
X4860994Y-18153665D01*
X4818137Y-18167950D01*
X4746708Y-18167950D01*
X5046708Y-18167950D02*
X5046708Y-17967950D01*
X5046708Y-18025093D02*
X5060994Y-17996522D01*
X5075280Y-17982236D01*
X5103851Y-17967950D01*
X5132423Y-17967950D01*
X5232423Y-18167950D02*
X5232423Y-17967950D01*
X5232423Y-17867950D02*
X5218137Y-17882236D01*
X5232423Y-17896522D01*
X5246708Y-17882236D01*
X5232423Y-17867950D01*
X5232423Y-17896522D01*
X5418137Y-18167950D02*
X5389566Y-18153665D01*
X5375280Y-18125093D01*
X5375280Y-17867950D01*
X5575280Y-18167950D02*
X5546708Y-18153665D01*
X5532423Y-18125093D01*
X5532423Y-17867950D01*
X5918137Y-18167950D02*
X5918137Y-17867950D01*
X6018137Y-18082236D01*
X6118137Y-17867950D01*
X6118137Y-18167950D01*
X6389566Y-18167950D02*
X6389566Y-18010808D01*
X6375280Y-17982236D01*
X6346708Y-17967950D01*
X6289566Y-17967950D01*
X6260994Y-17982236D01*
X6389566Y-18153665D02*
X6360994Y-18167950D01*
X6289566Y-18167950D01*
X6260994Y-18153665D01*
X6246708Y-18125093D01*
X6246708Y-18096522D01*
X6260994Y-18067950D01*
X6289566Y-18053665D01*
X6360994Y-18053665D01*
X6389566Y-18039379D01*
X6532423Y-17967950D02*
X6532423Y-18267950D01*
X6532423Y-17982236D02*
X6560994Y-17967950D01*
X6618137Y-17967950D01*
X6646708Y-17982236D01*
X6660994Y-17996522D01*
X6675280Y-18025093D01*
X6675280Y-18110808D01*
X6660994Y-18139379D01*
X6646708Y-18153665D01*
X6618137Y-18167950D01*
X6560994Y-18167950D01*
X6532423Y-18153665D01*
X6803851Y-18139379D02*
X6818137Y-18153665D01*
X6803851Y-18167950D01*
X6789566Y-18153665D01*
X6803851Y-18139379D01*
X6803851Y-18167950D01*
X6803851Y-17982236D02*
X6818137Y-17996522D01*
X6803851Y-18010808D01*
X6789566Y-17996522D01*
X6803851Y-17982236D01*
X6803851Y-18010808D01*
X4440280Y-18652236D02*
X4460280Y-18672236D01*
X4460280Y-18652236D02*
X4440280Y-18672236D01*
X4803851Y-18497950D02*
X4832423Y-18497950D01*
X4860994Y-18512236D01*
X4875280Y-18526522D01*
X4889566Y-18555093D01*
X4903851Y-18612236D01*
X4903851Y-18683665D01*
X4889566Y-18740808D01*
X4875280Y-18769379D01*
X4860994Y-18783665D01*
X4832423Y-18797950D01*
X4803851Y-18797950D01*
X4775280Y-18783665D01*
X4760994Y-18769379D01*
X4746708Y-18740808D01*
X4732423Y-18683665D01*
X4732423Y-18612236D01*
X4746708Y-18555093D01*
X4760994Y-18526522D01*
X4775280Y-18512236D01*
X4803851Y-18497950D01*
X5032423Y-18769379D02*
X5046708Y-18783665D01*
X5032423Y-18797950D01*
X5018137Y-18783665D01*
X5032423Y-18769379D01*
X5032423Y-18797950D01*
X5160994Y-18526522D02*
X5175280Y-18512236D01*
X5203851Y-18497950D01*
X5275280Y-18497950D01*
X5303851Y-18512236D01*
X5318137Y-18526522D01*
X5332423Y-18555093D01*
X5332423Y-18583665D01*
X5318137Y-18626522D01*
X5146708Y-18797950D01*
X5332423Y-18797950D01*
X5518137Y-18497950D02*
X5546708Y-18497950D01*
X5575280Y-18512236D01*
X5589566Y-18526522D01*
X5603851Y-18555093D01*
X5618137Y-18612236D01*
X5618137Y-18683665D01*
X5603851Y-18740808D01*
X5589566Y-18769379D01*
X5575280Y-18783665D01*
X5546708Y-18797950D01*
X5518137Y-18797950D01*
X5489566Y-18783665D01*
X5475280Y-18769379D01*
X5460994Y-18740808D01*
X5446708Y-18683665D01*
X5446708Y-18612236D01*
X5460994Y-18555093D01*
X5475280Y-18526522D01*
X5489566Y-18512236D01*
X5518137Y-18497950D01*
X5746708Y-18797950D02*
X5746708Y-18597950D01*
X5746708Y-18626522D02*
X5760994Y-18612236D01*
X5789566Y-18597950D01*
X5832423Y-18597950D01*
X5860994Y-18612236D01*
X5875280Y-18640808D01*
X5875280Y-18797950D01*
X5875280Y-18640808D02*
X5889566Y-18612236D01*
X5918137Y-18597950D01*
X5960994Y-18597950D01*
X5989566Y-18612236D01*
X6003851Y-18640808D01*
X6003851Y-18797950D01*
X6146708Y-18797950D02*
X6146708Y-18597950D01*
X6146708Y-18626522D02*
X6160994Y-18612236D01*
X6189566Y-18597950D01*
X6232423Y-18597950D01*
X6260994Y-18612236D01*
X6275280Y-18640808D01*
X6275280Y-18797950D01*
X6275280Y-18640808D02*
X6289566Y-18612236D01*
X6318137Y-18597950D01*
X6360994Y-18597950D01*
X6389566Y-18612236D01*
X6403851Y-18640808D01*
X6403851Y-18797950D01*
X6989566Y-18483665D02*
X6732423Y-18869379D01*
X7375280Y-18497950D02*
X7403851Y-18497950D01*
X7432423Y-18512236D01*
X7446708Y-18526522D01*
X7460994Y-18555093D01*
X7475280Y-18612236D01*
X7475280Y-18683665D01*
X7460994Y-18740808D01*
X7446708Y-18769379D01*
X7432423Y-18783665D01*
X7403851Y-18797950D01*
X7375280Y-18797950D01*
X7346708Y-18783665D01*
X7332423Y-18769379D01*
X7318137Y-18740808D01*
X7303851Y-18683665D01*
X7303851Y-18612236D01*
X7318137Y-18555093D01*
X7332423Y-18526522D01*
X7346708Y-18512236D01*
X7375280Y-18497950D01*
X7603851Y-18769379D02*
X7618137Y-18783665D01*
X7603851Y-18797950D01*
X7589566Y-18783665D01*
X7603851Y-18769379D01*
X7603851Y-18797950D01*
X7803851Y-18497950D02*
X7832423Y-18497950D01*
X7860994Y-18512236D01*
X7875280Y-18526522D01*
X7889566Y-18555093D01*
X7903851Y-18612236D01*
X7903851Y-18683665D01*
X7889566Y-18740808D01*
X7875280Y-18769379D01*
X7860994Y-18783665D01*
X7832423Y-18797950D01*
X7803851Y-18797950D01*
X7775280Y-18783665D01*
X7760994Y-18769379D01*
X7746708Y-18740808D01*
X7732423Y-18683665D01*
X7732423Y-18612236D01*
X7746708Y-18555093D01*
X7760994Y-18526522D01*
X7775280Y-18512236D01*
X7803851Y-18497950D01*
X8089566Y-18497950D02*
X8118137Y-18497950D01*
X8146708Y-18512236D01*
X8160994Y-18526522D01*
X8175280Y-18555093D01*
X8189566Y-18612236D01*
X8189566Y-18683665D01*
X8175280Y-18740808D01*
X8160994Y-18769379D01*
X8146708Y-18783665D01*
X8118137Y-18797950D01*
X8089566Y-18797950D01*
X8060994Y-18783665D01*
X8046708Y-18769379D01*
X8032423Y-18740808D01*
X8018137Y-18683665D01*
X8018137Y-18612236D01*
X8032423Y-18555093D01*
X8046708Y-18526522D01*
X8060994Y-18512236D01*
X8089566Y-18497950D01*
X8360994Y-18626522D02*
X8332423Y-18612236D01*
X8318137Y-18597950D01*
X8303851Y-18569379D01*
X8303851Y-18555093D01*
X8318137Y-18526522D01*
X8332423Y-18512236D01*
X8360994Y-18497950D01*
X8418137Y-18497950D01*
X8446708Y-18512236D01*
X8460994Y-18526522D01*
X8475280Y-18555093D01*
X8475280Y-18569379D01*
X8460994Y-18597950D01*
X8446708Y-18612236D01*
X8418137Y-18626522D01*
X8360994Y-18626522D01*
X8332423Y-18640808D01*
X8318137Y-18655093D01*
X8303851Y-18683665D01*
X8303851Y-18740808D01*
X8318137Y-18769379D01*
X8332423Y-18783665D01*
X8360994Y-18797950D01*
X8418137Y-18797950D01*
X8446708Y-18783665D01*
X8460994Y-18769379D01*
X8475280Y-18740808D01*
X8475280Y-18683665D01*
X8460994Y-18655093D01*
X8446708Y-18640808D01*
X8418137Y-18626522D01*
X8589566Y-18497950D02*
X8589566Y-18555093D01*
X8703851Y-18497950D02*
X8703851Y-18555093D01*
X9146708Y-18912236D02*
X9132423Y-18897950D01*
X9103851Y-18855093D01*
X9089566Y-18826522D01*
X9075280Y-18783665D01*
X9060994Y-18712236D01*
X9060994Y-18655093D01*
X9075280Y-18583665D01*
X9089566Y-18540808D01*
X9103851Y-18512236D01*
X9132423Y-18469379D01*
X9146708Y-18455093D01*
X9418137Y-18797950D02*
X9246708Y-18797950D01*
X9332423Y-18797950D02*
X9332423Y-18497950D01*
X9303851Y-18540808D01*
X9275280Y-18569379D01*
X9246708Y-18583665D01*
X9675280Y-18497950D02*
X9618137Y-18497950D01*
X9589566Y-18512236D01*
X9575280Y-18526522D01*
X9546708Y-18569379D01*
X9532423Y-18626522D01*
X9532423Y-18740808D01*
X9546708Y-18769379D01*
X9560994Y-18783665D01*
X9589566Y-18797950D01*
X9646708Y-18797950D01*
X9675280Y-18783665D01*
X9689566Y-18769379D01*
X9703851Y-18740808D01*
X9703851Y-18669379D01*
X9689566Y-18640808D01*
X9675280Y-18626522D01*
X9646708Y-18612236D01*
X9589566Y-18612236D01*
X9560994Y-18626522D01*
X9546708Y-18640808D01*
X9532423Y-18669379D01*
X9846708Y-18797950D02*
X9903851Y-18797950D01*
X9932423Y-18783665D01*
X9946708Y-18769379D01*
X9975280Y-18726522D01*
X9989566Y-18669379D01*
X9989566Y-18555093D01*
X9975280Y-18526522D01*
X9960994Y-18512236D01*
X9932423Y-18497950D01*
X9875280Y-18497950D01*
X9846708Y-18512236D01*
X9832423Y-18526522D01*
X9818137Y-18555093D01*
X9818137Y-18626522D01*
X9832423Y-18655093D01*
X9846708Y-18669379D01*
X9875280Y-18683665D01*
X9932423Y-18683665D01*
X9960994Y-18669379D01*
X9975280Y-18655093D01*
X9989566Y-18626522D01*
X10346708Y-18797950D02*
X10346708Y-18497950D01*
X10475280Y-18797950D02*
X10475280Y-18640808D01*
X10460994Y-18612236D01*
X10432423Y-18597950D01*
X10389566Y-18597950D01*
X10360994Y-18612236D01*
X10346708Y-18626522D01*
X10660994Y-18797950D02*
X10632423Y-18783665D01*
X10618137Y-18769379D01*
X10603851Y-18740808D01*
X10603851Y-18655093D01*
X10618137Y-18626522D01*
X10632423Y-18612236D01*
X10660994Y-18597950D01*
X10703851Y-18597950D01*
X10732423Y-18612236D01*
X10746708Y-18626522D01*
X10760994Y-18655093D01*
X10760994Y-18740808D01*
X10746708Y-18769379D01*
X10732423Y-18783665D01*
X10703851Y-18797950D01*
X10660994Y-18797950D01*
X10932423Y-18797950D02*
X10903851Y-18783665D01*
X10889566Y-18755093D01*
X10889566Y-18497950D01*
X11160994Y-18783665D02*
X11132423Y-18797950D01*
X11075280Y-18797950D01*
X11046708Y-18783665D01*
X11032423Y-18755093D01*
X11032423Y-18640808D01*
X11046708Y-18612236D01*
X11075280Y-18597950D01*
X11132423Y-18597950D01*
X11160994Y-18612236D01*
X11175280Y-18640808D01*
X11175280Y-18669379D01*
X11032423Y-18697950D01*
X11289566Y-18783665D02*
X11318137Y-18797950D01*
X11375280Y-18797950D01*
X11403851Y-18783665D01*
X11418137Y-18755093D01*
X11418137Y-18740808D01*
X11403851Y-18712236D01*
X11375280Y-18697950D01*
X11332423Y-18697950D01*
X11303851Y-18683665D01*
X11289566Y-18655093D01*
X11289566Y-18640808D01*
X11303851Y-18612236D01*
X11332423Y-18597950D01*
X11375280Y-18597950D01*
X11403851Y-18612236D01*
X11518137Y-18912236D02*
X11532423Y-18897950D01*
X11560994Y-18855093D01*
X11575280Y-18826522D01*
X11589566Y-18783665D01*
X11603851Y-18712236D01*
X11603851Y-18655093D01*
X11589566Y-18583665D01*
X11575280Y-18540808D01*
X11560994Y-18512236D01*
X11532423Y-18469379D01*
X11518137Y-18455093D01*
X4460280Y-19058236D02*
G75*
G03*
X4460280Y-19058236I-40000J0D01*
G01*
X4803851Y-18893950D02*
X4832423Y-18893950D01*
X4860994Y-18908236D01*
X4875280Y-18922522D01*
X4889566Y-18951093D01*
X4903851Y-19008236D01*
X4903851Y-19079665D01*
X4889566Y-19136808D01*
X4875280Y-19165379D01*
X4860994Y-19179665D01*
X4832423Y-19193950D01*
X4803851Y-19193950D01*
X4775280Y-19179665D01*
X4760994Y-19165379D01*
X4746708Y-19136808D01*
X4732423Y-19079665D01*
X4732423Y-19008236D01*
X4746708Y-18951093D01*
X4760994Y-18922522D01*
X4775280Y-18908236D01*
X4803851Y-18893950D01*
X5032423Y-19165379D02*
X5046708Y-19179665D01*
X5032423Y-19193950D01*
X5018137Y-19179665D01*
X5032423Y-19165379D01*
X5032423Y-19193950D01*
X5218137Y-19022522D02*
X5189566Y-19008236D01*
X5175280Y-18993950D01*
X5160994Y-18965379D01*
X5160994Y-18951093D01*
X5175280Y-18922522D01*
X5189566Y-18908236D01*
X5218137Y-18893950D01*
X5275280Y-18893950D01*
X5303851Y-18908236D01*
X5318137Y-18922522D01*
X5332423Y-18951093D01*
X5332423Y-18965379D01*
X5318137Y-18993950D01*
X5303851Y-19008236D01*
X5275280Y-19022522D01*
X5218137Y-19022522D01*
X5189566Y-19036808D01*
X5175280Y-19051093D01*
X5160994Y-19079665D01*
X5160994Y-19136808D01*
X5175280Y-19165379D01*
X5189566Y-19179665D01*
X5218137Y-19193950D01*
X5275280Y-19193950D01*
X5303851Y-19179665D01*
X5318137Y-19165379D01*
X5332423Y-19136808D01*
X5332423Y-19079665D01*
X5318137Y-19051093D01*
X5303851Y-19036808D01*
X5275280Y-19022522D01*
X5518137Y-18893950D02*
X5546708Y-18893950D01*
X5575280Y-18908236D01*
X5589566Y-18922522D01*
X5603851Y-18951093D01*
X5618137Y-19008236D01*
X5618137Y-19079665D01*
X5603851Y-19136808D01*
X5589566Y-19165379D01*
X5575280Y-19179665D01*
X5546708Y-19193950D01*
X5518137Y-19193950D01*
X5489566Y-19179665D01*
X5475280Y-19165379D01*
X5460994Y-19136808D01*
X5446708Y-19079665D01*
X5446708Y-19008236D01*
X5460994Y-18951093D01*
X5475280Y-18922522D01*
X5489566Y-18908236D01*
X5518137Y-18893950D01*
X5746708Y-19193950D02*
X5746708Y-18993950D01*
X5746708Y-19022522D02*
X5760994Y-19008236D01*
X5789566Y-18993950D01*
X5832423Y-18993950D01*
X5860994Y-19008236D01*
X5875280Y-19036808D01*
X5875280Y-19193950D01*
X5875280Y-19036808D02*
X5889566Y-19008236D01*
X5918137Y-18993950D01*
X5960994Y-18993950D01*
X5989566Y-19008236D01*
X6003851Y-19036808D01*
X6003851Y-19193950D01*
X6146708Y-19193950D02*
X6146708Y-18993950D01*
X6146708Y-19022522D02*
X6160994Y-19008236D01*
X6189566Y-18993950D01*
X6232423Y-18993950D01*
X6260994Y-19008236D01*
X6275280Y-19036808D01*
X6275280Y-19193950D01*
X6275280Y-19036808D02*
X6289566Y-19008236D01*
X6318137Y-18993950D01*
X6360994Y-18993950D01*
X6389566Y-19008236D01*
X6403851Y-19036808D01*
X6403851Y-19193950D01*
X6989566Y-18879665D02*
X6732423Y-19265379D01*
X7375280Y-18893950D02*
X7403851Y-18893950D01*
X7432423Y-18908236D01*
X7446708Y-18922522D01*
X7460994Y-18951093D01*
X7475280Y-19008236D01*
X7475280Y-19079665D01*
X7460994Y-19136808D01*
X7446708Y-19165379D01*
X7432423Y-19179665D01*
X7403851Y-19193950D01*
X7375280Y-19193950D01*
X7346708Y-19179665D01*
X7332423Y-19165379D01*
X7318137Y-19136808D01*
X7303851Y-19079665D01*
X7303851Y-19008236D01*
X7318137Y-18951093D01*
X7332423Y-18922522D01*
X7346708Y-18908236D01*
X7375280Y-18893950D01*
X7603851Y-19165379D02*
X7618137Y-19179665D01*
X7603851Y-19193950D01*
X7589566Y-19179665D01*
X7603851Y-19165379D01*
X7603851Y-19193950D01*
X7803851Y-18893950D02*
X7832423Y-18893950D01*
X7860994Y-18908236D01*
X7875280Y-18922522D01*
X7889566Y-18951093D01*
X7903851Y-19008236D01*
X7903851Y-19079665D01*
X7889566Y-19136808D01*
X7875280Y-19165379D01*
X7860994Y-19179665D01*
X7832423Y-19193950D01*
X7803851Y-19193950D01*
X7775280Y-19179665D01*
X7760994Y-19165379D01*
X7746708Y-19136808D01*
X7732423Y-19079665D01*
X7732423Y-19008236D01*
X7746708Y-18951093D01*
X7760994Y-18922522D01*
X7775280Y-18908236D01*
X7803851Y-18893950D01*
X8003851Y-18893950D02*
X8189566Y-18893950D01*
X8089566Y-19008236D01*
X8132423Y-19008236D01*
X8160994Y-19022522D01*
X8175280Y-19036808D01*
X8189566Y-19065379D01*
X8189566Y-19136808D01*
X8175280Y-19165379D01*
X8160994Y-19179665D01*
X8132423Y-19193950D01*
X8046708Y-19193950D01*
X8018137Y-19179665D01*
X8003851Y-19165379D01*
X8475280Y-19193950D02*
X8303851Y-19193950D01*
X8389566Y-19193950D02*
X8389566Y-18893950D01*
X8360994Y-18936808D01*
X8332423Y-18965379D01*
X8303851Y-18979665D01*
X8589566Y-18893950D02*
X8589566Y-18951093D01*
X8703851Y-18893950D02*
X8703851Y-18951093D01*
X9146708Y-19308236D02*
X9132423Y-19293950D01*
X9103851Y-19251093D01*
X9089566Y-19222522D01*
X9075280Y-19179665D01*
X9060994Y-19108236D01*
X9060994Y-19051093D01*
X9075280Y-18979665D01*
X9089566Y-18936808D01*
X9103851Y-18908236D01*
X9132423Y-18865379D01*
X9146708Y-18851093D01*
X9246708Y-18922522D02*
X9260994Y-18908236D01*
X9289566Y-18893950D01*
X9360994Y-18893950D01*
X9389566Y-18908236D01*
X9403851Y-18922522D01*
X9418137Y-18951093D01*
X9418137Y-18979665D01*
X9403851Y-19022522D01*
X9232423Y-19193950D01*
X9418137Y-19193950D01*
X9603851Y-18893950D02*
X9632423Y-18893950D01*
X9660994Y-18908236D01*
X9675280Y-18922522D01*
X9689566Y-18951093D01*
X9703851Y-19008236D01*
X9703851Y-19079665D01*
X9689566Y-19136808D01*
X9675280Y-19165379D01*
X9660994Y-19179665D01*
X9632423Y-19193950D01*
X9603851Y-19193950D01*
X9575280Y-19179665D01*
X9560994Y-19165379D01*
X9546708Y-19136808D01*
X9532423Y-19079665D01*
X9532423Y-19008236D01*
X9546708Y-18951093D01*
X9560994Y-18922522D01*
X9575280Y-18908236D01*
X9603851Y-18893950D01*
X9889566Y-18893950D02*
X9918137Y-18893950D01*
X9946708Y-18908236D01*
X9960994Y-18922522D01*
X9975280Y-18951093D01*
X9989566Y-19008236D01*
X9989566Y-19079665D01*
X9975280Y-19136808D01*
X9960994Y-19165379D01*
X9946708Y-19179665D01*
X9918137Y-19193950D01*
X9889566Y-19193950D01*
X9860994Y-19179665D01*
X9846708Y-19165379D01*
X9832423Y-19136808D01*
X9818137Y-19079665D01*
X9818137Y-19008236D01*
X9832423Y-18951093D01*
X9846708Y-18922522D01*
X9860994Y-18908236D01*
X9889566Y-18893950D01*
X10346708Y-19193950D02*
X10346708Y-18893950D01*
X10475280Y-19193950D02*
X10475280Y-19036808D01*
X10460994Y-19008236D01*
X10432423Y-18993950D01*
X10389566Y-18993950D01*
X10360994Y-19008236D01*
X10346708Y-19022522D01*
X10660994Y-19193950D02*
X10632423Y-19179665D01*
X10618137Y-19165379D01*
X10603851Y-19136808D01*
X10603851Y-19051093D01*
X10618137Y-19022522D01*
X10632423Y-19008236D01*
X10660994Y-18993950D01*
X10703851Y-18993950D01*
X10732423Y-19008236D01*
X10746708Y-19022522D01*
X10760994Y-19051093D01*
X10760994Y-19136808D01*
X10746708Y-19165379D01*
X10732423Y-19179665D01*
X10703851Y-19193950D01*
X10660994Y-19193950D01*
X10932423Y-19193950D02*
X10903851Y-19179665D01*
X10889566Y-19151093D01*
X10889566Y-18893950D01*
X11160994Y-19179665D02*
X11132423Y-19193950D01*
X11075280Y-19193950D01*
X11046708Y-19179665D01*
X11032423Y-19151093D01*
X11032423Y-19036808D01*
X11046708Y-19008236D01*
X11075280Y-18993950D01*
X11132423Y-18993950D01*
X11160994Y-19008236D01*
X11175280Y-19036808D01*
X11175280Y-19065379D01*
X11032423Y-19093950D01*
X11289566Y-19179665D02*
X11318137Y-19193950D01*
X11375280Y-19193950D01*
X11403851Y-19179665D01*
X11418137Y-19151093D01*
X11418137Y-19136808D01*
X11403851Y-19108236D01*
X11375280Y-19093950D01*
X11332423Y-19093950D01*
X11303851Y-19079665D01*
X11289566Y-19051093D01*
X11289566Y-19036808D01*
X11303851Y-19008236D01*
X11332423Y-18993950D01*
X11375280Y-18993950D01*
X11403851Y-19008236D01*
X11518137Y-19308236D02*
X11532423Y-19293950D01*
X11560994Y-19251093D01*
X11575280Y-19222522D01*
X11589566Y-19179665D01*
X11603851Y-19108236D01*
X11603851Y-19051093D01*
X11589566Y-18979665D01*
X11575280Y-18936808D01*
X11560994Y-18908236D01*
X11532423Y-18865379D01*
X11518137Y-18851093D01*
X4345280Y-19339236D02*
X4345280Y-19569236D01*
X4230280Y-19454236D02*
X4460280Y-19454236D01*
X4732423Y-19318522D02*
X4746708Y-19304236D01*
X4775280Y-19289950D01*
X4846708Y-19289950D01*
X4875280Y-19304236D01*
X4889566Y-19318522D01*
X4903851Y-19347093D01*
X4903851Y-19375665D01*
X4889566Y-19418522D01*
X4718137Y-19589950D01*
X4903851Y-19589950D01*
X5032423Y-19561379D02*
X5046708Y-19575665D01*
X5032423Y-19589950D01*
X5018137Y-19575665D01*
X5032423Y-19561379D01*
X5032423Y-19589950D01*
X5146708Y-19289950D02*
X5332423Y-19289950D01*
X5232423Y-19404236D01*
X5275280Y-19404236D01*
X5303851Y-19418522D01*
X5318137Y-19432808D01*
X5332423Y-19461379D01*
X5332423Y-19532808D01*
X5318137Y-19561379D01*
X5303851Y-19575665D01*
X5275280Y-19589950D01*
X5189566Y-19589950D01*
X5160994Y-19575665D01*
X5146708Y-19561379D01*
X5518137Y-19289950D02*
X5546708Y-19289950D01*
X5575280Y-19304236D01*
X5589566Y-19318522D01*
X5603851Y-19347093D01*
X5618137Y-19404236D01*
X5618137Y-19475665D01*
X5603851Y-19532808D01*
X5589566Y-19561379D01*
X5575280Y-19575665D01*
X5546708Y-19589950D01*
X5518137Y-19589950D01*
X5489566Y-19575665D01*
X5475280Y-19561379D01*
X5460994Y-19532808D01*
X5446708Y-19475665D01*
X5446708Y-19404236D01*
X5460994Y-19347093D01*
X5475280Y-19318522D01*
X5489566Y-19304236D01*
X5518137Y-19289950D01*
X5746708Y-19589950D02*
X5746708Y-19389950D01*
X5746708Y-19418522D02*
X5760994Y-19404236D01*
X5789566Y-19389950D01*
X5832423Y-19389950D01*
X5860994Y-19404236D01*
X5875280Y-19432808D01*
X5875280Y-19589950D01*
X5875280Y-19432808D02*
X5889566Y-19404236D01*
X5918137Y-19389950D01*
X5960994Y-19389950D01*
X5989566Y-19404236D01*
X6003851Y-19432808D01*
X6003851Y-19589950D01*
X6146708Y-19589950D02*
X6146708Y-19389950D01*
X6146708Y-19418522D02*
X6160994Y-19404236D01*
X6189566Y-19389950D01*
X6232423Y-19389950D01*
X6260994Y-19404236D01*
X6275280Y-19432808D01*
X6275280Y-19589950D01*
X6275280Y-19432808D02*
X6289566Y-19404236D01*
X6318137Y-19389950D01*
X6360994Y-19389950D01*
X6389566Y-19404236D01*
X6403851Y-19432808D01*
X6403851Y-19589950D01*
X6989566Y-19275665D02*
X6732423Y-19661379D01*
X7375280Y-19289950D02*
X7403851Y-19289950D01*
X7432423Y-19304236D01*
X7446708Y-19318522D01*
X7460994Y-19347093D01*
X7475280Y-19404236D01*
X7475280Y-19475665D01*
X7460994Y-19532808D01*
X7446708Y-19561379D01*
X7432423Y-19575665D01*
X7403851Y-19589950D01*
X7375280Y-19589950D01*
X7346708Y-19575665D01*
X7332423Y-19561379D01*
X7318137Y-19532808D01*
X7303851Y-19475665D01*
X7303851Y-19404236D01*
X7318137Y-19347093D01*
X7332423Y-19318522D01*
X7346708Y-19304236D01*
X7375280Y-19289950D01*
X7603851Y-19561379D02*
X7618137Y-19575665D01*
X7603851Y-19589950D01*
X7589566Y-19575665D01*
X7603851Y-19561379D01*
X7603851Y-19589950D01*
X7803851Y-19289950D02*
X7832423Y-19289950D01*
X7860994Y-19304236D01*
X7875280Y-19318522D01*
X7889566Y-19347093D01*
X7903851Y-19404236D01*
X7903851Y-19475665D01*
X7889566Y-19532808D01*
X7875280Y-19561379D01*
X7860994Y-19575665D01*
X7832423Y-19589950D01*
X7803851Y-19589950D01*
X7775280Y-19575665D01*
X7760994Y-19561379D01*
X7746708Y-19532808D01*
X7732423Y-19475665D01*
X7732423Y-19404236D01*
X7746708Y-19347093D01*
X7760994Y-19318522D01*
X7775280Y-19304236D01*
X7803851Y-19289950D01*
X8046708Y-19589950D02*
X8103851Y-19589950D01*
X8132423Y-19575665D01*
X8146708Y-19561379D01*
X8175280Y-19518522D01*
X8189566Y-19461379D01*
X8189566Y-19347093D01*
X8175280Y-19318522D01*
X8160994Y-19304236D01*
X8132423Y-19289950D01*
X8075280Y-19289950D01*
X8046708Y-19304236D01*
X8032423Y-19318522D01*
X8018137Y-19347093D01*
X8018137Y-19418522D01*
X8032423Y-19447093D01*
X8046708Y-19461379D01*
X8075280Y-19475665D01*
X8132423Y-19475665D01*
X8160994Y-19461379D01*
X8175280Y-19447093D01*
X8189566Y-19418522D01*
X8475280Y-19589950D02*
X8303851Y-19589950D01*
X8389566Y-19589950D02*
X8389566Y-19289950D01*
X8360994Y-19332808D01*
X8332423Y-19361379D01*
X8303851Y-19375665D01*
X8589566Y-19289950D02*
X8589566Y-19347093D01*
X8703851Y-19289950D02*
X8703851Y-19347093D01*
X9146708Y-19704236D02*
X9132423Y-19689950D01*
X9103851Y-19647093D01*
X9089566Y-19618522D01*
X9075280Y-19575665D01*
X9060994Y-19504236D01*
X9060994Y-19447093D01*
X9075280Y-19375665D01*
X9089566Y-19332808D01*
X9103851Y-19304236D01*
X9132423Y-19261379D01*
X9146708Y-19247093D01*
X9246708Y-19318522D02*
X9260994Y-19304236D01*
X9289566Y-19289950D01*
X9360994Y-19289950D01*
X9389566Y-19304236D01*
X9403851Y-19318522D01*
X9418137Y-19347093D01*
X9418137Y-19375665D01*
X9403851Y-19418522D01*
X9232423Y-19589950D01*
X9418137Y-19589950D01*
X9775280Y-19589950D02*
X9775280Y-19289950D01*
X9903851Y-19589950D02*
X9903851Y-19432808D01*
X9889566Y-19404236D01*
X9860994Y-19389950D01*
X9818137Y-19389950D01*
X9789566Y-19404236D01*
X9775280Y-19418522D01*
X10089566Y-19589950D02*
X10060994Y-19575665D01*
X10046708Y-19561379D01*
X10032423Y-19532808D01*
X10032423Y-19447093D01*
X10046708Y-19418522D01*
X10060994Y-19404236D01*
X10089566Y-19389950D01*
X10132423Y-19389950D01*
X10160994Y-19404236D01*
X10175280Y-19418522D01*
X10189566Y-19447093D01*
X10189566Y-19532808D01*
X10175280Y-19561379D01*
X10160994Y-19575665D01*
X10132423Y-19589950D01*
X10089566Y-19589950D01*
X10360994Y-19589950D02*
X10332423Y-19575665D01*
X10318137Y-19547093D01*
X10318137Y-19289950D01*
X10589566Y-19575665D02*
X10560994Y-19589950D01*
X10503851Y-19589950D01*
X10475280Y-19575665D01*
X10460994Y-19547093D01*
X10460994Y-19432808D01*
X10475280Y-19404236D01*
X10503851Y-19389950D01*
X10560994Y-19389950D01*
X10589566Y-19404236D01*
X10603851Y-19432808D01*
X10603851Y-19461379D01*
X10460994Y-19489950D01*
X10718137Y-19575665D02*
X10746708Y-19589950D01*
X10803851Y-19589950D01*
X10832423Y-19575665D01*
X10846708Y-19547093D01*
X10846708Y-19532808D01*
X10832423Y-19504236D01*
X10803851Y-19489950D01*
X10760994Y-19489950D01*
X10732423Y-19475665D01*
X10718137Y-19447093D01*
X10718137Y-19432808D01*
X10732423Y-19404236D01*
X10760994Y-19389950D01*
X10803851Y-19389950D01*
X10832423Y-19404236D01*
X10946708Y-19704236D02*
X10960994Y-19689950D01*
X10989566Y-19647093D01*
X11003851Y-19618522D01*
X11018137Y-19575665D01*
X11032423Y-19504236D01*
X11032423Y-19447093D01*
X11018137Y-19375665D01*
X11003851Y-19332808D01*
X10989566Y-19304236D01*
X10960994Y-19261379D01*
X10946708Y-19247093D01*
M02*
