%TF.GenerationSoftware,KiCad,Pcbnew,(5.1.6)-1*%
%TF.CreationDate,2023-02-01T13:27:27-05:00*%
%TF.ProjectId,A1200-adapter,41313230-302d-4616-9461-707465722e6b,rev?*%
%TF.SameCoordinates,Original*%
%TF.FileFunction,Soldermask,Top*%
%TF.FilePolarity,Negative*%
%FSLAX46Y46*%
G04 Gerber Fmt 4.6, Leading zero omitted, Abs format (unit mm)*
G04 Created by KiCad (PCBNEW (5.1.6)-1) date 2023-02-01 13:27:27*
%MOMM*%
%LPD*%
G01*
G04 APERTURE LIST*
%ADD10C,1.300000*%
%ADD11R,1.300000X1.300000*%
%ADD12C,3.100000*%
%ADD13R,0.100000X0.100000*%
%ADD14R,1.000000X9.100000*%
G04 APERTURE END LIST*
D10*
%TO.C,CON1*%
X161173000Y-104135000D03*
X157363000Y-104135000D03*
X159268000Y-105405000D03*
X155458000Y-105405000D03*
X155458000Y-102865000D03*
X159268000Y-102865000D03*
X157363000Y-101595000D03*
X161173000Y-101595000D03*
X161173000Y-96515000D03*
X157363000Y-96515000D03*
X159268000Y-97785000D03*
X155458000Y-97785000D03*
X155458000Y-100325000D03*
X159268000Y-100325000D03*
X157363000Y-99055000D03*
X161173000Y-99055000D03*
X161173000Y-88895000D03*
X157363000Y-88895000D03*
X159268000Y-90165000D03*
X155458000Y-90165000D03*
X155458000Y-87625000D03*
X159268000Y-87625000D03*
X157363000Y-86355000D03*
X161173000Y-86355000D03*
X161173000Y-91435000D03*
X157363000Y-91435000D03*
X159268000Y-92705000D03*
X155458000Y-92705000D03*
X155458000Y-95245000D03*
X159268000Y-95245000D03*
X157363000Y-93975000D03*
X161173000Y-93975000D03*
X161173000Y-73655000D03*
X157363000Y-73655000D03*
X159268000Y-74925000D03*
X155458000Y-74925000D03*
X155458000Y-72385000D03*
X159268000Y-72385000D03*
X157363000Y-71115000D03*
X161173000Y-71115000D03*
X161173000Y-66035000D03*
X157363000Y-66035000D03*
X159268000Y-67305000D03*
X155458000Y-67305000D03*
X155458000Y-69845000D03*
X159268000Y-69845000D03*
X157363000Y-68575000D03*
X161173000Y-68575000D03*
X161173000Y-78735000D03*
X157363000Y-78735000D03*
X159268000Y-80005000D03*
X155458000Y-80005000D03*
X155458000Y-77465000D03*
X159268000Y-77465000D03*
X157363000Y-76195000D03*
X161173000Y-76195000D03*
X161173000Y-81275000D03*
X157363000Y-81275000D03*
X159268000Y-82545000D03*
X155458000Y-82545000D03*
X155458000Y-85085000D03*
X159268000Y-85085000D03*
X157363000Y-83815000D03*
X161173000Y-83815000D03*
X161173000Y-60955000D03*
X157363000Y-60955000D03*
X159268000Y-62225000D03*
X155458000Y-62225000D03*
X155458000Y-59685000D03*
X159268000Y-59685000D03*
X157363000Y-58415000D03*
X161173000Y-58415000D03*
X161173000Y-53335000D03*
X157363000Y-53335000D03*
X159268000Y-54605000D03*
X155458000Y-54605000D03*
X155458000Y-57145000D03*
X159268000Y-57145000D03*
X157363000Y-55875000D03*
X161173000Y-55875000D03*
X161173000Y-45715000D03*
X157363000Y-45715000D03*
X159268000Y-46985000D03*
X155458000Y-46985000D03*
X155458000Y-44445000D03*
X159268000Y-44445000D03*
X157363000Y-43175000D03*
X161173000Y-43175000D03*
X161173000Y-48255000D03*
X157363000Y-48255000D03*
X159268000Y-49525000D03*
X155458000Y-49525000D03*
X155458000Y-52065000D03*
X159268000Y-52065000D03*
X157363000Y-50795000D03*
X161173000Y-50795000D03*
X161173000Y-63495000D03*
X157363000Y-63495000D03*
X159268000Y-64765000D03*
X155458000Y-64765000D03*
X155458000Y-130805000D03*
X159268000Y-130805000D03*
X157363000Y-129535000D03*
X161173000Y-129535000D03*
X161173000Y-116835000D03*
X157363000Y-116835000D03*
X159268000Y-118105000D03*
X155458000Y-118105000D03*
X155458000Y-115565000D03*
X159268000Y-115565000D03*
X157363000Y-114295000D03*
X161173000Y-114295000D03*
X161173000Y-109215000D03*
X157363000Y-109215000D03*
X159268000Y-110485000D03*
X155458000Y-110485000D03*
X155458000Y-113025000D03*
X159268000Y-113025000D03*
X157363000Y-111755000D03*
X161173000Y-111755000D03*
X161173000Y-121915000D03*
X157363000Y-121915000D03*
X159268000Y-123185000D03*
X155458000Y-123185000D03*
X155458000Y-120645000D03*
X159268000Y-120645000D03*
X157363000Y-119375000D03*
X161173000Y-119375000D03*
X161173000Y-124455000D03*
X157363000Y-124455000D03*
X159268000Y-125725000D03*
X155458000Y-125725000D03*
X155458000Y-128265000D03*
X159268000Y-128265000D03*
X157363000Y-126995000D03*
X161173000Y-126995000D03*
X161173000Y-149855000D03*
X157363000Y-149855000D03*
X159268000Y-151125000D03*
X155458000Y-151125000D03*
X155458000Y-148585000D03*
X159268000Y-148585000D03*
X157363000Y-147315000D03*
X161173000Y-147315000D03*
X161173000Y-142235000D03*
X157363000Y-142235000D03*
X159268000Y-143505000D03*
X155458000Y-143505000D03*
X155458000Y-146045000D03*
X159268000Y-146045000D03*
X157363000Y-144775000D03*
X161173000Y-144775000D03*
X161173000Y-134615000D03*
X157363000Y-134615000D03*
X159268000Y-135885000D03*
X155458000Y-135885000D03*
X155458000Y-133345000D03*
X159268000Y-133345000D03*
X157363000Y-132075000D03*
X161173000Y-132075000D03*
X161173000Y-137155000D03*
X157363000Y-137155000D03*
X159268000Y-138425000D03*
X155458000Y-138425000D03*
X155458000Y-140965000D03*
X159268000Y-140965000D03*
X157363000Y-139695000D03*
X161173000Y-139695000D03*
X161173000Y-160015000D03*
X157363000Y-160015000D03*
X159268000Y-161285000D03*
X155458000Y-161285000D03*
X155458000Y-158745000D03*
X159268000Y-158745000D03*
X157363000Y-157475000D03*
X161173000Y-157475000D03*
X161173000Y-152395000D03*
X157363000Y-152395000D03*
X159268000Y-153665000D03*
X155458000Y-153665000D03*
X155458000Y-156205000D03*
X159268000Y-156205000D03*
X157363000Y-154935000D03*
X161173000Y-154935000D03*
X161173000Y-165095000D03*
X157363000Y-165095000D03*
X159268000Y-166365000D03*
X155458000Y-166365000D03*
X155458000Y-163825000D03*
X159268000Y-163825000D03*
X157363000Y-162555000D03*
X161173000Y-162555000D03*
X161173000Y-167635000D03*
X157363000Y-167635000D03*
X159268000Y-168905000D03*
X155458000Y-168905000D03*
X155458000Y-171445000D03*
X159268000Y-171445000D03*
D11*
X157363000Y-170175000D03*
D10*
X161173000Y-170175000D03*
D12*
X158252000Y-40000000D03*
X158252000Y-174620000D03*
%TD*%
D13*
%TO.C,CON2*%
X47576700Y-34005500D03*
D14*
X70436700Y-34005500D03*
X61546700Y-34005500D03*
X52656700Y-34005500D03*
X66626700Y-34005500D03*
X60276700Y-34005500D03*
X55196700Y-34005500D03*
X71706700Y-34005500D03*
X78056700Y-34005500D03*
X48846700Y-34005500D03*
X56466700Y-34005500D03*
X74246700Y-34005500D03*
X65356700Y-34005500D03*
X53926700Y-34005500D03*
X69166700Y-34005500D03*
X62816700Y-34005500D03*
X50116700Y-34005500D03*
X51386700Y-34005500D03*
X76786700Y-34005500D03*
X75516700Y-34005500D03*
X72976700Y-34005500D03*
X67896700Y-34005500D03*
X64086700Y-34005500D03*
X59006700Y-34005500D03*
X57736700Y-34005500D03*
X131396700Y-34005500D03*
X139016700Y-34005500D03*
X130126700Y-34005500D03*
X132666700Y-34005500D03*
X140286700Y-34005500D03*
X135206700Y-34005500D03*
X136476700Y-34005500D03*
X142826700Y-34005500D03*
X133936700Y-34005500D03*
X141556700Y-34005500D03*
D13*
X144096700Y-34005500D03*
D14*
X144096700Y-34005500D03*
X137746700Y-34005500D03*
X104726700Y-34005500D03*
X84406700Y-34005500D03*
X107266700Y-34005500D03*
X94566700Y-34005500D03*
X118696700Y-34005500D03*
X98376700Y-34005500D03*
X108536700Y-34005500D03*
X102186700Y-34005500D03*
X99646700Y-34005500D03*
X90756700Y-34005500D03*
X95836700Y-34005500D03*
X109806700Y-34005500D03*
X117426700Y-34005500D03*
X93296700Y-34005500D03*
X100916700Y-34005500D03*
X127586700Y-34005500D03*
X103456700Y-34005500D03*
X122506700Y-34005500D03*
X88216700Y-34005500D03*
X97106700Y-34005500D03*
X111076700Y-34005500D03*
X119966700Y-34005500D03*
X114886700Y-34005500D03*
X92026700Y-34005500D03*
X85676700Y-34005500D03*
X83136700Y-34005500D03*
X81866700Y-34005500D03*
X126316700Y-34005500D03*
X123776700Y-34005500D03*
X116156700Y-34005500D03*
X105996700Y-34005500D03*
X113616700Y-34005500D03*
X86946700Y-34005500D03*
X89486700Y-34005500D03*
X112346700Y-34005500D03*
X128856700Y-34005500D03*
X125046700Y-34005500D03*
X121236700Y-34005500D03*
X47574160Y-34008040D03*
%TD*%
M02*
