M48
; DRILL file {KiCad (5.1.6)-1} date 02/01/23 13:27:30
; FORMAT={-:-/ absolute / metric / decimal}
; #@! TF.CreationDate,2023-02-01T13:27:30-05:00
; #@! TF.GenerationSoftware,Kicad,Pcbnew,(5.1.6)-1
; #@! TF.FileFunction,Plated,1,4,PTH
FMAT,2
METRIC
T1C0.200
T2C0.800
T3C2.300
%
G90
G05
T1
X51.389Y-41.184
X51.702Y-42.268
X52.197Y-43.46
X52.657Y-40.114
X53.325Y-47.285
X53.523Y-40.127
X54.152Y-43.499
X55.986Y-48.768
X56.811Y-48.126
X58.943Y-43.444
X59.004Y-40.112
X59.868Y-40.122
X60.684Y-49.193
X61.159Y-54.292
X61.511Y-42.181
X61.942Y-59.356
X62.417Y-57.552
X63.184Y-61.838
X64.087Y-45.566
X64.785Y-60.493
X65.359Y-40.112
X66.223Y-40.122
X66.454Y-60.056
X67.65Y-55.73
X68.939Y-63.651
X70.437Y-44.802
X71.707Y-40.114
X72.212Y-42.875
X72.573Y-40.127
X75.141Y-59.771
X76.061Y-56.791
X76.787Y-40.981
X77.663Y-43.461
X77.663Y-61.799
X78.057Y-40.13
X78.928Y-40.142
X82.545Y-42.103
X83.845Y-42.103
X84.144Y-44.367
X84.763Y-44.491
X85.185Y-47.085
X85.677Y-47.708
X86.194Y-41.781
X86.66Y-43.815
X86.883Y-41.057
X86.949Y-40.122
X87.354Y-48.273
X87.838Y-40.132
X88.142Y-50.543
X88.999Y-73.63
X89.487Y-70.875
X90.757Y-71.42
X91.594Y-74.078
X92.027Y-55.459
X93.284Y-40.127
X93.932Y-40.75
X93.932Y-52.305
X94.148Y-40.137
X95.346Y-43.669
X95.837Y-46.851
X96.881Y-77.419
X97.107Y-47.551
X98.217Y-79.599
X98.377Y-50.97
X98.491Y-57.059
X98.949Y-39.163
X98.949Y-48.748
X99.654Y-40.112
X99.671Y-40.793
X99.671Y-48.273
X100.051Y-82.911
X100.518Y-40.117
X101.163Y-39.118
X101.163Y-85.971
X101.886Y-86.022
X103.12Y-88.175
X103.419Y-40.083
X103.419Y-82.915
X104.251Y-88.659
X105.14Y-90.444
X105.552Y-86.096
X107.267Y-83.815
X107.876Y-39.142
X107.876Y-92.507
X109.509Y-42.393
X109.509Y-86.997
X110.251Y-91.283
X111.077Y-61.733
X111.712Y-38.891
X111.712Y-92.864
X112.347Y-79.051
X113.617Y-40.119
X114.178Y-87.386
X114.473Y-40.122
X115.24Y-88.572
X116.093Y-39.258
X116.093Y-91.108
X117.688Y-40.229
X119.253Y-41.693
X119.253Y-124.046
X119.924Y-41.693
X120.774Y-39.14
X120.933Y-42.393
X121.536Y-59.892
X121.885Y-54.35
X122.379Y-40.409
X122.841Y-92.018
X123.316Y-63.115
X123.324Y-54.984
X124.16Y-58.552
X125.047Y-40.119
X125.378Y-89.837
X125.776Y-97.546
X125.913Y-40.132
X126.341Y-59.286
X127.024Y-60.497
X127.499Y-62.939
X127.736Y-60.997
X128.324Y-61.321
X129.386Y-62.464
X130.886Y-65.744
X132.395Y-69.652
X132.537Y-103.449
X133.03Y-56.408
X136.235Y-73.823
X137.749Y-40.132
X138.124Y-40.607
X138.643Y-40.132
X140.442Y-128.956
X141.129Y-108.406
X141.554Y-40.132
X141.635Y-73.823
X141.976Y-120.538
X142.23Y-130.023
X142.453Y-110.612
X143.2Y-113.01
X143.2Y-115.407
X143.673Y-130.018
X143.688Y-141.762
X144.313Y-132.832
X144.429Y-138.09
X145.401Y-99.719
X145.847Y-124.577
X145.928Y-136.591
X145.999Y-137.695
X146.39Y-80.589
X146.522Y-130.896
X147.594Y-69.21
X147.767Y-137.866
X147.791Y-106.108
X148.836Y-126.42
X149.384Y-46.793
X150.058Y-67.117
X150.084Y-97.897
X150.126Y-65.454
X151.166Y-65.598
X152.232Y-125.283
X152.79Y-45.038
X153.265Y-44.64
X153.882Y-47.297
X154.357Y-42.268
X155.621Y-106.792
X156.682Y-44.862
X157.735Y-113.246
X158.834Y-116.587
X162.209Y-174.081
X162.414Y-38.191
X163.25Y-41.793
X163.758Y-72.177
T2
X155.458Y-44.445
X155.458Y-46.985
X155.458Y-49.525
X155.458Y-52.065
X155.458Y-54.605
X155.458Y-57.145
X155.458Y-59.685
X155.458Y-62.225
X155.458Y-64.765
X155.458Y-67.305
X155.458Y-69.845
X155.458Y-72.385
X155.458Y-74.925
X155.458Y-77.465
X155.458Y-80.005
X155.458Y-82.545
X155.458Y-85.085
X155.458Y-87.625
X155.458Y-90.165
X155.458Y-92.705
X155.458Y-95.245
X155.458Y-97.785
X155.458Y-100.325
X155.458Y-102.865
X155.458Y-105.405
X155.458Y-110.485
X155.458Y-113.025
X155.458Y-115.565
X155.458Y-118.105
X155.458Y-120.645
X155.458Y-123.185
X155.458Y-125.725
X155.458Y-128.265
X155.458Y-130.805
X155.458Y-133.345
X155.458Y-135.885
X155.458Y-138.425
X155.458Y-140.965
X155.458Y-143.505
X155.458Y-146.045
X155.458Y-148.585
X155.458Y-151.125
X155.458Y-153.665
X155.458Y-156.205
X155.458Y-158.745
X155.458Y-161.285
X155.458Y-163.825
X155.458Y-166.365
X155.458Y-168.905
X155.458Y-171.445
X157.363Y-43.175
X157.363Y-45.715
X157.363Y-48.255
X157.363Y-50.795
X157.363Y-53.335
X157.363Y-55.875
X157.363Y-58.415
X157.363Y-60.955
X157.363Y-63.495
X157.363Y-66.035
X157.363Y-68.575
X157.363Y-71.115
X157.363Y-73.655
X157.363Y-76.195
X157.363Y-78.735
X157.363Y-81.275
X157.363Y-83.815
X157.363Y-86.355
X157.363Y-88.895
X157.363Y-91.435
X157.363Y-93.975
X157.363Y-96.515
X157.363Y-99.055
X157.363Y-101.595
X157.363Y-104.135
X157.363Y-109.215
X157.363Y-111.755
X157.363Y-114.295
X157.363Y-116.835
X157.363Y-119.375
X157.363Y-121.915
X157.363Y-124.455
X157.363Y-126.995
X157.363Y-129.535
X157.363Y-132.075
X157.363Y-134.615
X157.363Y-137.155
X157.363Y-139.695
X157.363Y-142.235
X157.363Y-144.775
X157.363Y-147.315
X157.363Y-149.855
X157.363Y-152.395
X157.363Y-154.935
X157.363Y-157.475
X157.363Y-160.015
X157.363Y-162.555
X157.363Y-165.095
X157.363Y-167.635
X157.363Y-170.175
X159.268Y-44.445
X159.268Y-46.985
X159.268Y-49.525
X159.268Y-52.065
X159.268Y-54.605
X159.268Y-57.145
X159.268Y-59.685
X159.268Y-62.225
X159.268Y-64.765
X159.268Y-67.305
X159.268Y-69.845
X159.268Y-72.385
X159.268Y-74.925
X159.268Y-77.465
X159.268Y-80.005
X159.268Y-82.545
X159.268Y-85.085
X159.268Y-87.625
X159.268Y-90.165
X159.268Y-92.705
X159.268Y-95.245
X159.268Y-97.785
X159.268Y-100.325
X159.268Y-102.865
X159.268Y-105.405
X159.268Y-110.485
X159.268Y-113.025
X159.268Y-115.565
X159.268Y-118.105
X159.268Y-120.645
X159.268Y-123.185
X159.268Y-125.725
X159.268Y-128.265
X159.268Y-130.805
X159.268Y-133.345
X159.268Y-135.885
X159.268Y-138.425
X159.268Y-140.965
X159.268Y-143.505
X159.268Y-146.045
X159.268Y-148.585
X159.268Y-151.125
X159.268Y-153.665
X159.268Y-156.205
X159.268Y-158.745
X159.268Y-161.285
X159.268Y-163.825
X159.268Y-166.365
X159.268Y-168.905
X159.268Y-171.445
X161.173Y-43.175
X161.173Y-45.715
X161.173Y-48.255
X161.173Y-50.795
X161.173Y-53.335
X161.173Y-55.875
X161.173Y-58.415
X161.173Y-60.955
X161.173Y-63.495
X161.173Y-66.035
X161.173Y-68.575
X161.173Y-71.115
X161.173Y-73.655
X161.173Y-76.195
X161.173Y-78.735
X161.173Y-81.275
X161.173Y-83.815
X161.173Y-86.355
X161.173Y-88.895
X161.173Y-91.435
X161.173Y-93.975
X161.173Y-96.515
X161.173Y-99.055
X161.173Y-101.595
X161.173Y-104.135
X161.173Y-109.215
X161.173Y-111.755
X161.173Y-114.295
X161.173Y-116.835
X161.173Y-119.375
X161.173Y-121.915
X161.173Y-124.455
X161.173Y-126.995
X161.173Y-129.535
X161.173Y-132.075
X161.173Y-134.615
X161.173Y-137.155
X161.173Y-139.695
X161.173Y-142.235
X161.173Y-144.775
X161.173Y-147.315
X161.173Y-149.855
X161.173Y-152.395
X161.173Y-154.935
X161.173Y-157.475
X161.173Y-160.015
X161.173Y-162.555
X161.173Y-165.095
X161.173Y-167.635
X161.173Y-170.175
T3
X158.252Y-40.0
X158.252Y-174.62
T0
M30
